SplineFontDB: 3.0
FontName: Oxygen
FullName: Oxygen
FamilyName: Oxygen
Weight: Regular
Copyright: Copyright (c) 2011 by vernon adams. All rights reserved.
Version: 001.001
ItalicAngle: 0
UnderlinePosition: -103
UnderlineWidth: 102
Ascent: 1638
Descent: 410
sfntRevision: 0x00010000
LayerCount: 2
Layer: 0 0 "Back"  1
Layer: 1 0 "Fore"  0
XUID: [1021 14 500265001 4027740]
FSType: 0
OS2Version: 3
OS2_WeightWidthSlopeOnly: 0
OS2_UseTypoMetrics: 1
CreationTime: 1324290120
ModificationTime: 1326278697
PfmFamily: 17
TTFWeight: 400
TTFWidth: 5
LineGap: 0
VLineGap: 0
Panose: 2 0 5 3 0 0 0 9 0 4
OS2TypoAscent: 1567
OS2TypoAOffset: 0
OS2TypoDescent: -492
OS2TypoDOffset: 0
OS2TypoLinegap: 132
OS2WinAscent: 1901
OS2WinAOffset: 0
OS2WinDescent: 483
OS2WinDOffset: 0
HheadAscent: 1901
HheadAOffset: 0
HheadDescent: -483
HheadDOffset: 0
OS2SubXSize: 1434
OS2SubYSize: 1331
OS2SubXOff: 0
OS2SubYOff: 286
OS2SupXSize: 1434
OS2SupYSize: 1331
OS2SupXOff: 0
OS2SupYOff: 976
OS2StrikeYSize: 102
OS2StrikeYPos: 498
OS2Vendor: 'newt'
OS2CodePages: 20000007.00000000
OS2UnicodeRanges: 00000007.00000000.00000000.00000000
Lookup: 4 0 1 "'liga' Standard Ligatures lookup 0"  {"'liga' Standard Ligatures lookup 0-1"  } ['liga' ('DFLT' <'dflt' > 'cyrl' <'dflt' > 'grek' <'dflt' > 'latn' <'dflt' > ) ]
Lookup: 258 0 0 "'kern' Horizontal Kerning lookup 1"  {"'kern' Horizontal Kerning lookup 1 per glyph data 0"  "'kern' Horizontal Kerning lookup 1-1" [307,0,2] } ['kern' ('DFLT' <'dflt' > 'cyrl' <'dflt' > 'grek' <'dflt' > 'latn' <'dflt' > ) ]
MarkAttachClasses: 1
DEI: 91125
KernClass2: 8 5 "'kern' Horizontal Kerning lookup 1-1" 
 1 K
 1 L
 1 Y
 1 O
 1 l
 1 t
 5 b o p
 1 O
 1 Y
 11 c d e g o q
 1 y
 0 {} 0 {} 0 {} 0 {} 0 {} 0 {} -177 {} -177 {} -305 {} -353 {} 0 {} -92 {} -556 {} -163 {} -249 {} 0 {} -106 {} 0 {} -376 {} -267 {} 0 {} 0 {} -106 {} 0 {} 0 {} 0 {} -173 {} -249 {} -46 {} -148 {} 0 {} -56 {} -305 {} -117 {} 0 {} 0 {} 0 {} -369 {} 0 {} -75 {}

StartChar: exclam
Encoding: 33 33 2
Width: 711
VWidth: 2088
Flags: W
HStem: -23 209<253 449> 1455 20G<253 449>
VStem: 253 196<-23 186 1067.85 1475>
LayerCount: 2
Fore
SplineSet
449 1475 m 1
 449 1245 l 1
 387 380 l 1
 323 380 l 1
 253 1245 l 1
 253 1475 l 1
 449 1475 l 1
253 -23 m 1
 253 186 l 1
 449 186 l 1
 449 -23 l 1
 253 -23 l 1
EndSplineSet
EndChar

StartChar: quotedbl
Encoding: 34 34 3
Width: 680
VWidth: 2088
Flags: W
HStem: 1007 466<117 243 439 564>
VStem: 84 159<1270.56 1473> 117 126<1007 1209.44> 405 159<1276.51 1473> 439 125<1007 1203.49>
LayerCount: 2
Fore
SplineSet
439 1007 m 1x88
 405 1473 l 1
 564 1473 l 1x90
 564 1007 l 1
 439 1007 l 1x88
117 1007 m 1xa0
 84 1473 l 1
 243 1473 l 1xc0
 243 1007 l 1
 117 1007 l 1xa0
EndSplineSet
EndChar

StartChar: numbersign
Encoding: 35 35 4
Width: 1044
VWidth: 2088
Flags: W
HStem: -23 21G<150 296.616 512 655.707> 414 127<54 232 393 590 752 903> 940 125<138 323 491 687 851 988> 1455 20G<420.146 564 779.439 925>
LayerCount: 2
Fore
SplineSet
1003 1065 m 1
 988 940 l 1
 827 940 l 1
 752 541 l 1
 915 541 l 1
 903 414 l 1
 733 414 l 1
 652 -23 l 1
 512 -23 l 1
 590 414 l 1
 372 414 l 1
 293 -23 l 1
 150 -23 l 1
 232 414 l 1
 44 414 l 1
 54 541 l 1
 255 541 l 1
 323 938 l 1
 128 938 l 1
 138 1065 l 1
 345 1065 l 1
 424 1475 l 1
 564 1475 l 1
 491 1065 l 1
 710 1065 l 1
 783 1475 l 1
 925 1475 l 1
 851 1065 l 1
 1003 1065 l 1
687 940 m 1
 468 940 l 1
 393 541 l 1
 614 541 l 1
 687 940 l 1
EndSplineSet
EndChar

StartChar: dollar
Encoding: 36 36 5
Width: 1216
VWidth: 2088
Flags: W
HStem: -23 165<344.873 594 714 806.661> 1329 168<421.909 594 714 899.514>
VStem: 130 191<982.724 1235.65> 594 120<-175 -23 150 635 873 1329 1502 1606> 923 199<245.088 526.352>
LayerCount: 2
Fore
SplineSet
594 1606 m 1
 714 1606 l 1
 714 1497 l 1
 850 1485 977 1447 1063 1389 c 1
 1001 1236 l 1
 939 1276 827 1317 714 1329 c 1
 714 835 l 1
 944 764 1122 660 1122 405 c 0
 1122 150 941 16 714 -16 c 1
 714 -175 l 1
 594 -175 l 1
 594 -23 l 1
 377 -19 222 46 130 100 c 1
 197 263 l 1
 297 190 441 146 594 142 c 1
 594 675 l 1
 468 712 l 1
 274 772 130 877 130 1092 c 0
 130 1343 333 1492 594 1502 c 1
 594 1606 l 1
714 635 m 1
 714 150 l 1
 839 176 923 253 923 395 c 0
 923 508 862 579 714 635 c 1
594 873 m 1
 594 1333 l 1
 431 1325 321 1249 321 1109 c 0
 321 992 392 937 532 891 c 1
 594 873 l 1
EndSplineSet
EndChar

StartChar: percent
Encoding: 37 37 6
Width: 2037
VWidth: 2088
Flags: W
HStem: -16 114<1407.02 1648.91> 646 114<1409.47 1651.38> 735 116<331.112 577.102> 1389 113<335.607 577.433> 1455 20G<1298.17 1461>
VStem: 106 141<939.422 1291.33> 666 141<944.773 1289.2> 1180 140<194.104 549.117> 1740 140<195.323 546.986>
LayerCount: 2
Fore
SplineSet
1529 760 m 0xc780
 1746 760 1880 595 1880 372 c 0
 1880 155 1742 -16 1529 -16 c 0
 1312 -16 1180 155 1180 372 c 0
 1180 591 1316 760 1529 760 c 0xc780
1529 646 m 0
 1389 646 1320 514 1320 372 c 0
 1320 224 1391 98 1529 98 c 0
 1669 98 1740 230 1740 372 c 0
 1740 520 1667 646 1529 646 c 0
455 1502 m 0xb780
 672 1502 807 1337 807 1114 c 0
 807 897 668 735 455 735 c 0
 238 735 106 897 106 1114 c 0
 106 1333 242 1502 455 1502 c 0xb780
435 -4 m 1
 1310 1475 l 1
 1461 1475 l 1x8f80
 582 -4 l 1
 435 -4 l 1
455 1389 m 0xb780
 315 1389 247 1256 247 1114 c 0
 247 966 317 851 455 851 c 0
 595 851 666 972 666 1114 c 0
 666 1262 593 1389 455 1389 c 0xb780
EndSplineSet
EndChar

StartChar: ampersand
Encoding: 38 38 7
Width: 1595
VWidth: 2088
Flags: W
HStem: -23 157<430.764 834.962> 1356 146<523.66 786.267>
VStem: 111 194<252.524 562.462> 291 177<1034.07 1298.71> 844 175<1055.57 1299.79>
LayerCount: 2
Fore
SplineSet
455 846 m 1xe8
 359 961 291 1044 291 1176 c 0xd8
 291 1379 437 1502 656 1502 c 0
 846 1502 1019 1401 1019 1192 c 0
 1019 1015 879 901 702 811 c 1
 1076 378 l 1
 1132 438 1186 522 1226 604 c 1
 1360 512 l 1
 1316 424 1253 334 1184 259 c 1
 1383 42 l 1
 1327 24 1268 4 1212 -12 c 1
 1070 144 l 1
 955 44 808 -23 622 -23 c 0
 301 -23 111 140 111 399 c 0
 111 616 263 746 455 846 c 1xe8
550 733 m 1
 408 655 305 559 305 409 c 0xe8
 305 236 425 134 630 134 c 0
 762 134 873 183 963 261 c 1
 825 420 688 574 550 733 c 1
658 1356 m 0
 545 1356 468 1291 468 1176 c 0xd8
 468 1078 526 1003 608 917 c 1
 736 984 844 1052 844 1182 c 0
 844 1299 756 1356 658 1356 c 0
EndSplineSet
EndChar

StartChar: quotesingle
Encoding: 39 39 8
Width: 532
VWidth: 2088
Flags: W
HStem: 1007 468<205 330>
VStem: 171 159<1277.67 1475> 205 125<1007 1204.33>
LayerCount: 2
Fore
SplineSet
205 1007 m 1xa0
 171 1475 l 5
 330 1475 l 5xc0
 330 1007 l 1
 205 1007 l 1xa0
EndSplineSet
EndChar

StartChar: parenleft
Encoding: 40 40 9
Width: 703
VWidth: 2088
Flags: W
VStem: 167 182<307.606 986.061>
LayerCount: 2
Fore
SplineSet
602 -225 m 1
 441 -225 l 1
 288 20 167 329 167 638 c 0
 167 959 274 1248 437 1519 c 1
 600 1519 l 1
 441 1252 349 953 349 642 c 0
 349 353 449 28 602 -225 c 1
EndSplineSet
EndChar

StartChar: parenright
Encoding: 41 41 10
Width: 703
VWidth: 2088
Flags: W
VStem: 355 184<307.606 986.061>
LayerCount: 2
Fore
SplineSet
263 -225 m 1
 104 -225 l 1
 257 28 355 353 355 642 c 0
 355 953 263 1252 104 1519 c 1
 267 1519 l 1
 430 1248 539 959 539 638 c 0
 539 329 416 20 263 -225 c 1
EndSplineSet
EndChar

StartChar: asterisk
Encoding: 42 42 11
Width: 1044
VWidth: 2088
Flags: W
LayerCount: 2
Fore
SplineSet
606 1366 m 1
 578 965 l 1
 909 1149 l 1
 937 1097 958 1046 986 994 c 1
 618 867 l 1
 706 761 793 645 881 539 c 1
 831 507 783 481 733 449 c 1
 522 798 l 1
 315 449 l 1
 165 539 l 1
 428 867 l 1
 62 994 l 1
 138 1149 l 1
 470 965 l 1
 441 1366 l 1
 606 1366 l 1
EndSplineSet
EndChar

StartChar: plus
Encoding: 43 43 12
Width: 1428
VWidth: 2088
Flags: W
HStem: 0 21G<650 798> 447 127<251 650 800 1184>
VStem: 650 148<0 447 574 1009>
LayerCount: 2
Fore
SplineSet
251 574 m 1
 652 574 l 5
 652 1009 l 5
 800 1009 l 1
 800 574 l 1
 1184 574 l 1
 1184 447 l 1
 798 447 l 1
 798 0 l 1
 650 0 l 5
 650 447 l 5
 251 447 l 1
 251 574 l 1
EndSplineSet
EndChar

StartChar: comma
Encoding: 44 44 13
Width: 519
VWidth: 2088
Flags: W
HStem: -261 478<177 199>
VStem: 75 280
LayerCount: 2
Fore
SplineSet
355 217 m 1
 199 -261 l 1
 75 -261 l 1
 177 217 l 1
 355 217 l 1
EndSplineSet
EndChar

StartChar: hyphen
Encoding: 45 45 14
Width: 847
VWidth: 2088
Flags: W
HStem: 493 135<171 679>
VStem: 171 508<493 628>
LayerCount: 2
Fore
SplineSet
171 493 m 1
 171 628 l 1
 679 628 l 1
 679 493 l 1
 171 493 l 1
EndSplineSet
EndChar

StartChar: period
Encoding: 46 46 15
Width: 638
VWidth: 2088
Flags: W
HStem: 0 232<209 439>
VStem: 209 230<0 232>
LayerCount: 2
Fore
SplineSet
209 0 m 1
 209 232 l 1
 439 232 l 1
 439 0 l 1
 209 0 l 1
EndSplineSet
EndChar

StartChar: slash
Encoding: 47 47 16
Width: 955
VWidth: 2088
Flags: W
HStem: 1459 20G<768.885 938>
LayerCount: 2
Fore
SplineSet
247 -219 m 1
 88 -219 l 1
 777 1479 l 1
 938 1479 l 1
 247 -219 l 1
EndSplineSet
EndChar

StartChar: zero
Encoding: 48 48 17
Width: 1305
VWidth: 2088
Flags: W
HStem: -23 169<520.948 770.987> 1335 167<516.601 775.319>
VStem: 136 211<395.439 1087.75> 945 208<395.439 1087.75>
LayerCount: 2
Fore
SplineSet
646 -23 m 0
 299 -23 136 294 136 737 c 0
 136 1201 316 1502 646 1502 c 0
 976 1502 1153 1201 1153 737 c 0
 1153 294 993 -23 646 -23 c 0
646 1335 m 0
 452 1335 347 1103 347 744 c 0
 347 377 452 146 646 146 c 0
 840 146 945 377 945 744 c 0
 945 1103 840 1335 646 1335 c 0
EndSplineSet
EndChar

StartChar: one
Encoding: 49 49 18
Width: 914
VWidth: 2088
Flags: W
HStem: 0 21G<478 675> 1455 20G<435 675>
VStem: 478 197<0 1306>
LayerCount: 2
Fore
SplineSet
478 1475 m 1
 675 1475 l 1
 675 0 l 1
 478 0 l 1
 478 1306 l 1
 392 1254 309 1210 209 1168 c 1
 209 1326 l 1
 305 1364 392 1419 478 1475 c 1
EndSplineSet
EndChar

StartChar: two
Encoding: 50 50 19
Width: 1144
VWidth: 2088
Flags: W
HStem: 0 155<313 986> 1335 167<314.419 682.247>
VStem: 787 212<905.174 1230.75>
LayerCount: 2
Fore
SplineSet
524 1502 m 0
 793 1502 999 1345 999 1086 c 0
 999 898 879 751 704 574 c 2
 313 155 l 1
 986 155 l 1
 986 0 l 1
 121 0 l 1
 121 190 l 1
 594 706 l 2
 711 829 787 951 787 1070 c 0
 787 1245 681 1335 520 1335 c 0
 403 1335 280 1294 188 1208 c 1
 125 1366 l 1
 217 1444 342 1502 524 1502 c 0
EndSplineSet
EndChar

StartChar: three
Encoding: 51 51 20
Width: 1142
VWidth: 2088
Flags: W
HStem: -23 157<295.949 706.055> 668 176<355 648.125> 1343 159<297.322 692.572>
VStem: 777 203<954.86 1263.51> 827 194<248.771 546.315>
LayerCount: 2
Fore
SplineSet
827 395 m 0xe8
 827 652 587 664 355 668 c 1
 355 844 l 1
 574 844 777 869 777 1107 c 0
 777 1274 687 1343 522 1343 c 0
 394 1343 263 1298 177 1236 c 1
 115 1387 l 1
 215 1456 359 1502 556 1502 c 0
 763 1502 980 1371 980 1130 c 0xf0
 980 938 869 817 712 767 c 1
 892 729 1021 596 1021 393 c 0
 1021 138 793 -23 522 -23 c 0
 332 -23 177 42 115 94 c 1
 177 243 l 1
 259 185 378 134 520 134 c 0
 702 134 827 224 827 395 c 0xe8
EndSplineSet
EndChar

StartChar: four
Encoding: 52 52 21
Width: 1290
VWidth: 2088
Flags: W
HStem: 0 21G<792 977> 374 140<315 792 977 1166> 1455 20G<761.188 977>
VStem: 792 185<0 374 514 1243>
LayerCount: 2
Fore
SplineSet
1166 374 m 1
 977 374 l 1
 977 0 l 1
 792 0 l 1
 792 374 l 1
 121 374 l 1
 121 528 l 1
 775 1475 l 1
 977 1475 l 1
 977 514 l 1
 1166 514 l 1
 1166 374 l 1
792 1243 m 1
 315 514 l 1
 792 514 l 1
 792 1243 l 1
EndSplineSet
EndChar

StartChar: five
Encoding: 53 53 22
Width: 1238
VWidth: 2088
Flags: W
HStem: -23 163<332.681 725.274> 783 159<445.928 753.741> 1308 167<411 1015>
VStem: 881 199<299.113 654.898>
LayerCount: 2
Fore
SplineSet
1015 1475 m 1
 1015 1308 l 1
 411 1308 l 1
 407 1162 401 1015 397 869 c 1
 470 919 548 942 626 942 c 0
 913 942 1080 737 1080 482 c 0
 1080 181 861 -23 546 -23 c 0
 381 -23 228 33 130 115 c 1
 201 257 l 1
 270 207 395 140 550 140 c 0
 757 140 881 281 881 480 c 0
 881 655 782 783 594 783 c 0
 506 783 429 752 367 683 c 1
 215 702 l 1
 257 1475 l 1
 1015 1475 l 1
EndSplineSet
EndChar

StartChar: six
Encoding: 54 54 23
Width: 1263
VWidth: 2088
Flags: W
HStem: -23 161<437.351 777.943> 765 154<468.586 787.034> 1455 20G<506.5 967>
VStem: 108 191<280.772 617.024> 925 201<284.577 625.774>
LayerCount: 2
Fore
SplineSet
668 919 m 0
 931 919 1126 739 1126 460 c 0
 1126 191 923 -23 614 -23 c 0
 295 -23 108 187 108 466 c 0
 108 779 282 943 731 1475 c 1
 967 1475 l 1
 437 859 l 1
 495 893 595 919 668 919 c 0
299 447 m 0
 299 272 416 138 608 138 c 0
 800 138 925 276 925 449 c 0
 925 633 815 765 614 765 c 0
 407 765 299 620 299 447 c 0
EndSplineSet
EndChar

StartChar: seven
Encoding: 55 55 24
Width: 1148
VWidth: 2088
Flags: W
HStem: 0 21G<299 506.809> 1316 159<96 796>
LayerCount: 2
Fore
SplineSet
299 0 m 1
 796 1316 l 1
 96 1316 l 1
 96 1475 l 1
 1021 1475 l 1
 1021 1337 l 1
 499 0 l 1
 299 0 l 1
EndSplineSet
EndChar

StartChar: eight
Encoding: 56 56 25
Width: 1284
VWidth: 2088
Flags: W
HStem: -23 169<470.356 832.834> 1335 167<485.021 818.839>
VStem: 171 188<250.732 541.184> 199 190<975.122 1244.85> 915 188<975.122 1244.85> 942 188<250.732 541.184>
LayerCount: 2
Fore
SplineSet
652 -23 m 0xc4
 403 -23 171 117 171 378 c 0xe4
 171 566 276 709 468 771 c 1
 299 829 199 953 199 1130 c 0
 199 1368 405 1502 652 1502 c 0
 899 1502 1103 1368 1103 1130 c 0xd8
 1103 953 1012 829 855 771 c 1
 1035 709 1130 566 1130 378 c 0
 1130 117 901 -23 652 -23 c 0xc4
652 692 m 1
 485 652 359 554 359 393 c 0
 359 228 485 146 652 146 c 0
 819 146 942 228 942 393 c 0
 942 554 819 652 652 692 c 1
652 1335 m 0
 514 1335 389 1260 389 1124 c 0
 389 974 483 889 652 851 c 1
 821 889 915 974 915 1124 c 0xd8
 915 1260 790 1335 652 1335 c 0
EndSplineSet
EndChar

StartChar: nine
Encoding: 57 57 26
Width: 1238
VWidth: 2088
Flags: W
HStem: -23 21G<243 695.5> 562 152<422.499 741.556> 1343 159<435.348 772.869>
VStem: 84 201<853.348 1194.7> 913 188<861.51 1200.09>
LayerCount: 2
Fore
SplineSet
541 562 m 0
 278 562 84 740 84 1019 c 0
 84 1288 287 1502 596 1502 c 0
 915 1502 1101 1294 1101 1015 c 0
 1101 692 913 529 478 -23 c 1
 243 -23 l 1
 773 622 l 1
 715 588 614 562 541 562 c 0
913 1034 m 0
 913 1209 794 1343 602 1343 c 0
 410 1343 285 1203 285 1030 c 0
 285 846 395 714 596 714 c 0
 803 714 913 861 913 1034 c 0
EndSplineSet
EndChar

StartChar: colon
Encoding: 58 58 27
Width: 508
VWidth: 2088
Flags: W
HStem: -23 220<138 363> 846 219<138 363>
VStem: 138 225<-23 197 846 1065>
LayerCount: 2
Fore
SplineSet
138 846 m 5
 138 1065 l 5
 363 1065 l 5
 363 846 l 5
 138 846 l 5
138 -23 m 1
 138 197 l 1
 363 197 l 1
 363 -23 l 1
 138 -23 l 1
EndSplineSet
EndChar

StartChar: semicolon
Encoding: 59 59 28
Width: 519
VWidth: 2088
Flags: W
HStem: 846 219<138 363>
VStem: 138 225<846 1065>
LayerCount: 2
Fore
SplineSet
138 846 m 1
 138 1065 l 1
 363 1065 l 1
 363 846 l 1
 138 846 l 1
359 186 m 1
 223 -293 l 1
 98 -293 l 1
 159 186 l 1
 359 186 l 1
EndSplineSet
EndChar

StartChar: less
Encoding: 60 60 29
Width: 1411
VWidth: 2088
Flags: W
LayerCount: 2
Fore
SplineSet
1188 931 m 1
 424 564 l 1
 1184 205 l 1
 1184 48 l 1
 213 518 l 1
 213 608 l 1
 1188 1088 l 1
 1188 931 l 1
EndSplineSet
EndChar

StartChar: equal
Encoding: 61 61 30
Width: 1411
VWidth: 2088
Flags: W
HStem: 289 139<192 1208> 702 142<190 1208>
LayerCount: 2
Fore
SplineSet
192 428 m 1
 1208 428 l 1
 1208 289 l 1
 192 289 l 1
 192 428 l 1
190 844 m 1
 1208 844 l 1
 1208 702 l 1
 190 702 l 1
 190 844 l 1
EndSplineSet
EndChar

StartChar: greater
Encoding: 62 62 31
Width: 1411
VWidth: 2088
Flags: W
LayerCount: 2
Fore
SplineSet
209 217 m 1
 973 566 l 1
 213 945 l 1
 213 1099 l 1
 1186 606 l 1
 1186 516 l 1
 209 58 l 1
 209 217 l 1
EndSplineSet
EndChar

StartChar: question
Encoding: 63 63 32
Width: 997
VWidth: 2088
Flags: W
HStem: 0 232<319 550> 1354 148<254.419 612.217>
VStem: 319 231<0 232> 347 157<441 690.637> 696 171<1011.94 1277.03>
LayerCount: 2
Fore
SplineSet
180 1268 m 1xd8
 134 1395 l 1
 228 1462 347 1502 464 1502 c 0
 691 1502 867 1383 867 1164 c 0
 867 843 504 811 504 552 c 2
 504 441 l 1
 357 441 l 1
 357 441 347 558 347 616 c 0
 347 831 696 905 696 1156 c 0
 696 1290 577 1354 443 1354 c 0
 311 1354 232 1298 180 1268 c 1xd8
319 0 m 1xe8
 319 232 l 1
 550 232 l 1
 550 0 l 1
 319 0 l 1xe8
EndSplineSet
EndChar

StartChar: at
Encoding: 64 64 33
Width: 1844
VWidth: 2088
Flags: W
HStem: -241 122<716.037 1252.41> 148 121<1273.04 1459.61> 167 126<791.061 1009.76> 875 119<870.003 1149.72> 1264 121<714.111 1202.42>
VStem: 148 141<310.045 823.294> 598 146<340.233 717.416> 1552 140<408.245 926.27>
LayerCount: 2
Fore
SplineSet
1335 148 m 0xdf
 1227 148 1150 196 1132 307 c 1
 1059 209 969 167 871 167 c 0xbf
 712 167 598 285 598 484 c 0
 598 747 732 994 999 994 c 0
 1105 994 1220 963 1304 933 c 1
 1250 699 1260 460 1260 376 c 0
 1260 301 1298 269 1358 269 c 0
 1502 269 1552 458 1552 696 c 0
 1552 1051 1296 1264 947 1264 c 0
 575 1264 289 963 289 574 c 0
 289 150 576 -119 971 -119 c 0
 1170 -119 1338 -60 1461 34 c 1
 1537 -54 l 1
 1399 -169 1203 -241 969 -241 c 0
 499 -241 148 85 148 574 c 0
 148 1025 504 1385 951 1385 c 0
 1352 1385 1692 1116 1692 694 c 0
 1692 387 1562 148 1335 148 c 0xdf
897 293 m 0
 1112 293 1101 600 1151 861 c 1
 1121 871 1045 875 1001 875 c 0
 807 875 744 664 744 474 c 0
 744 366 799 293 897 293 c 0
EndSplineSet
EndChar

StartChar: A
Encoding: 65 65 34
Width: 1388
VWidth: 2088
Flags: W
HStem: 0 21G<44 252.155 1137.31 1345> 478 160<470 927> 1455 20G<602.325 816.268>
LayerCount: 2
Fore
SplineSet
44 0 m 1
 610 1475 l 1
 809 1475 l 1
 1345 0 l 1
 1144 0 l 1
 984 478 l 1
 416 478 l 1
 245 0 l 1
 44 0 l 1
927 638 m 1
 710 1270 l 1
 470 638 l 1
 927 638 l 1
EndSplineSet
EndChar

StartChar: B
Encoding: 66 66 35
Width: 1373
VWidth: 2088
Flags: W
HStem: 0 157<372 906.724> 683 146<372 878.83> 1318 157<372 868.866>
VStem: 177 195<157 683 829 1318> 971 203<926.345 1226.65> 1032 198<268.914 591.532>
LayerCount: 2
Back
SplineSet
172 1446 m 1xf4
 172 0 l 1
 611 0 l 2
 941 0 1159 97 1159 359 c 0xf8
 1159 487 1100 603 963 649 c 1
 1140 695 1214 849 1214 1024 c 0
 1214 1285 1048 1446 687 1446 c 2
 172 1446 l 1xf4
363 153 m 1
 363 595 l 1
 686 595 l 2
 813 595 961 569 961 393 c 0
 961 170 803 153 580 153 c 2
 363 153 l 1
363 754 m 1
 363 1288 l 1
 659 1288 l 2
 897 1288 1020 1217 1020 1023 c 0xf4
 1020 820 910 754 706 754 c 2
 363 754 l 1
EndSplineSet
Fore
SplineSet
177 0 m 1xf4
 177 1475 l 1
 614 1475 l 2
 951 1475 1174 1376 1174 1109 c 0xf8
 1174 963 1106 829 945 777 c 1
 1148 735 1230 591 1230 430 c 0
 1230 165 1061 0 694 0 c 2
 177 0 l 1xf4
372 1318 m 1
 372 829 l 1
 692 829 l 2
 822 829 971 861 971 1074 c 0
 971 1301 809 1318 582 1318 c 2
 372 1318 l 1
372 683 m 1
 372 157 l 1
 664 157 l 2
 907 157 1032 229 1032 432 c 0xf4
 1032 622 921 683 712 683 c 2
 372 683 l 1
EndSplineSet
EndChar

StartChar: C
Encoding: 67 67 36
Width: 1353
VWidth: 2088
Flags: W
HStem: -23 163<613.413 1050.6> 1339 163<613.413 1050.6>
VStem: 117 208<471.785 1011.34>
LayerCount: 2
Fore
SplineSet
117 742 m 0
 117 1151 358 1502 811 1502 c 0
 995 1502 1149 1458 1260 1370 c 1
 1194 1212 l 1
 1104 1285 967 1339 827 1339 c 0
 476 1339 325 1055 325 742 c 0
 325 429 476 140 827 140 c 0
 967 140 1104 194 1194 267 c 1
 1260 108 l 1
 1149 20 995 -23 811 -23 c 0
 358 -23 117 333 117 742 c 0
EndSplineSet
EndChar

StartChar: D
Encoding: 68 68 37
Width: 1549
VWidth: 2088
Flags: W
HStem: 0 157<372 895.728> 1318 157<372 889.938>
VStem: 177 195<157 1318> 1224 211<478.981 1003.84>
LayerCount: 2
Fore
SplineSet
177 0 m 1
 177 1475 l 5
 548 1475 l 6
 1030 1475 1435 1317 1435 735 c 0
 1435 233 1081 0 640 0 c 2
 177 0 l 1
372 1318 m 1
 372 157 l 1
 656 157 l 2
 989 157 1224 342 1224 731 c 0
 1224 1207 950 1318 568 1318 c 2
 372 1318 l 1
EndSplineSet
EndChar

StartChar: E
Encoding: 69 69 38
Width: 1180
VWidth: 2088
Flags: W
HStem: 0 157<372 1063> 685 161<372 1001> 1318 157<372 1032>
VStem: 177 195<157 685 846 1318>
LayerCount: 2
Fore
SplineSet
1001 846 m 1
 1001 685 l 1
 372 685 l 1
 372 157 l 1
 1078 157 l 1
 1063 0 l 1
 177 0 l 1
 177 1475 l 5
 1047 1475 l 5
 1032 1318 l 1
 372 1318 l 1
 372 846 l 1
 1001 846 l 1
EndSplineSet
EndChar

StartChar: F
Encoding: 70 70 39
Width: 1075
VWidth: 2088
Flags: W
HStem: 0 21G<177 372> 677 160<372 982> 1318 157<372 1005>
VStem: 177 195<0 677 837 1318>
LayerCount: 2
Fore
SplineSet
982 837 m 1
 982 677 l 1
 372 677 l 1
 372 0 l 1
 177 0 l 1
 177 1475 l 5
 1021 1475 l 5
 1005 1318 l 1
 372 1318 l 1
 372 837 l 1
 982 837 l 1
EndSplineSet
EndChar

StartChar: G
Encoding: 71 71 40
Width: 1499
VWidth: 2088
Flags: W
HStem: -23 163<613.413 1042.4> 620 151<796 1142> 1339 163<613.413 1055.38>
VStem: 117 208<471.785 1011.34> 1142 170<211.013 620>
LayerCount: 2
Fore
SplineSet
117 742 m 0
 117 1151 358 1502 811 1502 c 0
 995 1502 1157 1458 1268 1370 c 1
 1204 1212 l 1
 1114 1285 967 1339 827 1339 c 0
 476 1339 325 1055 325 742 c 0
 325 429 476 140 827 140 c 0
 944 140 1054 180 1142 236 c 1
 1142 620 l 1
 796 620 l 1
 796 771 l 1
 1312 771 l 1
 1312 132 l 1
 1141 30 988 -23 811 -23 c 0
 358 -23 117 333 117 742 c 0
EndSplineSet
EndChar

StartChar: H
Encoding: 72 72 41
Width: 1501
VWidth: 2088
Flags: W
HStem: 0 21G<177 372 1132 1326> 702 153<372 1132> 1455 20G<177 372 1132 1326>
VStem: 177 195<0 702 855 1475> 1132 194<0 702 855 1475>
LayerCount: 2
Fore
SplineSet
1132 702 m 1
 372 702 l 1
 372 0 l 1
 177 0 l 1
 177 1475 l 5
 372 1475 l 1
 372 855 l 1
 1132 855 l 1
 1132 1475 l 1
 1326 1475 l 1
 1326 0 l 1
 1132 0 l 1
 1132 702 l 1
EndSplineSet
EndChar

StartChar: I
Encoding: 73 73 42
Width: 661
VWidth: 2088
Flags: W
HStem: 0 21G<215 409> 1455 20G<215 409>
VStem: 215 194<0 1475>
LayerCount: 2
Fore
SplineSet
409 1475 m 1
 409 0 l 1
 215 0 l 1
 215 1475 l 1
 409 1475 l 1
EndSplineSet
EndChar

StartChar: J
Encoding: 74 74 43
Width: 688
VWidth: 2088
Flags: W
HStem: -26 158<56 258.275> 1455 20G<317 514>
VStem: 317 197<191.806 1475>
LayerCount: 2
Fore
SplineSet
317 387 m 2
 317 1475 l 5
 514 1475 l 5
 514 437 l 2
 514 126 475 -26 88 -26 c 2
 56 -26 l 1
 56 132 l 1
 108 132 l 1
 307 138 317 237 317 387 c 2
EndSplineSet
EndChar

StartChar: K
Encoding: 75 75 44
Width: 1432
VWidth: 2088
Flags: W
HStem: 0 21G<177 372 1023.7 1285> 1455 20G<177 372 949.951 1210>
VStem: 177 195<0 586 777 1475>
LayerCount: 2
Fore
SplineSet
614 785 m 1
 1285 0 l 1
 1040 0 l 1
 480 687 l 1
 372 586 l 1
 372 0 l 1
 177 0 l 1
 177 1475 l 1
 372 1475 l 1
 372 777 l 1
 967 1475 l 1
 1210 1475 l 1
 614 785 l 1
EndSplineSet
EndChar

StartChar: L
Encoding: 76 76 45
Width: 1052
VWidth: 2088
Flags: W
HStem: 0 157<372 1015> 1455 20G<177 372>
VStem: 177 195<157 1475>
LayerCount: 2
Fore
SplineSet
177 1475 m 1
 372 1475 l 1
 372 157 l 5
 1015 157 l 5
 1015 0 l 1
 177 0 l 1
 177 1475 l 1
EndSplineSet
EndChar

StartChar: M
Encoding: 77 77 46
Width: 1798
VWidth: 2088
Flags: W
HStem: 0 21G<177 361 1437 1621> 1455 20G<177 412.299 1394.83 1621>
VStem: 177 184<0 1134> 1437 184<0 1128>
LayerCount: 2
Fore
SplineSet
361 1134 m 1
 361 0 l 1
 177 0 l 1
 177 1475 l 1
 403 1475 l 1
 907 391 l 1
 1404 1475 l 5
 1621 1475 l 5
 1621 0 l 1
 1437 0 l 1
 1437 1128 l 1
 997 165 l 1
 811 165 l 1
 361 1134 l 1
EndSplineSet
EndChar

StartChar: N
Encoding: 78 78 47
Width: 1517
VWidth: 2088
Flags: W
HStem: 0 21G<177 355 1120.94 1345> 1455 20G<177 398.039 1168 1345>
VStem: 177 178<0 1206> 1168 177<263 1475>
LayerCount: 2
Fore
SplineSet
1345 0 m 1
 1134 0 l 1
 441 1061 l 1
 355 1206 l 1
 355 0 l 1
 177 0 l 1
 177 1475 l 5
 385 1475 l 5
 1080 409 l 1
 1168 263 l 1
 1168 1475 l 1
 1345 1475 l 1
 1345 0 l 1
EndSplineSet
EndChar

StartChar: O
Encoding: 79 79 48
Width: 1656
VWidth: 2088
Flags: W
HStem: -23 163<617.133 1040.87> 1339 163<620.197 1037.8>
VStem: 117 208<466.505 1017.13> 1333 208<466.505 1017.13>
LayerCount: 2
Back
SplineSet
799 1473 m 0
 360 1473 101 1162 101 728 c 0
 101 272 376 -23 799 -23 c 0
 1222 -23 1497 272 1497 728 c 0
 1497 1162 1238 1473 799 1473 c 0
799 142 m 0
 469 142 306 397 306 720 c 0
 306 1052 468 1312 799 1312 c 0
 1130 1312 1292 1052 1292 720 c 0
 1292 397 1129 142 799 142 c 0
EndSplineSet
Fore
SplineSet
829 -23 m 0
 382 -23 117 294 117 737 c 0
 117 1203 397 1502 829 1502 c 0
 1261 1502 1541 1203 1541 737 c 0
 1541 294 1276 -23 829 -23 c 0
829 1339 m 0
 492 1339 325 1077 325 744 c 0
 325 405 490 140 829 140 c 0
 1168 140 1333 405 1333 744 c 0
 1333 1077 1166 1339 829 1339 c 0
EndSplineSet
EndChar

StartChar: P
Encoding: 80 80 49
Width: 1260
VWidth: 2088
Flags: W
HStem: 0 21G<177 372> 600 156<372 860.347> 1318 157<372 867.391>
VStem: 177 195<0 600 756 1318> 997 183<883.29 1201.69>
LayerCount: 2
Fore
SplineSet
177 0 m 1
 177 1475 l 1
 656 1475 l 2
 963 1475 1180 1333 1180 1042 c 0
 1180 781 976 600 681 600 c 2
 372 600 l 1
 372 0 l 1
 177 0 l 1
372 1318 m 1
 372 756 l 1
 698 756 l 2
 882 756 997 875 997 1040 c 0
 997 1222 876 1318 675 1318 c 2
 372 1318 l 1
EndSplineSet
EndChar

StartChar: Q
Encoding: 81 81 50
Width: 1656
VWidth: 2088
Flags: W
HStem: -430 21G<1208.11 1240.02> -23 167<617.133 1040.87> 1335 167<620.197 1037.8>
VStem: 117 208<467.369 1006.92> 1333 208<467.369 1006.92>
LayerCount: 2
Fore
SplineSet
929 -8 m 1
 1090 20 l 1
 1176 -166 1331 -309 1331 -309 c 1
 1222 -430 l 1
 1222 -430 1031 -235 929 -8 c 1
829 -23 m 0
 382 -23 117 294 117 737 c 0
 117 1203 397 1502 829 1502 c 0
 1261 1502 1541 1203 1541 737 c 0
 1541 294 1276 -23 829 -23 c 0
829 1335 m 0
 492 1335 325 1074 325 744 c 0
 325 407 490 144 829 144 c 0
 1168 144 1333 407 1333 744 c 0
 1333 1074 1166 1335 829 1335 c 0
EndSplineSet
EndChar

StartChar: R
Encoding: 82 82 51
Width: 1359
VWidth: 2088
Flags: W
HStem: 0 21G<177 372 1073.11 1282> 652 161<372 758.028> 1318 157<372 919.04>
VStem: 177 195<0 652 813 1318> 1028 192<919.466 1220.64>
LayerCount: 2
Fore
SplineSet
1282 0 m 1
 1082 0 l 1
 885 443 l 2
 847 529 806 594 760 644 c 1
 718 650 672 652 620 652 c 2
 372 652 l 1
 372 0 l 1
 177 0 l 1
 177 1475 l 1
 635 1475 l 2
 942 1475 1220 1421 1220 1080 c 0
 1220 896 1124 746 919 698 c 1
 973 644 1027 584 1063 504 c 1
 1282 0 l 1
372 1318 m 1
 372 813 l 1
 675 813 l 2
 928 813 1028 909 1028 1076 c 0
 1028 1233 929 1318 714 1318 c 2
 372 1318 l 1
EndSplineSet
EndChar

StartChar: S
Encoding: 83 83 52
Width: 1432
VWidth: 2088
Flags: W
HStem: -23 163<408.635 917.263> 1333 169<491.53 991.262>
VStem: 175 192<980.017 1229.47> 1040 196<254.795 530.27>
LayerCount: 2
Fore
SplineSet
773 654 m 2
 520 712 l 2
 321 756 175 877 175 1092 c 0
 175 1353 416 1502 719 1502 c 0
 894 1502 1072 1460 1180 1389 c 1
 1116 1236 l 1
 1032 1286 869 1333 719 1333 c 0
 510 1333 367 1259 367 1109 c 0
 367 992 440 925 584 891 c 2
 842 831 l 2
 1065 758 1236 654 1236 405 c 0
 1236 112 989 -23 702 -23 c 0
 453 -23 273 44 169 100 c 1
 234 263 l 1
 351 185 530 140 710 140 c 0
 898 140 1040 220 1040 395 c 0
 1040 523 963 594 773 654 c 2
EndSplineSet
EndChar

StartChar: T
Encoding: 84 84 53
Width: 1123
VWidth: 2088
Flags: W
HStem: 0 21G<466 660> 1318 157<28 466 660 1101>
VStem: 466 194<0 1318>
LayerCount: 2
Fore
SplineSet
28 1318 m 1
 28 1475 l 1
 1101 1475 l 1
 1101 1318 l 1
 660 1318 l 1
 660 0 l 1
 466 0 l 1
 466 1318 l 1
 28 1318 l 1
EndSplineSet
EndChar

StartChar: U
Encoding: 85 85 54
Width: 1441
VWidth: 2088
Flags: W
HStem: -23 167<513.647 928.17> 1455 20G<167 361 1080 1274>
VStem: 167 194<302.918 1475> 1080 194<302.918 1475>
LayerCount: 2
Fore
SplineSet
721 -23 m 0
 307 -23 167 211 167 546 c 2
 167 1475 l 1
 361 1475 l 1
 361 552 l 2
 361 259 470 144 721 144 c 0
 972 144 1080 259 1080 552 c 2
 1080 1475 l 1
 1274 1475 l 1
 1274 546 l 2
 1274 211 1135 -23 721 -23 c 0
EndSplineSet
EndChar

StartChar: V
Encoding: 86 86 55
Width: 1292
VWidth: 2088
Flags: W
HStem: 0 21G<529.827 747.444> 1455 20G<8 225.51 1081.15 1289>
LayerCount: 2
Fore
SplineSet
642 169 m 1
 723 409 l 1
 1088 1475 l 1
 1289 1475 l 1
 740 0 l 1
 537 0 l 1
 8 1475 l 1
 219 1475 l 1
 566 409 l 1
 642 169 l 1
EndSplineSet
EndChar

StartChar: W
Encoding: 87 87 56
Width: 2055
VWidth: 2088
Flags: W
HStem: 0 21G<424.441 664.046 1389 1632.56> 1455 20G<20 228.125 929.95 1137.96 1830.95 2037>
LayerCount: 2
Fore
SplineSet
1513 197 m 1
 1836 1475 l 1
 2037 1475 l 1
 1627 0 l 1
 1395 0 l 1
 1028 1224 l 1
 658 0 l 1
 430 0 l 1
 20 1475 l 1
 223 1475 l 1
 550 199 l 1
 936 1475 l 1
 1132 1475 l 1
 1513 197 l 1
EndSplineSet
EndChar

StartChar: X
Encoding: 88 88 57
Width: 1265
VWidth: 2088
Flags: W
HStem: 0 21G<-4 223.831 1017.63 1256> 1455 20G<32 271.328 1024.79 1247>
LayerCount: 2
Fore
SplineSet
-4 0 m 1
 520 752 l 1
 32 1475 l 1
 259 1475 l 1
 635 865 l 1
 1038 1475 l 1
 1247 1475 l 1
 748 752 l 1
 1256 0 l 1
 1030 0 l 1
 628 650 l 1
 211 0 l 1
 -4 0 l 1
EndSplineSet
EndChar

StartChar: Y
Encoding: 89 89 58
Width: 1300
VWidth: 2088
Flags: W
HStem: 0 21G<541 735> 1455 20G<23 241.31 1041.61 1266>
VStem: 541 194<0 584>
LayerCount: 2
Fore
SplineSet
1266 1475 m 1
 735 584 l 1
 735 0 l 1
 541 0 l 1
 541 584 l 1
 23 1475 l 1
 230 1475 l 1
 640 750 l 1
 1053 1475 l 1
 1266 1475 l 1
EndSplineSet
EndChar

StartChar: Z
Encoding: 90 90 59
Width: 1180
VWidth: 2088
Flags: W
HStem: 0 157<289 1112> 1312 163<80 861>
LayerCount: 2
Fore
SplineSet
1120 1475 m 1
 1120 1349 l 1
 289 157 l 5
 1112 157 l 5
 1112 0 l 1
 44 0 l 1
 44 140 l 1
 861 1312 l 1
 80 1312 l 1
 80 1475 l 1
 1120 1475 l 1
EndSplineSet
EndChar

StartChar: bracketleft
Encoding: 91 91 60
Width: 606
VWidth: 2088
Flags: W
HStem: -263 123<378 534> 1393 126<378 534>
VStem: 182 352<-263 -140 1393 1519> 182 196<-140 1393>
LayerCount: 2
Fore
SplineSet
534 -140 m 1xe0
 534 -263 l 1
 182 -263 l 1
 182 1519 l 1
 534 1519 l 1
 534 1393 l 1xe0
 378 1393 l 1
 378 -140 l 1xd0
 534 -140 l 1xe0
EndSplineSet
EndChar

StartChar: backslash
Encoding: 92 92 61
Width: 682
VWidth: 2088
Flags: W
HStem: 1459 20G<-69 102.3>
LayerCount: 2
Fore
SplineSet
758 -121 m 1
 598 -121 l 1
 -69 1479 l 1
 94 1479 l 1
 758 -121 l 1
EndSplineSet
EndChar

StartChar: bracketright
Encoding: 93 93 62
Width: 606
VWidth: 2088
Flags: W
HStem: -263 123<182 341> 1393 126<182 341>
VStem: 182 352<-263 -140 1393 1519> 341 193<-140 1393>
LayerCount: 2
Fore
SplineSet
182 -263 m 1xe0
 182 -140 l 1xe0
 341 -140 l 1
 341 1393 l 1xd0
 182 1393 l 1
 182 1519 l 1
 534 1519 l 1
 534 -263 l 1
 182 -263 l 1xe0
EndSplineSet
EndChar

StartChar: asciicircum
Encoding: 94 94 63
Width: 1409
VWidth: 2088
Flags: W
HStem: 1457 20G<649.445 768.691>
LayerCount: 2
Fore
SplineSet
345 594 m 5
 194 594 l 5
 660 1477 l 1
 758 1477 l 1
 1230 594 l 5
 1082 594 l 5
 706 1302 l 1
 345 594 l 5
EndSplineSet
EndChar

StartChar: underscore
Encoding: 95 95 64
Width: 964
VWidth: 2088
Flags: W
HStem: -277 129<-4 967>
LayerCount: 2
Fore
SplineSet
967 -148 m 1
 967 -277 l 1
 -4 -277 l 1
 -4 -148 l 1
 967 -148 l 1
EndSplineSet
EndChar

StartChar: grave
Encoding: 96 96 65
Width: 572
VWidth: 2088
Flags: W
HStem: 1200 319
VStem: -2 455
LayerCount: 2
Fore
SplineSet
309 1200 m 1
 -2 1519 l 1
 230 1519 l 1
 453 1200 l 1
 309 1200 l 1
EndSplineSet
EndChar

StartChar: a
Encoding: 97 97 66
Width: 1089
VWidth: 2088
Flags: W
HStem: -23 136<354.383 690.974> 0 21G<813.069 957> 464 114<378.664 771> 919 146<321.337 717.336>
VStem: 125 184<156.763 402.31> 771 186<162 464 578 868.735>
LayerCount: 2
Fore
SplineSet
821 0 m 1x7c
 798 58 l 1
 635 -2 533 -23 439 -23 c 0xbc
 274 -23 125 85 125 277 c 0
 125 592 372 578 771 578 c 1
 771 740 l 2
 771 863 702 919 572 919 c 0
 447 919 326 887 232 835 c 1
 194 982 l 1
 282 1026 430 1065 568 1065 c 0
 771 1065 957 995 957 763 c 2
 957 0 l 1
 821 0 l 1x7c
771 175 m 1
 771 464 l 1
 414 464 309 440 309 285 c 0
 309 174 376 113 458 113 c 0
 575 113 654 139 771 175 c 1
EndSplineSet
EndChar

StartChar: b
Encoding: 98 98 67
Width: 1281
VWidth: 2088
Flags: W
HStem: -23 146<518.002 827.767> 0 21G<174 365.571> 919 146<517.504 830.86>
VStem: 181 188<0 140 282.998 759.421 889 1517> 977 191<291.994 749.534>
LayerCount: 2
Fore
SplineSet
181 1517 m 1x78
 369 1517 l 1
 369 889 l 1
 444 1008 565 1065 703 1065 c 0
 1014 1065 1168 814 1168 532 c 0
 1168 231 1016 -23 703 -23 c 0xb8
 561 -23 451 34 369 140 c 1
 365 0 l 1
 174 0 l 1
 174 0 181 241 181 269 c 2
 181 1517 l 1x78
365 522 m 0
 365 301 459 123 684 123 c 4
 905 123 977 336 977 522 c 0
 977 708 905 919 684 919 c 0
 459 919 365 741 365 522 c 0
EndSplineSet
EndChar

StartChar: c
Encoding: 99 99 68
Width: 1058
VWidth: 2088
Flags: W
HStem: -23 146<464.752 804.07> 919 146<457.383 803.087>
VStem: 113 188<303.432 739.922>
LayerCount: 2
Fore
SplineSet
630 123 m 0
 732 123 830 166 901 241 c 1
 989 117 l 1
 895 21 752 -23 612 -23 c 0
 277 -23 113 233 113 524 c 0
 113 803 279 1065 616 1065 c 0
 764 1065 903 1019 989 921 c 1
 901 800 l 1
 821 886 725 919 623 919 c 0
 402 919 301 735 301 524 c 0
 301 292 407 123 630 123 c 0
EndSplineSet
EndChar

StartChar: d
Encoding: 100 100 69
Width: 1282
VWidth: 2088
Flags: W
HStem: -23 146<454.505 764.048> 0 21G<914.714 1108> 919 146<445.183 764.546>
VStem: 113 190<291.994 749.534> 913 186<0 140 290.746 751.706 889 1517>
LayerCount: 2
Fore
SplineSet
913 1517 m 1xb8
 1099 1517 l 1
 1099 269 l 2
 1099 241 1108 0 1108 0 c 1
 915 0 l 1x78
 913 140 l 1
 831 34 722 -23 580 -23 c 0
 267 -23 113 231 113 532 c 0
 113 814 269 1065 580 1065 c 0
 718 1065 838 1008 913 889 c 1
 913 1517 l 1xb8
915 522 m 0
 915 741 823 919 598 919 c 0
 377 919 303 708 303 522 c 0
 303 336 377 123 598 123 c 0xb8
 823 123 915 301 915 522 c 0
EndSplineSet
EndChar

StartChar: e
Encoding: 101 101 70
Width: 1127
VWidth: 2088
Flags: W
HStem: -23 146<445.999 779.093> 493 105<301 845> 925 140<448.189 725.052>
VStem: 113 188<289.975 493 598 754.764>
LayerCount: 2
Fore
SplineSet
930 282 m 1
 1018 165 l 1
 920 57 765 -23 592 -23 c 0
 283 -23 113 203 113 522 c 0
 113 827 295 1065 594 1065 c 0
 839 1065 1024 873 1024 554 c 0
 1024 538 1022 511 1022 493 c 1
 301 493 l 1
 311 272 399 123 610 123 c 0
 727 123 857 194 930 282 c 1
600 925 m 0
 435 925 329 813 301 598 c 1
 845 598 l 1
 833 801 738 925 600 925 c 0
EndSplineSet
EndChar

StartChar: f
Encoding: 102 102 71
Width: 783
VWidth: 2088
Flags: W
HStem: 0 21G<323 512> 933 107<150 323 512 756> 1404 115<558.139 777>
VStem: 323 189<0 933 1040 1354.37>
LayerCount: 2
Back
SplineSet
28 563 m 5
 28 446 l 5
 207 446 l 5
 207 154 l 5
 390 104 l 5
 390 446 l 5
 635 446 l 5
 635 563 l 5
 390 563 l 5
 390 1081 l 6
 390 1254 389 1356 604 1356 c 6
 662 1356 l 5
 662 1489 l 5
 634 1489 l 6
 231 1489 207 1354 207 1030 c 6
 207 563 l 5
 28 563 l 5
EndSplineSet
Fore
SplineSet
150 933 m 1
 150 1040 l 1
 323 1040 l 1
 323 1053 l 2
 323 1383 351 1519 742 1519 c 2
 777 1519 l 1
 777 1404 l 1
 723 1404 l 2
 506 1404 512 1309 512 1134 c 2
 512 1040 l 1
 756 1040 l 1
 756 933 l 1
 512 933 l 1
 512 0 l 1
 323 0 l 1
 323 933 l 1
 150 933 l 1
EndSplineSet
EndChar

StartChar: g
Encoding: 103 103 72
Width: 1263
VWidth: 2088
Flags: W
HStem: -409 156<364 787.064> 0 150<445.716 764.236> 919 146<444.849 764.013> 1020 20G<908.416 1099>
VStem: 113 190<312.898 757.394> 909 184<-140.67 175 311.306 757.903 903 1040>
LayerCount: 2
Fore
SplineSet
909 534 m 0xec
 909 749 823 919 598 919 c 0
 377 919 303 714 303 534 c 0
 303 354 377 150 598 150 c 0
 823 150 909 321 909 534 c 0xec
364 -409 m 1
 364 -253 l 1
 510 -253 l 1
 907 -251 909 -110 909 113 c 2
 909 175 l 1
 840 64 737 0 568 0 c 0
 257 0 113 277 113 524 c 0
 113 819 267 1065 580 1065 c 0xec
 722 1065 823 1009 905 903 c 1
 909 1040 l 1
 1099 1040 l 1xdc
 1099 1040 1093 801 1093 773 c 2
 1093 128 l 2
 1093 -125 1070 -409 506 -409 c 2
 364 -409 l 1
EndSplineSet
EndChar

StartChar: h
Encoding: 104 104 73
Width: 1218
VWidth: 2088
Flags: W
HStem: 0 21G<174 361 868 1054> 919 146<519.901 793.537>
VStem: 174 187<0 770.477 895 1517> 868 186<0 831.641>
LayerCount: 2
Fore
SplineSet
361 681 m 1
 361 0 l 1
 174 0 l 1
 174 1517 l 1
 361 1517 l 1
 361 895 l 1
 443 1014 557 1065 701 1065 c 0
 937 1065 1054 907 1054 622 c 2
 1054 0 l 1
 868 0 l 1
 868 522 l 2
 868 787 837 919 668 919 c 0
 513 919 387 781 361 681 c 1
EndSplineSet
EndChar

StartChar: i
Encoding: 105 105 74
Width: 503
VWidth: 2088
Flags: W
HStem: 0 21G<160 346> 1020 20G<160 346> 1287 188<160 346>
VStem: 160 186<0 1040 1287 1475>
LayerCount: 2
Fore
SplineSet
346 1040 m 1
 346 0 l 1
 160 0 l 1
 160 1040 l 5
 346 1040 l 1
346 1475 m 1
 346 1287 l 1
 160 1287 l 1
 160 1475 l 1
 346 1475 l 1
EndSplineSet
EndChar

StartChar: j
Encoding: 106 106 75
Width: 531
VWidth: 2088
Flags: W
HStem: 1020 20G<188 374> 1287 188<188 374>
VStem: 188 186<-74.2303 1040 1287 1475>
LayerCount: 2
Fore
SplineSet
374 1040 m 1
 374 171 l 2
 374 -140 349 -247 0 -291 c 2
 -8 -293 l 1
 -8 -134 l 1
 0 -134 l 2
 186 -111 188 -31 188 119 c 2
 188 1040 l 1
 374 1040 l 1
374 1475 m 1
 374 1287 l 1
 188 1287 l 1
 188 1475 l 1
 374 1475 l 1
EndSplineSet
EndChar

StartChar: k
Encoding: 107 107 76
Width: 1084
VWidth: 2088
Flags: W
HStem: 0 21G<174 360 824.921 1076> 1020 20G<790.023 1070>
VStem: 174 186<0 424 610 1523>
LayerCount: 2
Fore
SplineSet
174 1523 m 1
 360 1523 l 1
 360 610 l 1
 811 1040 l 1
 1070 1040 l 1
 601 594 l 1
 1076 0 l 1
 840 0 l 1
 460 504 l 1
 360 424 l 1
 360 0 l 1
 174 0 l 1
 174 1523 l 1
EndSplineSet
EndChar

StartChar: l
Encoding: 108 108 77
Width: 666
VWidth: 2088
Flags: W
HStem: -23 136<402.008 650>
VStem: 174 187<152.058 1523>
LayerCount: 2
Fore
SplineSet
174 445 m 2
 174 1523 l 1
 361 1523 l 1
 361 393 l 2
 361 218 363 113 520 113 c 2
 650 113 l 1
 650 -23 l 1
 520 -23 l 2
 201 -23 174 115 174 445 c 2
EndSplineSet
EndChar

StartChar: m
Encoding: 109 109 78
Width: 1876
VWidth: 2088
Flags: W
HStem: 0 21G<176 365 865 1052 1523 1712> 919 146<509.501 783.127 1185.86 1451.51> 1020 20G<174 348.548>
VStem: 174 173<885 1040> 176 189<0 766.118> 865 187<0 778.131> 1523 189<0 835.837>
LayerCount: 2
Fore
SplineSet
1712 660 m 2xd6
 1712 0 l 1
 1523 0 l 1
 1523 543 l 2
 1523 777 1498 919 1323 919 c 0
 1193 919 1052 796 1052 616 c 2
 1052 0 l 1
 865 0 l 1
 865 576 l 2
 865 789 814 919 659 919 c 0
 502 919 393 794 365 654 c 1
 365 628 365 603 365 580 c 2
 365 0 l 1
 176 0 l 1
 176 777 l 2xce
 176 865 176 954 174 1040 c 1
 347 1040 l 1xb6
 359 885 l 1
 451 1015 548 1065 678 1065 c 0
 822 1065 950 1011 1006 873 c 1
 1104 1013 1213 1065 1357 1065 c 0
 1600 1065 1712 905 1712 660 c 2xd6
EndSplineSet
EndChar

StartChar: n
Encoding: 110 110 79
Width: 1234
VWidth: 2088
Flags: W
HStem: 0 21G<176 365 885 1070> 919 146<546.77 825.262> 1020 20G<174 348.548>
VStem: 174 173<885 1040> 176 189<0 749.406> 885 185<0 851.034>
LayerCount: 2
Fore
SplineSet
1070 622 m 2xd4
 1070 0 l 1
 885 0 l 1
 885 522 l 2
 885 787 874 919 701 919 c 0
 546 919 391 772 365 664 c 1
 365 0 l 1
 176 0 l 1
 176 787 l 2xcc
 176 891 174 996 174 1040 c 1
 347 1040 l 1xb4
 359 885 l 1
 443 1008 586 1065 734 1065 c 0
 972 1065 1070 907 1070 622 c 2xd4
EndSplineSet
EndChar

StartChar: o
Encoding: 111 111 80
Width: 1273
VWidth: 2088
Flags: W
HStem: -23 146<478.508 800.918> 919 146<479.93 803.972>
VStem: 113 192<308.84 721.396> 967 193<301.634 741.396>
LayerCount: 2
Back
SplineSet
1102 512 m 4
 1102 795 920 1045 591 1045 c 4
 258 1045 75 804 75 514 c 4
 75 223 262 -23 595 -23 c 4
 932 -23 1102 219 1102 512 c 4
914 514 m 4
 914 308 816 130 591 130 c 4
 375 130 264 317 264 516 c 4
 264 718 374 901 595 901 c 4
 814 901 914 717 914 514 c 4
EndSplineSet
Fore
SplineSet
1160 520 m 0
 1160 231 977 -23 640 -23 c 0
 299 -23 113 221 113 518 c 0
 113 815 301 1065 642 1065 c 0
 987 1065 1160 819 1160 520 c 0
967 518 m 0
 967 733 870 919 640 919 c 0
 421 919 305 723 305 516 c 0
 305 311 417 123 642 123 c 0
 865 123 967 311 967 518 c 0
EndSplineSet
EndChar

StartChar: p
Encoding: 112 112 81
Width: 1277
VWidth: 2088
Flags: W
HStem: -435 21G<180 369> -23 146<522.739 830.336> 919 146<517.634 829.05> 1020 20G<174 364.73>
VStem: 180 189<-435 153 282.998 759.421 903 1040> 972 192<288.345 750.622>
LayerCount: 2
Fore
SplineSet
369 -435 m 1xec
 180 -435 l 1
 180 773 l 2
 180 801 174 1040 174 1040 c 1
 364 1040 l 1xdc
 369 903 l 1
 451 1009 560 1065 702 1065 c 0
 1011 1065 1164 811 1164 510 c 0
 1164 233 1038 -23 723 -23 c 0
 577 -23 449 34 369 153 c 1
 369 -435 l 1xec
364 522 m 0
 364 301 459 123 684 123 c 0
 903 123 972 336 972 522 c 0
 972 708 903 919 684 919 c 0xec
 459 919 364 741 364 522 c 0
EndSplineSet
EndChar

StartChar: q
Encoding: 113 113 82
Width: 1281
VWidth: 2088
Flags: W
HStem: -435 21G<912 1098> -23 146<448.486 757.722> 919 146<449.635 762.786> 1020 20G<913.708 1107>
VStem: 113 189<294.156 750.622> 912 186<-435 153 290.746 751.707 903 1040>
LayerCount: 2
Fore
SplineSet
1098 -435 m 1xdc
 912 -435 l 1
 912 153 l 1
 832 34 703 -23 557 -23 c 0
 238 -23 113 233 113 510 c 0
 113 811 265 1065 578 1065 c 0xec
 720 1065 830 1009 912 903 c 1
 914 1040 l 1
 1107 1040 l 1
 1107 1040 1098 801 1098 773 c 2
 1098 -435 l 1xdc
914 522 m 0
 914 741 822 919 597 919 c 4
 376 919 302 708 302 522 c 0
 302 336 376 123 597 123 c 0
 822 123 914 301 914 522 c 0
EndSplineSet
EndChar

StartChar: r
Encoding: 114 114 83
Width: 766
VWidth: 2088
Flags: W
HStem: 0 21G<176 363> 907 161<485.945 725> 1020 20G<174 336.42>
VStem: 174 161<871 1040> 176 187<0 779.478>
LayerCount: 2
Fore
SplineSet
725 1068 m 5xd0
 725 907 l 5
 624 907 l 6
 507 907 410 823 372 700 c 5
 364 660 363 616 363 572 c 6
 363 0 l 5
 176 0 l 5
 176 800 l 6xc8
 176 882 174 962 174 1040 c 5
 335 1040 l 5xb0
 347 871 l 5
 418 1005 523 1068 642 1068 c 6
 725 1068 l 5xd0
EndSplineSet
EndChar

StartChar: s
Encoding: 115 115 84
Width: 944
VWidth: 2088
Flags: W
HStem: -23 142<241.783 625.294> 919 146<330.013 703.588>
VStem: 102 181<674.083 874.882> 673 178<163.588 375.407>
LayerCount: 2
Fore
SplineSet
90 78 m 1
 138 213 l 1
 213 167 340 119 470 119 c 0
 606 119 673 169 673 277 c 0
 673 348 627 403 512 437 c 2
 393 468 l 2
 234 512 102 585 102 767 c 0
 102 964 276 1065 477 1065 c 0
 611 1065 719 1035 807 977 c 1
 757 846 l 1
 693 888 596 919 483 919 c 0
 375 919 283 879 283 777 c 0
 283 691 320 658 437 624 c 2
 562 592 l 2
 729 548 851 477 851 295 c 0
 851 86 696 -23 483 -23 c 0
 326 -23 178 14 90 78 c 1
EndSplineSet
EndChar

StartChar: t
Encoding: 116 116 85
Width: 788
VWidth: 2088
Flags: W
HStem: -23 136<483.472 749> 921 119<33 214 400 716>
VStem: 214 186<182.202 921 1040 1322>
LayerCount: 2
Fore
SplineSet
33 921 m 5
 33 1040 l 5
 214 1040 l 5
 214 1322 l 5
 400 1431 l 5
 400 1040 l 5
 716 1040 l 5
 716 921 l 5
 400 921 l 5
 400 393 l 6
 400 216 400 113 711 113 c 6
 749 113 l 5
 749 -23 l 5
 732 -23 l 6
 233 -23 214 115 214 445 c 6
 214 921 l 5
 33 921 l 5
EndSplineSet
EndChar

StartChar: u
Encoding: 117 117 86
Width: 1188
VWidth: 2088
Flags: W
HStem: -23 146<452.474 737.403> 1020 20G<164 352 838 1024>
VStem: 164 188<224.094 1040> 838 186<224.094 1040>
LayerCount: 2
Fore
SplineSet
595 -23 m 4
 378 -23 164 117 164 399 c 6
 164 1040 l 5
 352 1040 l 5
 352 397 l 6
 352 194 472 123 595 123 c 4
 718 123 838 196 838 397 c 6
 838 1040 l 5
 1024 1040 l 5
 1024 399 l 6
 1024 117 812 -23 595 -23 c 4
EndSplineSet
EndChar

StartChar: v
Encoding: 118 118 87
Width: 1023
VWidth: 2088
Flags: W
HStem: 0 21G<403.096 615.981> 1020 20G<0 216.435 811.76 1023>
LayerCount: 2
Fore
SplineSet
411 0 m 1
 0 1040 l 1
 209 1040 l 1
 438 424 l 1
 516 213 l 1
 596 424 l 1
 819 1040 l 1
 1023 1040 l 1
 608 0 l 1
 411 0 l 1
EndSplineSet
EndChar

StartChar: w
Encoding: 119 119 88
Width: 1643
VWidth: 2088
Flags: W
HStem: 0 21G<366.212 603 1074.61 1271.87> 1020 20G<20 229.343 732.223 935.414 1416.82 1622>
LayerCount: 2
Fore
SplineSet
20 1040 m 1
 223 1040 l 1
 458 299 l 2
 468 267 473 255 473 255 c 1
 739 1040 l 1
 929 1040 l 1
 1166 301 l 2
 1176 269 1180 259 1180 259 c 1
 1184 267 l 1
 1423 1040 l 1
 1622 1040 l 1
 1265 0 l 1
 1081 0 l 1
 829 789 l 1
 739 528 648 261 558 0 c 1
 373 0 l 1
 20 1040 l 1
EndSplineSet
EndChar

StartChar: x
Encoding: 120 120 89
Width: 1062
VWidth: 2088
Flags: W
HStem: 0 21G<35 264.236 794.266 1025> 1020 20G<53 285.471 795.596 1012>
LayerCount: 2
Fore
SplineSet
35 0 m 1
 419 524 l 1
 53 1040 l 1
 272 1040 l 1
 532 654 l 1
 810 1040 l 1
 1012 1040 l 1
 651 528 l 1
 1025 0 l 1
 808 0 l 1
 534 399 l 1
 250 0 l 1
 35 0 l 1
EndSplineSet
EndChar

StartChar: y
Encoding: 121 121 90
Width: 1032
VWidth: 2088
Flags: W
HStem: -393 161<94 310.619> 1020 20G<10 222.527 813.765 1022>
LayerCount: 2
Fore
SplineSet
524 219 m 1
 821 1040 l 1
 1022 1040 l 1
 627 20 l 1
 585 -199 485 -393 94 -393 c 1
 94 -232 l 1
 361 -232 427 -112 435 28 c 1
 10 1040 l 1
 215 1040 l 1
 524 219 l 1
EndSplineSet
EndChar

StartChar: z
Encoding: 122 122 91
Width: 892
VWidth: 2088
Flags: W
HStem: 0 146<298 810> 895 145<98 566>
LayerCount: 2
Fore
SplineSet
566 895 m 1
 98 895 l 1
 98 1040 l 1
 793 1040 l 1
 793 913 l 1
 298 146 l 1
 810 146 l 1
 810 0 l 1
 82 0 l 1
 82 132 l 1
 566 895 l 1
EndSplineSet
EndChar

StartChar: braceleft
Encoding: 123 123 92
Width: 694
VWidth: 2088
Flags: W
HStem: -225 129<497.839 626> 582 141<88 247.898> 1401 130<497.839 626>
VStem: 289 177<-69.4329 538.564 765.866 1375.43>
LayerCount: 2
Fore
SplineSet
305 652 m 1
 437 596 466 461 466 369 c 2
 466 148 l 2
 466 -42 469 -96 626 -96 c 1
 626 -225 l 1
 388 -225 289 -147 289 50 c 2
 289 317 l 2
 289 440 283 582 153 582 c 2
 88 582 l 1
 88 723 l 1
 153 723 l 2
 283 723 289 865 289 988 c 2
 289 1256 l 2
 289 1453 388 1531 626 1531 c 1
 626 1401 l 1
 469 1401 466 1348 466 1158 c 2
 466 936 l 2
 466 844 437 708 305 652 c 1
EndSplineSet
EndChar

StartChar: bar
Encoding: 124 124 93
Width: 473
VWidth: 2088
Flags: W
VStem: 155 166<-287 1519>
LayerCount: 2
Fore
SplineSet
321 1519 m 1
 321 -287 l 1
 155 -287 l 1
 155 1519 l 1
 321 1519 l 1
EndSplineSet
EndChar

StartChar: braceright
Encoding: 125 125 94
Width: 694
VWidth: 2088
Flags: W
HStem: -225 129<69 197.482> 582 141<450.828 610> 1401 130<69 205.18>
VStem: 232 177<-68.8945 538.564 765.866 1374.21>
LayerCount: 2
Fore
SplineSet
391 652 m 1
 259 708 232 844 232 936 c 2
 232 1158 l 2
 232 1348 226 1401 69 1401 c 1
 69 1531 l 1
 307 1531 409 1453 409 1256 c 2
 409 988 l 2
 409 865 416 723 546 723 c 2
 610 723 l 1
 610 582 l 1
 546 582 l 2
 416 582 409 440 409 317 c 2
 409 50 l 2
 409 -147 307 -225 69 -225 c 1
 69 -96 l 1
 226 -96 232 -42 232 148 c 2
 232 369 l 2
 232 461 259 596 391 652 c 1
EndSplineSet
EndChar

StartChar: asciitilde
Encoding: 126 126 95
Width: 1411
VWidth: 2088
Flags: W
HStem: 418 138<799.211 1024.22> 582 137<372.096 627.16>
VStem: 182 113<441.895 498.762> 1094 124<632.161 702.509>
LayerCount: 2
Fore
SplineSet
476 719 m 0
 622 719 835 556 927 556 c 0
 1013 556 1074 645 1094 737 c 1
 1218 698 l 1
 1182 535 1078 418 925 418 c 0
 808 418 601 582 478 582 c 0
 378 582 315 489 295 393 c 1
 182 449 l 1
 212 589 315 719 476 719 c 0
EndSplineSet
EndChar

StartChar: dieresis
Encoding: 168 168 97
Width: 728
VWidth: 2088
Flags: W
HStem: 1192 168<88 257 468 638>
VStem: 88 169<1192 1360> 468 170<1192 1360>
LayerCount: 2
Fore
SplineSet
638 1192 m 1
 468 1192 l 1
 468 1360 l 1
 638 1360 l 1
 638 1192 l 1
257 1192 m 1
 88 1192 l 1
 88 1360 l 1
 257 1360 l 1
 257 1192 l 1
EndSplineSet
EndChar

StartChar: Aring
Encoding: 197 197 98
Width: 1305
VWidth: 2088
Flags: W
HStem: 0 21G<16 235 1083.18 1291> 478 160<432 873> 1475 60<577.599 724.263> 1750 86<570.371 739.25>
VStem: 451 97<1553.12 1728.72> 760 99<1558.12 1728.76>
LayerCount: 2
Fore
SplineSet
16 0 m 1
 554 1475 l 1
 754 1475 l 1
 1291 0 l 1
 1090 0 l 1
 927 478 l 1
 378 478 l 1
 321 315 l 2
 285 213 253 102 217 0 c 1
 16 0 l 1
873 638 m 1
 656 1270 l 1
 432 638 l 1
 873 638 l 1
760 1644 m 0
 760 1586 710 1535 654 1535 c 0
 587 1535 548 1582 548 1644 c 0
 548 1702 598 1750 654 1750 c 0
 714 1750 760 1702 760 1644 c 0
451 1642 m 0
 451 1534 543 1447 656 1447 c 0
 764 1447 859 1536 859 1644 c 0
 859 1750 769 1836 654 1836 c 0
 543 1836 451 1755 451 1642 c 0
EndSplineSet
EndChar

StartChar: ring
Encoding: 257 730 99
Width: 624
VWidth: 2088
Flags: W
HStem: 1172 88<199.991 374.723> 1475 86<207.241 372.96>
VStem: 88 94<1277.95 1449.8> 397 96<1281.37 1454.15>
LayerCount: 2
Fore
SplineSet
397 1366 m 0
 397 1424 351 1475 291 1475 c 0
 235 1475 182 1424 182 1366 c 0
 182 1304 224 1260 291 1260 c 0
 347 1260 397 1308 397 1366 c 0
88 1366 m 0
 88 1479 180 1561 291 1561 c 0
 406 1561 493 1472 493 1366 c 0
 493 1258 401 1172 293 1172 c 0
 180 1172 88 1258 88 1366 c 0
EndSplineSet
EndChar

StartChar: cedilla
Encoding: 184 184 101
Width: 544
VWidth: 2088
Flags: W
HStem: -403 84<56.6711 307.264> -171 79<251 301.833>
VStem: 315 138<-308.597 -183.125>
LayerCount: 2
Fore
SplineSet
50 -382 m 1
 58 -295 l 1
 114 -309 165 -319 205 -319 c 0
 287 -319 315 -291 315 -247 c 0
 315 -193 271 -171 209 -171 c 0
 203 -171 142 -175 142 -175 c 1
 173 16 l 1
 267 16 l 1
 251 -92 l 1
 259 -92 l 2
 363 -92 453 -141 453 -245 c 0
 453 -353 351 -403 219 -403 c 0
 169 -403 108 -394 50 -382 c 1
EndSplineSet
EndChar

StartChar: acute
Encoding: 180 180 103
Width: 572
VWidth: 2088
Flags: W
HStem: 1200 319
VStem: 153 455
LayerCount: 2
Fore
SplineSet
608 1519 m 1
 295 1200 l 1
 153 1200 l 1
 376 1519 l 1
 608 1519 l 1
EndSplineSet
EndChar

StartChar: tilde
Encoding: 258 732 105
Width: 684
VWidth: 2088
Flags: W
HStem: 1212 133<367.285 543.421> 1320 134<118.597 303.149>
VStem: -10 118<1224 1309.56> 556 121<1354.17 1443>
LayerCount: 2
Fore
SplineSet
-10 1224 m 1x70
 -6 1354 61 1454 199 1454 c 0x70
 318 1454 390 1345 484 1345 c 0
 538 1345 554 1399 556 1443 c 1
 677 1443 l 1
 673 1318 610 1212 472 1212 c 0xb0
 370 1212 265 1320 190 1320 c 0
 132 1320 110 1276 108 1224 c 1
 -10 1224 l 1x70
EndSplineSet
EndChar

StartChar: Udieresis
Encoding: 220 220 107
Width: 1441
VWidth: 2088
Flags: W
HStem: -23 167<513.647 928.17> 1455 20G<167 361 1080 1274> 1621 169<445 614 827 997>
VStem: 167 194<302.918 1475> 445 169<1621 1790> 827 170<1621 1790> 1080 194<302.918 1475>
LayerCount: 2
Fore
SplineSet
721 -23 m 0
 307 -23 167 211 167 546 c 2
 167 1475 l 1
 361 1475 l 1
 361 552 l 2
 361 259 470 144 721 144 c 0
 972 144 1080 259 1080 552 c 2
 1080 1475 l 1
 1274 1475 l 1
 1274 546 l 2
 1274 211 1135 -23 721 -23 c 0
997 1621 m 1
 827 1621 l 1
 827 1790 l 1
 997 1790 l 1
 997 1621 l 1
614 1621 m 1
 445 1621 l 1
 445 1790 l 1
 614 1790 l 1
 614 1621 l 1
EndSplineSet
EndChar

StartChar: agrave
Encoding: 224 224 109
Width: 1085
VWidth: 2088
Flags: W
HStem: -23 144<337.723 688.32> 0 21G<809.069 953> 435 131<385.533 765> 913 152<316.282 714.359>
VStem: 121 184<155.942 368.441> 765 188<164.066 435 566 860.236>
LayerCount: 2
Fore
SplineSet
817 0 m 1x7c
 794 58 l 1
 631 -2 529 -23 435 -23 c 0xbc
 270 -23 121 71 121 263 c 0
 121 578 500 566 765 566 c 1
 765 740 l 2
 765 859 698 913 568 913 c 0
 443 913 321 881 227 829 c 1
 188 982 l 1
 276 1026 426 1065 564 1065 c 0
 767 1065 953 995 953 763 c 2
 953 0 l 1
 817 0 l 1x7c
765 175 m 1
 765 435 l 1
 454 435 305 411 305 269 c 0
 305 165 369 121 451 121 c 0
 568 121 648 145 765 175 c 1
620 1200 m 1
 309 1519 l 1
 541 1519 l 1
 765 1200 l 1
 620 1200 l 1
EndSplineSet
EndChar

StartChar: circumflex
Encoding: 259 710 111
Width: 684
VWidth: 2088
Flags: W
HStem: 1188 331
VStem: 34 601
LayerCount: 2
Fore
SplineSet
34 1188 m 1
 261 1519 l 1
 407 1519 l 1
 635 1188 l 1
 510 1188 l 1
 333 1410 l 1
 155 1188 l 1
 34 1188 l 1
EndSplineSet
EndChar

StartChar: adieresis
Encoding: 228 228 112
Width: 1085
VWidth: 2088
Flags: W
HStem: -23 144<337.723 688.32> 0 21G<809.069 953> 435 131<385.533 765> 913 152<316.282 714.359> 1192 168<261 430 644 813>
VStem: 121 184<155.942 368.441> 261 169<1192 1360> 644 169<1192 1360> 765 188<164.066 435 566 860.236>
LayerCount: 2
Fore
SplineSet
817 0 m 1x7c80
 794 58 l 1
 631 -2 529 -23 435 -23 c 0xbc80
 270 -23 121 71 121 263 c 0
 121 578 500 566 765 566 c 1
 765 740 l 2
 765 859 698 913 568 913 c 0
 443 913 321 881 227 829 c 1
 188 982 l 1
 276 1026 426 1065 564 1065 c 0
 767 1065 953 995 953 763 c 2
 953 0 l 1
 817 0 l 1x7c80
765 175 m 1
 765 435 l 1
 454 435 305 411 305 269 c 0
 305 165 369 121 451 121 c 0
 568 121 648 145 765 175 c 1
813 1192 m 1x39
 644 1192 l 1
 644 1360 l 1
 813 1360 l 1
 813 1192 l 1x39
430 1192 m 1x3a
 261 1192 l 1
 261 1360 l 1
 430 1360 l 1
 430 1192 l 1x3a
EndSplineSet
EndChar

StartChar: aring
Encoding: 229 229 114
Width: 1085
VWidth: 2088
Flags: W
HStem: -23 144<337.723 688.32> 0 21G<809.069 953> 435 131<385.533 765> 913 152<316.282 714.359> 1172 88<448.974 621.129> 1475 86<453.944 619.346>
VStem: 121 184<155.942 368.441> 335 95<1277.25 1452.78> 644 96<1281.37 1454.15> 765 188<164.066 435 566 860.236>
LayerCount: 2
Fore
SplineSet
817 0 m 1x7fc0
 794 58 l 1
 631 -2 529 -23 435 -23 c 0xbfc0
 270 -23 121 71 121 263 c 0
 121 578 500 566 765 566 c 1
 765 740 l 2
 765 859 698 913 568 913 c 0
 443 913 321 881 227 829 c 1
 188 982 l 1
 276 1026 426 1065 564 1065 c 0
 767 1065 953 995 953 763 c 2
 953 0 l 1
 817 0 l 1x7fc0
765 175 m 1
 765 435 l 1
 454 435 305 411 305 269 c 0
 305 165 369 121 451 121 c 0
 568 121 648 145 765 175 c 1
644 1366 m 0
 644 1424 597 1475 537 1475 c 0
 481 1475 430 1424 430 1366 c 0
 430 1304 470 1260 537 1260 c 0
 593 1260 644 1308 644 1366 c 0
335 1366 m 0
 335 1479 426 1561 537 1561 c 0
 652 1561 740 1472 740 1366 c 0
 740 1258 647 1172 539 1172 c 0
 426 1172 335 1258 335 1366 c 0
EndSplineSet
EndChar

StartChar: egrave
Encoding: 232 232 117
Width: 1096
VWidth: 2088
Flags: W
HStem: -23 153<423.025 779.859> 484 128<271 829> 915 150<418.434 704.916>
VStem: 78 187<302.266 484 612 743.953>
LayerCount: 2
Fore
SplineSet
891 257 m 1
 980 138 l 1
 882 30 739 -23 566 -23 c 0
 275 -23 78 203 78 522 c 0
 78 847 283 1065 568 1065 c 0
 819 1065 1009 869 1009 546 c 0
 1009 530 1007 502 1007 484 c 1
 265 484 l 1
 275 271 394 130 584 130 c 0
 701 130 818 173 891 257 c 1
570 915 m 0
 417 915 294 800 271 612 c 1
 829 612 l 1
 817 798 716 915 570 915 c 0
626 1200 m 1
 315 1519 l 1
 548 1519 l 1
 771 1200 l 1
 626 1200 l 1
EndSplineSet
EndChar

StartChar: edieresis
Encoding: 235 235 119
Width: 1096
VWidth: 2088
Flags: W
HStem: -23 153<423.025 779.859> 484 128<271 829> 915 150<418.434 704.916> 1192 168<267 437 650 819>
VStem: 78 187<302.266 484 612 743.953> 267 170<1192 1360> 650 169<1192 1360>
LayerCount: 2
Fore
SplineSet
891 257 m 1
 980 138 l 1
 882 30 739 -23 566 -23 c 0
 275 -23 78 203 78 522 c 0
 78 847 283 1065 568 1065 c 0
 819 1065 1009 869 1009 546 c 0
 1009 530 1007 502 1007 484 c 1
 265 484 l 1
 275 271 394 130 584 130 c 0
 701 130 818 173 891 257 c 1
570 915 m 0
 417 915 294 800 271 612 c 1
 829 612 l 1
 817 798 716 915 570 915 c 0
819 1192 m 1
 650 1192 l 1
 650 1360 l 1
 819 1360 l 1
 819 1192 l 1
437 1192 m 1
 267 1192 l 1
 267 1360 l 1
 437 1360 l 1
 437 1192 l 1
EndSplineSet
EndChar

StartChar: dotlessi
Encoding: 260 305 121
Width: 484
VWidth: 2088
Flags: W
HStem: 0 21G<161 321> 1020 20G<161 321>
VStem: 161 160<0 1040>
LayerCount: 2
Fore
SplineSet
321 1040 m 1
 321 0 l 1
 161 0 l 1
 161 1040 l 1
 321 1040 l 1
EndSplineSet
EndChar

StartChar: igrave
Encoding: 236 236 122
Width: 484
VWidth: 2088
Flags: W
HStem: 0 21G<161 321> 1020 20G<161 321>
VStem: 161 160<0 1040>
LayerCount: 2
Fore
SplineSet
321 1040 m 1
 321 0 l 1
 161 0 l 1
 161 1040 l 1
 321 1040 l 1
328 1200 m 1
 14 1519 l 1
 247 1519 l 1
 470 1200 l 1
 328 1200 l 1
EndSplineSet
EndChar

StartChar: idieresis
Encoding: 239 239 124
Width: 484
VWidth: 2088
Flags: W
HStem: 0 21G<161 321> 1020 20G<161 321> 1192 168<-32 138 349 520>
VStem: -32 170<1192 1360> 161 160<0 1040> 349 171<1192 1360>
LayerCount: 2
Fore
SplineSet
321 1040 m 1
 321 0 l 1
 161 0 l 1
 161 1040 l 1
 321 1040 l 1
520 1192 m 1
 349 1192 l 1
 349 1360 l 1
 520 1360 l 1
 520 1192 l 1
138 1192 m 1
 -32 1192 l 1
 -32 1360 l 1
 138 1360 l 1
 138 1192 l 1
EndSplineSet
EndChar

StartChar: ograve
Encoding: 242 242 127
Width: 1198
VWidth: 2088
Flags: W
HStem: -23 153<439.591 769.33> 911 154<444.89 772.553>
VStem: 78 191<316.41 719.333> 931 193<309.63 733.185>
LayerCount: 2
Fore
SplineSet
1124 520 m 0
 1124 231 941 -23 604 -23 c 0
 263 -23 78 221 78 518 c 0
 78 815 267 1065 608 1065 c 0
 953 1065 1124 819 1124 520 c 0
931 518 m 0
 931 729 834 911 604 911 c 0
 385 911 269 719 269 516 c 0
 269 313 383 130 608 130 c 0
 831 130 931 315 931 518 c 0
662 1200 m 1
 351 1519 l 1
 582 1519 l 1
 807 1200 l 1
 662 1200 l 1
EndSplineSet
EndChar

StartChar: odieresis
Encoding: 246 246 129
Width: 1198
VWidth: 2088
Flags: W
HStem: -23 153<439.591 769.33> 911 154<444.89 772.553> 1192 168<323 493 706 875>
VStem: 78 191<316.41 719.333> 323 170<1192 1360> 706 169<1192 1360> 931 193<309.63 733.185>
LayerCount: 2
Fore
SplineSet
1124 520 m 0
 1124 231 941 -23 604 -23 c 0
 263 -23 78 221 78 518 c 0
 78 815 267 1065 608 1065 c 0
 953 1065 1124 819 1124 520 c 0
931 518 m 0
 931 729 834 911 604 911 c 0
 385 911 269 719 269 516 c 0
 269 313 383 130 608 130 c 0
 831 130 931 315 931 518 c 0
875 1192 m 1
 706 1192 l 1
 706 1360 l 1
 875 1360 l 1
 875 1192 l 1
493 1192 m 1
 323 1192 l 1
 323 1360 l 1
 493 1360 l 1
 493 1192 l 1
EndSplineSet
EndChar

StartChar: otilde
Encoding: 245 245 130
Width: 1170
VWidth: 2088
Flags: W
HStem: -23 134<426.178 756.226> 929 136<420.737 752.666> 1245 128<571.931 783.494> 1314 127<392.591 612.082>
VStem: 78 167<305.302 730.345> 277 103<1226 1303.63> 798 105<1388.76 1465> 927 169<302.53 733.643>
LayerCount: 2
Fore
SplineSet
1096 520 m 0xcf
 1096 231 916 -23 586 -23 c 0
 253 -23 78 221 78 518 c 0
 78 815 257 1065 592 1065 c 0
 929 1065 1096 819 1096 520 c 0xcf
927 518 m 0
 927 737 822 929 586 929 c 0
 359 929 245 729 245 516 c 0
 245 303 360 111 592 111 c 0
 822 111 927 305 927 518 c 0
798 1465 m 1
 903 1465 l 1
 891 1342 825 1245 712 1245 c 0xef
 634 1245 541 1314 468 1314 c 0
 418 1314 386 1284 380 1226 c 1
 277 1226 l 1
 287 1354 364 1441 472 1441 c 0xdf
 562 1441 637 1373 712 1373 c 0xef
 756 1373 790 1405 798 1465 c 1
EndSplineSet
EndChar

StartChar: ugrave
Encoding: 249 249 132
Width: 1129
VWidth: 2088
Flags: W
HStem: -23 155<425.406 706.172> 1020 20G<134 321 809 997>
VStem: 134 187<244.716 1040> 809 188<244.716 1040>
LayerCount: 2
Fore
SplineSet
566 -23 m 0
 349 -23 134 117 134 399 c 2
 134 1040 l 1
 321 1040 l 1
 321 397 l 2
 321 224 443 132 566 132 c 0
 689 132 809 224 809 397 c 2
 809 1040 l 1
 997 1040 l 1
 997 399 l 2
 997 117 783 -23 566 -23 c 0
650 1200 m 1
 339 1519 l 1
 568 1519 l 1
 792 1200 l 1
 650 1200 l 1
EndSplineSet
EndChar

StartChar: udieresis
Encoding: 252 252 134
Width: 1129
VWidth: 2088
Flags: W
HStem: -23 155<425.406 706.172> 1020 20G<134 321 809 997> 1192 168<291 460 670 839>
VStem: 134 187<244.716 1040> 291 169<1192 1360> 670 169<1192 1360> 809 188<244.716 1040>
LayerCount: 2
Fore
SplineSet
566 -23 m 0xf2
 349 -23 134 117 134 399 c 2
 134 1040 l 1
 321 1040 l 1
 321 397 l 2
 321 224 443 132 566 132 c 0
 689 132 809 224 809 397 c 2
 809 1040 l 1
 997 1040 l 1
 997 399 l 2
 997 117 783 -23 566 -23 c 0xf2
839 1192 m 1xe4
 670 1192 l 1
 670 1360 l 1
 839 1360 l 1
 839 1192 l 1xe4
460 1192 m 1xe8
 291 1192 l 1
 291 1360 l 1
 460 1360 l 1
 460 1192 l 1xe8
EndSplineSet
EndChar

StartChar: dagger
Encoding: 261 8224 135
Width: 989
VWidth: 2088
Flags: W
HStem: 953 135<102 420 558 889> 1459 20G<420 558>
VStem: 420 138<1088 1479> 420 123<115 953>
LayerCount: 2
Fore
SplineSet
420 115 m 1xd0
 420 953 l 1xd0
 102 953 l 1
 102 1088 l 1
 420 1088 l 1
 420 1479 l 1
 558 1479 l 1
 558 1088 l 1xe0
 889 1088 l 1
 889 953 l 1
 543 953 l 1
 543 115 l 1
 420 115 l 1xd0
EndSplineSet
EndChar

StartChar: degree
Encoding: 176 176 136
Width: 816
VWidth: 2088
Flags: W
HStem: 871 119<280.082 522.133> 1354 119<280.895 522.148>
VStem: 92 121<1056.92 1289.95> 590 120<1056.92 1289.95>
LayerCount: 2
Fore
SplineSet
401 1354 m 0
 301 1354 213 1276 213 1174 c 0
 213 1072 297 990 401 990 c 0
 505 990 590 1072 590 1174 c 0
 590 1276 503 1354 401 1354 c 0
401 871 m 0
 234 871 92 1009 92 1174 c 0
 92 1339 234 1473 401 1473 c 0
 570 1473 710 1339 710 1174 c 0
 710 1009 568 871 401 871 c 0
EndSplineSet
EndChar

StartChar: cent
Encoding: 162 162 137
Width: 1150
VWidth: 2088
Flags: W
HStem: -14 139<480.339 562 696 882.384> 929 136<507.41 616 750 855.173>
VStem: 165 168<292.915 733.733>
LayerCount: 2
Fore
SplineSet
1001 925 m 1
 929 817 l 1
 883 877 817 915 742 929 c 1
 696 111 l 1
 796 115 883 157 965 230 c 1
 1009 88 l 1
 921 15 817 -19 687 -23 c 1
 672 -261 l 1
 548 -261 l 1
 562 -14 l 1
 299 28 165 251 165 514 c 0
 165 809 329 1056 624 1072 c 1
 640 1287 l 1
 765 1287 l 1
 750 1065 l 1
 861 1049 949 996 1001 925 c 1
333 518 m 0
 333 324 407 169 570 125 c 1
 616 929 l 1
 436 899 333 727 333 518 c 0
EndSplineSet
EndChar

StartChar: sterling
Encoding: 163 163 138
Width: 1150
VWidth: 2088
Flags: W
HStem: 0 153<366.685 1082> 0 130<138 190.307> 670 134<102 293 470 863> 1347 155<583.642 896.033>
VStem: 293 177<237.329 670 804 1224.64>
LayerCount: 2
Fore
SplineSet
102 670 m 1x78
 102 804 l 1
 293 804 l 1
 293 925 l 2
 293 1218 349 1502 731 1502 c 0
 904 1502 1021 1426 1090 1326 c 1
 999 1224 l 1
 921 1302 837 1347 731 1347 c 0
 549 1347 470 1216 470 1013 c 2
 470 804 l 1
 863 804 l 1
 863 670 l 1
 470 670 l 1
 470 502 l 2
 470 368 459 228 365 144 c 1
 401 148 434 153 470 153 c 2
 1082 153 l 1
 1082 0 l 1xb8
 138 0 l 1
 113 130 l 1
 263 197 293 295 293 443 c 2
 293 670 l 1
 102 670 l 1x78
EndSplineSet
EndChar

StartChar: section
Encoding: 167 167 139
Width: 1060
VWidth: 2088
Flags: W
HStem: -48 138<256.568 627.193> 1383 140<423.677 791.863>
VStem: 180 171<654.562 862.387> 215 165<1141.6 1338.13> 694 167<153.228 341.462> 710 171<635.102 831.917>
LayerCount: 2
Fore
SplineSet
807 1481 m 1xd0
 809 1331 l 1
 749 1361 650 1383 590 1383 c 0
 471 1383 380 1343 380 1245 c 0
 380 1163 429 1115 592 1042 c 0
 747 971 881 896 881 752 c 0xd4
 881 639 796 549 702 489 c 1
 794 439 861 376 861 257 c 0
 861 60 675 -48 468 -48 c 0
 380 -48 287 -32 205 4 c 1
 205 157 l 1
 299 111 384 90 462 90 c 0
 608 90 694 161 694 249 c 0
 694 339 619 368 489 426 c 2
 407 464 l 2
 267 526 180 614 180 744 c 0xe8
 180 861 263 944 361 994 c 1
 269 1054 215 1122 215 1241 c 0
 215 1429 379 1523 584 1523 c 0
 668 1523 729 1507 807 1481 c 1xd0
572 558 m 1
 634 600 710 655 710 737 c 0
 710 856 560 885 478 929 c 1
 414 889 351 838 351 756 c 0xe4
 351 656 440 614 572 558 c 1
EndSplineSet
EndChar

StartChar: bullet
Encoding: 262 8226 140
Width: 955
VWidth: 2088
Flags: W
HStem: 393 637<321.975 639.673>
VStem: 153 654<559.168 863.95>
LayerCount: 2
Fore
SplineSet
807 714 m 0
 807 539 655 393 478 393 c 0
 296 393 153 537 153 708 c 0
 153 883 307 1030 482 1030 c 0
 659 1030 807 887 807 714 c 0
EndSplineSet
EndChar

StartChar: paragraph
Encoding: 182 182 141
Width: 1173
VWidth: 2088
Flags: W
HStem: 1354 125<566.685 769 895 977>
VStem: 102 464<971.99 1312.36> 428 138<-150 802> 769 126<-150 1354>
LayerCount: 2
Fore
SplineSet
566 -150 m 1xb0
 428 -150 l 1
 428 802 l 1xb0
 253 804 102 944 102 1153 c 0xd0
 102 1410 337 1479 604 1479 c 2
 977 1479 l 1
 977 1354 l 1
 895 1354 l 1
 895 -150 l 1
 769 -150 l 1
 769 1354 l 1
 566 1354 l 1
 566 -150 l 1xb0
EndSplineSet
EndChar

StartChar: germandbls
Encoding: 223 223 142
Width: 1265
VWidth: 2088
Flags: W
HStem: -26 156<637.704 940.785> 0 21G<175 365> 1354 148<473.988 771.068>
VStem: 175 190<0 1228.22> 839 191<1049.52 1291.48> 1005 207<195.213 445.438>
LayerCount: 2
Fore
SplineSet
813 130 m 0xb4
 936 130 1005 212 1005 325 c 0xb4
 1005 490 769 597 644 679 c 0
 600 709 568 745 568 789 c 0
 568 821 584 859 628 895 c 0
 720 970 839 1048 839 1178 c 0
 839 1293 739 1354 624 1354 c 0
 434 1354 365 1210 365 1030 c 2
 365 0 l 1
 175 0 l 1
 175 1049 l 2
 175 1331 331 1502 624 1502 c 0
 858 1502 1030 1383 1030 1178 c 0x78
 1030 998 852 884 752 804 c 1
 911 698 1212 575 1212 330 c 0
 1212 89 1034 -26 827 -26 c 0
 725 -26 588 7 506 71 c 1
 526 117 548 165 568 211 c 1
 643 165 731 130 813 130 c 0xb4
EndSplineSet
EndChar

StartChar: registered
Encoding: 174 174 143
Width: 1770
VWidth: 2088
Flags: W
HStem: -23 117<637.61 1135.34> 679 119<729 906.177> 1088 122<729 1074.45> 1385 117<634.501 1132.23>
VStem: 113 136<495.051 986.045> 584 145<285 679 798 1088> 1112 148<843.712 1051.51> 1523 136<500.448 976.971>
LayerCount: 2
Fore
SplineSet
859 679 m 1
 729 679 l 1
 729 285 l 1
 584 285 l 1
 584 1210 l 1
 846 1210 l 2
 1125 1210 1260 1120 1260 953 c 0
 1260 830 1181 719 997 696 c 1
 1083 627 1148 502 1278 285 c 1
 1118 285 l 1
 1001 497 l 2
 953 585 903 645 859 679 c 1
729 1088 m 1
 729 798 l 1
 846 798 l 2
 1017 798 1112 826 1112 947 c 0
 1112 1072 1031 1088 837 1088 c 2
 729 1088 l 1
887 94 m 0
 1309 94 1523 416 1523 737 c 0
 1523 1060 1307 1385 883 1385 c 0
 459 1385 249 1063 249 742 c 0
 249 419 461 94 887 94 c 0
1659 740 m 0
 1659 230 1274 -23 887 -23 c 0
 500 -23 113 230 113 740 c 0
 113 1250 496 1502 883 1502 c 0
 1270 1502 1659 1248 1659 740 c 0
EndSplineSet
EndChar

StartChar: copyright
Encoding: 169 169 144
Width: 1770
VWidth: 2088
Flags: W
HStem: -34 122<643.914 1121.26> 255 134<757.817 1119.45> 1101 131<750.023 1101.47> 1393 120<642.171 1118.34>
VStem: 100 121<505.051 975.911> 445 149<562.472 930.017> 1539 124<505.385 975.091>
LayerCount: 2
Fore
SplineSet
1172 470 m 1
 1210 347 l 1
 1126 287 1026 255 911 255 c 0
 640 255 445 473 445 744 c 0
 445 1026 634 1232 921 1232 c 0
 1032 1232 1128 1199 1208 1128 c 1
 1176 1005 l 1
 1105 1069 1015 1101 915 1101 c 0
 716 1101 594 945 594 748 c 0
 594 547 712 389 942 389 c 0
 1028 389 1108 414 1172 470 c 1
221 742 m 0
 221 373 509 88 883 88 c 0
 1255 88 1539 375 1539 740 c 0
 1539 1109 1253 1393 879 1393 c 0
 510 1393 221 1109 221 742 c 0
885 -34 m 0
 450 -34 100 316 100 740 c 0
 100 1162 453 1513 879 1513 c 0
 1311 1513 1663 1160 1663 740 c 0
 1663 318 1311 -34 885 -34 c 0
EndSplineSet
EndChar

StartChar: trademark
Encoding: 263 8482 145
Width: 1810
VWidth: 2088
Flags: W
HStem: 1377 102<67 313 432 685>
VStem: 313 119<700 1377> 794 117<700 1306> 1504 119<700 1306>
LayerCount: 2
Fore
SplineSet
794 1479 m 1
 977 1479 l 1
 1208 917 l 1
 1447 1479 l 1
 1623 1479 l 1
 1623 700 l 1
 1504 700 l 1
 1504 1306 l 1
 1238 700 l 1
 1162 700 l 1
 911 1306 l 1
 911 700 l 1
 794 700 l 1
 794 1479 l 1
67 1479 m 1
 685 1479 l 1
 685 1377 l 1
 432 1377 l 1
 432 700 l 1
 313 700 l 1
 313 1377 l 1
 67 1377 l 1
 67 1479 l 1
EndSplineSet
EndChar

StartChar: notequal
Encoding: 264 8800 146
Width: 1307
VWidth: 2088
Flags: W
HStem: 333 120<165 449 635 1136> 742 125<165 650 835 1134>
LayerCount: 2
Fore
SplineSet
837 1144 m 1
 957 1128 l 1
 835 867 l 1
 1134 867 l 1
 1144 742 l 1
 779 742 l 1
 635 453 l 1
 1136 453 l 1
 1144 333 l 1
 578 333 l 1
 443 46 l 1
 323 64 l 1
 449 333 l 1
 165 333 l 1
 157 453 l 1
 508 453 l 1
 650 742 l 1
 165 742 l 1
 155 867 l 1
 704 867 l 1
 837 1144 l 1
EndSplineSet
EndChar

StartChar: AE
Encoding: 198 198 147
Width: 1963
VWidth: 2088
Flags: W
HStem: 0 150<1218 1842> 405 153<491 1021> 685 150<1178 1780> 1335 150<915 963 1124 1820>
LayerCount: 2
Fore
SplineSet
963 1335 m 1
 915 1335 l 1
 491 558 l 1
 1021 558 l 1
 963 1335 l 1
4 0 m 1
 811 1485 l 1
 1820 1485 l 1
 1820 1335 l 1
 1124 1335 l 1
 1160 835 l 1
 1780 835 l 1
 1780 685 l 1
 1178 685 l 1
 1218 150 l 1
 1842 150 l 1
 1842 0 l 1
 1070 0 l 1
 1040 405 l 1
 414 405 l 1
 194 0 l 1
 4 0 l 1
EndSplineSet
EndChar

StartChar: Oslash
Encoding: 216 216 148
Width: 1628
VWidth: 2088
Flags: W
HStem: -23 167<640 1026.8> 1335 167<606.158 1008.77>
VStem: 102 209<467.369 1006.92> 1318 209<467.369 1016.05>
LayerCount: 2
Fore
SplineSet
1120 1652 m 1
 1241 1611 l 1
 528 -171 l 1
 411 -130 l 1
 1120 1652 l 1
815 -23 m 0
 368 -23 102 294 102 737 c 0
 102 1203 383 1502 815 1502 c 0
 1247 1502 1527 1203 1527 737 c 0
 1527 294 1262 -23 815 -23 c 0
815 1335 m 0
 478 1335 311 1074 311 744 c 0
 311 407 476 144 815 144 c 0
 1154 144 1318 407 1318 744 c 0
 1318 1074 1152 1335 815 1335 c 0
EndSplineSet
EndChar

StartChar: infinity
Encoding: 265 8734 149
Width: 1668
VWidth: 2088
Flags: W
HStem: 241 120<315.391 583.25 1085.05 1347.41> 846 117<308.479 581.712 1081.75 1350.72>
VStem: 92 125<461.675 750.242> 1435 136<452.096 760.591>
LayerCount: 2
Fore
SplineSet
1435 630 m 0
 1435 747 1346 846 1218 846 c 0
 1088 846 983 729 901 604 c 1
 1016 445 1103 361 1222 361 c 0
 1368 361 1435 480 1435 630 c 0
217 604 m 0
 217 481 309 361 447 361 c 0
 572 361 679 470 767 602 c 1
 679 740 573 846 439 846 c 0
 301 846 217 734 217 604 c 0
1571 608 m 0
 1571 391 1406 241 1220 241 c 0
 1076 241 961 326 833 497 c 1
 722 347 600 241 445 241 c 0
 234 241 92 417 92 624 c 0
 92 812 257 963 441 963 c 0
 600 963 720 861 833 706 c 1
 941 856 1059 963 1222 963 c 0
 1435 963 1571 815 1571 608 c 0
EndSplineSet
EndChar

StartChar: plusminus
Encoding: 177 177 150
Width: 1411
VWidth: 2088
Flags: W
HStem: 0 140<194 1210> 608 140<194 624 773 1206>
VStem: 624 145<227 608 748 1130>
LayerCount: 2
Fore
SplineSet
1210 0 m 1
 194 0 l 1
 194 140 l 1
 1210 140 l 1
 1210 0 l 1
182 748 m 1
 624 748 l 1
 624 1130 l 1
 769 1130 l 1
 769 748 l 1
 1206 748 l 1
 1206 608 l 1
 773 608 l 1
 773 227 l 1
 626 227 l 1
 626 608 l 1
 194 608 l 1
 182 748 l 1
EndSplineSet
EndChar

StartChar: lessequal
Encoding: 266 8804 151
Width: 1307
VWidth: 2088
Flags: W
HStem: 8 126<157 1138>
LayerCount: 2
Fore
SplineSet
1112 363 m 1
 1112 219 l 1
 190 679 l 1
 190 763 l 1
 1112 1243 l 1
 1112 1101 l 1
 359 725 l 1
 1112 363 l 1
1138 134 m 1
 1138 8 l 1
 157 8 l 1
 157 134 l 1
 1138 134 l 1
EndSplineSet
EndChar

StartChar: greaterequal
Encoding: 267 8805 152
Width: 1305
VWidth: 2088
Flags: W
HStem: 8 126<157 1134>
LayerCount: 2
Fore
SplineSet
1134 134 m 1
 1134 8 l 1
 157 8 l 1
 157 134 l 1
 1134 134 l 1
190 1103 m 1
 190 1245 l 1
 1116 763 l 1
 1116 681 l 1
 186 221 l 1
 186 365 l 1
 945 721 l 1
 190 1103 l 1
EndSplineSet
EndChar

StartChar: yen
Encoding: 165 165 153
Width: 1150
VWidth: 2088
Flags: W
HStem: 0 21G<491 658> 289 143<104 489 658 1038> 584 147<98 455 681 1034>
VStem: 491 167<0 289 432 584>
LayerCount: 2
Fore
SplineSet
658 289 m 1
 658 0 l 1
 491 0 l 1
 491 289 l 1
 104 289 l 1
 94 432 l 1
 489 432 l 1
 489 584 l 1
 98 584 l 1
 98 731 l 1
 455 731 l 1
 26 1447 l 1
 223 1447 l 1
 504 957 l 1
 582 813 l 1
 942 1447 l 1
 1124 1447 l 1
 681 731 l 1
 1034 731 l 1
 1034 584 l 1
 656 584 l 1
 656 432 l 1
 1038 432 l 1
 1038 289 l 1
 658 289 l 1
EndSplineSet
EndChar

StartChar: partialdiff
Encoding: 268 8706 154
Width: 1129
VWidth: 2088
Flags: W
HStem: -26 139<351.585 614.01> 885 136<446.438 732.138> 1427 138<370.155 698.74>
VStem: 82 163<227.835 650.499> 875 165<853 1195.66>
LayerCount: 2
Fore
SplineSet
478 113 m 0
 681 113 823 363 859 668 c 1
 821 783 724 885 590 885 c 0
 396 885 245 675 245 426 c 0
 245 238 334 113 478 113 c 0
282 1331 m 1
 271 1471 l 1
 349 1525 457 1565 570 1565 c 0
 861 1565 1040 1347 1040 869 c 0
 1040 428 858 -26 476 -26 c 0
 215 -26 82 173 82 428 c 0
 82 763 299 1021 568 1021 c 0
 696 1021 798 959 873 853 c 1
 873 871 875 903 875 929 c 0
 875 1238 751 1427 548 1427 c 0
 454 1427 357 1383 282 1331 c 1
EndSplineSet
EndChar

StartChar: summation
Encoding: 269 8721 155
Width: 1224
VWidth: 2088
Flags: W
HStem: -337 153<285 1182> 1306 145<313 1138>
LayerCount: 2
Fore
SplineSet
1182 -184 m 1
 1182 -337 l 1
 54 -337 l 1
 54 -245 l 1
 675 564 l 1
 78 1354 l 1
 78 1451 l 1
 1138 1451 l 1
 1138 1306 l 1
 313 1306 l 1
 871 572 l 1
 285 -184 l 1
 1182 -184 l 1
EndSplineSet
EndChar

StartChar: product
Encoding: 270 8719 156
Width: 1517
VWidth: 2088
Flags: W
HStem: 1304 147<121 243 411 1114 1285 1395>
VStem: 243 168<-337 1304> 1114 171<-337 1304>
LayerCount: 2
Fore
SplineSet
1410 1451 m 1
 1395 1304 l 1
 1285 1304 l 1
 1285 -337 l 1
 1114 -337 l 1
 1114 1304 l 1
 411 1304 l 1
 411 -337 l 1
 243 -337 l 1
 243 1304 l 1
 121 1304 l 1
 106 1451 l 1
 1410 1451 l 1
EndSplineSet
EndChar

StartChar: integral
Encoding: 271 8747 157
Width: 678
VWidth: 2088
Flags: W
HStem: -407 138<122.312 339.142> 1525 138<578.201 800.685>
VStem: 380 159<-225.192 1481.92>
LayerCount: 2
Fore
SplineSet
380 -48 m 2
 380 1280 l 2
 380 1499 451 1663 670 1663 c 0
 724 1663 756 1654 802 1642 c 1
 804 1511 l 1
 778 1521 736 1525 698 1525 c 0
 566 1525 539 1450 539 1306 c 2
 539 -23 l 2
 539 -242 472 -407 253 -407 c 0
 199 -407 167 -399 121 -387 c 1
 119 -255 l 1
 145 -265 185 -269 223 -269 c 0
 355 -269 380 -192 380 -48 c 2
EndSplineSet
EndChar

StartChar: ordfeminine
Encoding: 170 170 158
Width: 720
VWidth: 2088
Flags: W
HStem: 783 104<214.675 448.868> 1395 112<216.964 496.992>
VStem: 62 132<910.052 1076.68> 520 126<802 877 961.658 1132 1230.16 1373.03>
LayerCount: 2
Fore
SplineSet
307 783 m 0
 167 783 62 864 62 994 c 0
 62 1111 163 1193 299 1216 c 0
 372 1228 449 1226 520 1234 c 1
 520 1357 489 1395 376 1395 c 0
 296 1395 221 1380 173 1302 c 1
 106 1377 l 1
 156 1469 261 1507 382 1507 c 0
 526 1507 648 1437 648 1260 c 2
 646 931 l 2
 646 917 646 888 652 802 c 1
 524 802 l 1
 520 877 l 1
 476 821 403 783 307 783 c 0
328 887 m 0
 458 887 516 992 520 1107 c 1
 520 1132 l 1
 384 1104 194 1129 194 997 c 0
 194 922 250 887 328 887 c 0
EndSplineSet
EndChar

StartChar: ordmasculine
Encoding: 186 186 159
Width: 797
VWidth: 2088
Flags: W
HStem: 783 108<273.253 528.733> 1395 112<274.492 527.299>
VStem: 50 136<978.536 1302.89> 616 134<984.557 1301.36>
LayerCount: 2
Fore
SplineSet
401 1507 m 0
 626 1507 750 1345 750 1142 c 0
 750 943 626 783 403 783 c 0
 171 783 50 941 50 1146 c 0
 50 1347 178 1507 401 1507 c 0
186 1144 m 0
 186 1004 259 891 403 891 c 0
 541 891 616 1006 616 1140 c 0
 616 1280 539 1395 399 1395 c 0
 263 1395 186 1280 186 1144 c 0
EndSplineSet
EndChar

StartChar: ae
Encoding: 230 230 160
Width: 1748
VWidth: 2088
Flags: W
HStem: -26 141<302.143 627.013 1040.69 1377.29> 489 139<342.782 746 915 1477> 936 138<339.223 657.688 1060.29 1361.68>
VStem: 80 163<175.453 407.666> 748 165<258.008 489 628 778.153> 1477 167<628 801.484>
LayerCount: 2
Fore
SplineSet
230 779 m 1
 142 873 l 1
 215 1015 359 1074 532 1074 c 0
 651 1074 817 1011 851 873 c 1
 924 1007 1052 1074 1192 1074 c 0
 1503 1074 1644 855 1644 534 c 2
 1644 489 l 1
 913 489 l 1
 913 485 913 476 913 472 c 0
 913 290 977 115 1204 115 c 0
 1336 115 1454 184 1527 299 c 1
 1613 211 l 1
 1525 56 1380 -26 1192 -26 c 0
 1035 -26 898 55 827 201 c 1
 743 61 599 -30 428 -30 c 0
 223 -30 80 92 80 289 c 0
 80 606 397 626 746 626 c 1
 746 642 l 2
 746 799 689 936 522 936 c 0
 399 936 294 894 230 779 c 1
748 489 m 1
 608 484 l 2
 418 480 243 464 243 297 c 0
 243 163 345 111 460 111 c 0
 685 111 748 290 748 489 c 1
915 628 m 1
 1477 628 l 1
 1477 640 l 2
 1461 815 1385 936 1212 936 c 0
 1035 936 927 791 915 628 c 1
EndSplineSet
EndChar

StartChar: oslash
Encoding: 248 248 161
Width: 1168
VWidth: 2088
Flags: W
HStem: -23 134<482.983 753.922> 936 136<422.537 692.848>
VStem: 78 167<304.772 732.907> 925 169<302.592 742.255>
LayerCount: 2
Fore
SplineSet
592 1072 m 0
 648 1072 698 1063 746 1051 c 1
 846 1304 l 1
 947 1270 l 1
 842 1013 l 1
 1009 923 1094 737 1094 522 c 0
 1094 227 911 -23 586 -23 c 0
 530 -23 480 -14 432 -2 c 1
 323 -265 l 1
 227 -234 l 1
 337 36 l 1
 168 124 78 307 78 522 c 0
 78 825 262 1072 592 1072 c 0
245 520 m 0
 245 378 295 246 393 173 c 1
 694 919 l 1
 660 927 626 936 586 936 c 0
 363 936 245 737 245 520 c 0
925 522 m 0
 925 668 879 796 785 871 c 1
 482 128 l 1
 516 118 552 111 592 111 c 0
 817 111 925 305 925 522 c 0
EndSplineSet
EndChar

StartChar: exclamdown
Encoding: 161 161 164
Width: 711
VWidth: 2088
Flags: W
HStem: -393 21G<301 451> 903 209<253 460>
VStem: 253 207<903 1112> 301 150<-393 708>
LayerCount: 2
Fore
SplineSet
253 903 m 1xe0
 253 1112 l 1
 460 1112 l 1
 460 903 l 1
 253 903 l 1xe0
451 708 m 1xd0
 451 -393 l 1
 301 -393 l 1
 301 708 l 1
 451 708 l 1xd0
EndSplineSet
EndChar

StartChar: logicalnot
Encoding: 172 172 165
Width: 1411
VWidth: 2088
Flags: W
HStem: 672 143<194 1063>
VStem: 1063 147<243 672>
LayerCount: 2
Fore
SplineSet
1210 243 m 1
 1063 243 l 1
 1063 672 l 1
 194 672 l 1
 194 815 l 1
 1210 815 l 1
 1210 243 l 1
EndSplineSet
EndChar

StartChar: radical
Encoding: 272 8730 166
Width: 1271
VWidth: 2088
Flags: W
LayerCount: 2
Fore
SplineSet
1049 1627 m 1
 1174 1627 l 1
 723 -157 l 1
 592 -157 l 1
 269 704 l 1
 102 675 l 1
 84 789 l 1
 369 842 l 1
 592 217 l 1
 648 42 l 1
 687 221 l 1
 1049 1627 l 1
EndSplineSet
EndChar

StartChar: florin
Encoding: 273 402 167
Width: 1152
VWidth: 2088
Flags: W
HStem: -339 140<81.9049 252.704> 819 142<333 472 660 844> 1320 145<741.609 969.812>
LayerCount: 2
Fore
SplineSet
472 819 m 1
 321 819 l 1
 333 961 l 1
 495 961 l 1
 516 1116 l 2
 542 1298 612 1465 837 1465 c 0
 879 1465 929 1457 977 1445 c 1
 969 1297 l 1
 929 1313 895 1320 863 1320 c 0
 750 1320 712 1262 696 1162 c 2
 660 961 l 1
 855 961 l 1
 844 819 l 1
 640 819 l 1
 516 123 l 2
 472 -120 409 -339 171 -339 c 0
 143 -339 111 -331 71 -321 c 1
 84 -182 l 1
 114 -192 139 -199 159 -199 c 0
 253 -199 295 -105 323 6 c 0
 385 267 422 552 472 819 c 1
EndSplineSet
EndChar

StartChar: approxequal
Encoding: 274 8776 168
Width: 1307
VWidth: 2088
Flags: W
HStem: 267 122<751.402 973.588> 435 123<327.329 564.317> 648 119<738.958 974.477> 815 121<325.025 566.396>
VStem: 148 111<291.666 359.925 671.999 745.852> 1044 107<465.052 532.019 846.052 912.551>
LayerCount: 2
Fore
SplineSet
1044 558 m 1
 1151 528 l 1
 1117 371 1030 267 871 267 c 0
 793 267 716 301 610 365 c 0
 546 405 489 435 435 435 c 0
 341 435 289 367 259 265 c 1
 148 295 l 1
 186 458 289 558 437 558 c 0
 610 558 762 389 875 389 c 0
 957 389 1006 452 1044 558 c 1
1042 936 m 1
 1149 909 l 1
 1115 752 1026 648 869 648 c 0
 787 648 714 682 608 746 c 0
 544 786 486 815 432 815 c 0
 338 815 287 750 259 648 c 1
 146 675 l 1
 182 836 287 936 435 936 c 0
 517 936 591 900 679 846 c 1
 765 794 821 767 873 767 c 0
 955 767 1006 828 1042 936 c 1
EndSplineSet
EndChar

StartChar: guillemotleft
Encoding: 171 171 169
Width: 1118
VWidth: 2088
Flags: W
LayerCount: 2
Fore
SplineSet
238 552 m 1
 506 931 l 1
 660 931 l 1
 403 552 l 1
 652 173 l 1
 499 173 l 1
 238 552 l 1
598 552 m 1
 863 931 l 1
 1015 931 l 1
 760 552 l 1
 1009 173 l 1
 857 173 l 1
 598 552 l 1
EndSplineSet
EndChar

StartChar: guillemotright
Encoding: 187 187 170
Width: 1118
VWidth: 2088
Flags: W
LayerCount: 2
Fore
SplineSet
965 554 m 1
 698 173 l 1
 546 173 l 1
 798 554 l 1
 554 931 l 1
 704 931 l 1
 965 554 l 1
580 554 m 1
 315 173 l 1
 161 173 l 1
 418 554 l 1
 167 931 l 1
 319 931 l 1
 580 554 l 1
EndSplineSet
EndChar

StartChar: ellipsis
Encoding: 275 8230 171
Width: 1568
VWidth: 2088
Flags: W
HStem: -10 213<155 363 677 887 1202 1410>
VStem: 155 208<-10 203> 677 210<-10 203> 1202 208<-10 203>
LayerCount: 2
Fore
SplineSet
363 203 m 1
 363 -10 l 1
 155 -10 l 1
 155 203 l 1
 363 203 l 1
887 203 m 1
 887 -10 l 1
 677 -10 l 1
 677 203 l 1
 887 203 l 1
1410 203 m 1
 1410 -10 l 1
 1202 -10 l 1
 1202 203 l 1
 1410 203 l 1
EndSplineSet
EndChar

StartChar: Atilde
Encoding: 195 195 173
Width: 1305
VWidth: 2088
Flags: W
HStem: 0 21G<16 235 1083.18 1291> 478 160<432 873> 1455 20G<546.705 761.281> 1640 134<691.728 864.643> 1750 134<442.638 624.901>
VStem: 311 119<1654 1739.56> 875 124<1783.02 1872>
LayerCount: 2
Fore
SplineSet
16 0 m 1xe6
 554 1475 l 1
 754 1475 l 1
 1291 0 l 1
 1090 0 l 1
 927 478 l 1
 378 478 l 1
 321 315 l 2
 285 213 253 102 217 0 c 1
 16 0 l 1xe6
873 638 m 1
 656 1270 l 1
 432 638 l 1
 873 638 l 1
311 1654 m 1
 315 1784 382 1884 520 1884 c 0xee
 639 1884 713 1774 807 1774 c 0
 861 1774 873 1828 875 1872 c 1
 999 1872 l 1
 995 1747 932 1640 794 1640 c 0xf6
 692 1640 587 1750 512 1750 c 0xee
 454 1750 432 1706 430 1654 c 1
 311 1654 l 1
EndSplineSet
EndChar

StartChar: OE
Encoding: 276 338 175
Width: 2025
VWidth: 2088
Flags: W
HStem: -23 151<585.935 984.702> 0 150<1274 1916> 685 150<1274 1848> 1335 150<1274 1886> 1362 151<589.303 998.106>
VStem: 102 180<467.495 1001.13> 1107 167<226.111 685 835 1278.86>
LayerCount: 2
Fore
SplineSet
1916 150 m 1x76
 1916 0 l 1
 1107 0 l 1x76
 1107 106 l 1
 1017 22 913 -23 796 -23 c 0
 364 -23 102 276 102 744 c 0
 102 1189 363 1513 804 1513 c 0xae
 917 1513 1019 1475 1107 1408 c 1
 1107 1485 l 1
 1886 1485 l 1
 1886 1335 l 1
 1274 1335 l 1
 1274 835 l 1
 1848 835 l 1
 1848 685 l 1
 1274 685 l 1
 1274 150 l 1
 1916 150 l 1x76
794 128 m 0xae
 924 128 1027 179 1107 269 c 1
 1107 1243 l 1
 1027 1318 926 1362 796 1362 c 0
 459 1362 282 1070 282 740 c 0
 282 397 455 128 794 128 c 0xae
EndSplineSet
EndChar

StartChar: oe
Encoding: 277 339 176
Width: 1973
VWidth: 2088
Flags: W
HStem: -23 153<439.591 772.866 1289.27 1622.61> 484 128<1130 1698> 911 154<444.89 771.875 1280.55 1586.36>
VStem: 78 191<316.41 719.333> 931 193<307.512 484 612 735.072>
LayerCount: 2
Fore
SplineSet
1732 275 m 1
 1848 169 l 1
 1756 23 1604 -23 1435 -23 c 0
 1264 -23 1120 65 1030 203 c 1
 942 67 798 -23 604 -23 c 0
 263 -23 78 221 78 518 c 0
 78 815 267 1065 608 1065 c 0
 807 1065 944 980 1030 848 c 1
 1120 984 1268 1065 1443 1065 c 0
 1694 1065 1878 869 1878 546 c 0
 1878 530 1876 502 1876 484 c 1
 1124 484 l 1
 1138 271 1263 130 1451 130 c 0
 1570 130 1672 185 1732 275 c 1
931 518 m 0
 931 729 834 911 604 911 c 0
 385 911 269 719 269 516 c 0
 269 313 383 130 608 130 c 0
 831 130 931 315 931 518 c 0
1445 915 m 0
 1282 915 1156 800 1130 612 c 1
 1698 612 l 1
 1686 798 1591 915 1445 915 c 0
EndSplineSet
EndChar

StartChar: endash
Encoding: 278 8211 177
Width: 1050
VWidth: 2088
Flags: W
HStem: 499 141<-6 1051>
LayerCount: 2
Fore
SplineSet
1051 640 m 1
 1051 499 l 1
 -6 499 l 1
 -6 640 l 1
 1051 640 l 1
EndSplineSet
EndChar

StartChar: emdash
Encoding: 279 8212 178
Width: 2101
VWidth: 2088
Flags: W
HStem: 499 141<-2 2093>
LayerCount: 2
Fore
SplineSet
2093 640 m 1
 2093 499 l 1
 -2 499 l 1
 -2 640 l 1
 2093 640 l 1
EndSplineSet
EndChar

StartChar: quotedblleft
Encoding: 280 8220 179
Width: 989
VWidth: 2088
Flags: W
HStem: 1044 447<451 479 790 820>
VStem: 173 616
LayerCount: 2
Fore
SplineSet
451 1491 m 1
 349 1044 l 1
 173 1044 l 1
 321 1491 l 1
 451 1491 l 1
789 1491 m 1
 690 1044 l 1
 512 1044 l 1
 660 1491 l 1
 789 1491 l 1
EndSplineSet
EndChar

StartChar: quotedblright
Encoding: 281 8221 180
Width: 991
VWidth: 2088
Flags: W
HStem: 1044 447<618 645 933 961>
VStem: 201 595
LayerCount: 2
Fore
SplineSet
201 1044 m 1
 303 1491 l 1
 478 1491 l 1
 330 1044 l 1
 201 1044 l 1
518 1044 m 1
 618 1491 l 1
 796 1491 l 1
 646 1044 l 1
 518 1044 l 1
EndSplineSet
EndChar

StartChar: quoteleft
Encoding: 282 8216 181
Width: 534
VWidth: 2088
Flags: W
HStem: 1044 447<275 303>
VStem: 125 278
LayerCount: 2
Fore
SplineSet
403 1491 m 1
 303 1044 l 1
 125 1044 l 1
 275 1491 l 1
 403 1491 l 1
EndSplineSet
EndChar

StartChar: quoteright
Encoding: 283 8217 182
Width: 534
VWidth: 2088
Flags: W
HStem: 1044 447<238 263>
VStem: 136 275
LayerCount: 2
Fore
SplineSet
136 1044 m 1
 238 1491 l 1
 411 1491 l 1
 263 1044 l 1
 136 1044 l 1
EndSplineSet
EndChar

StartChar: divide
Encoding: 247 247 183
Width: 1411
VWidth: 2088
Flags: W
HStem: 20 216<600 811> 495 143<192 1208> 889 216<600 811>
VStem: 600 211<20 236 889 1105>
LayerCount: 2
Fore
SplineSet
1208 495 m 1
 192 495 l 1
 192 638 l 1
 1208 638 l 1
 1208 495 l 1
811 1105 m 1
 811 889 l 1
 600 889 l 1
 600 1105 l 1
 811 1105 l 1
811 236 m 1
 811 20 l 1
 600 20 l 1
 600 236 l 1
 811 236 l 1
EndSplineSet
EndChar

StartChar: lozenge
Encoding: 284 9674 184
Width: 1206
VWidth: 2088
Flags: W
HStem: 1479 20G<540.527 667.347>
LayerCount: 2
Fore
SplineSet
596 100 m 1
 658 217 l 1
 949 725 l 1
 664 1236 l 1
 606 1349 l 1
 543 1230 l 1
 253 727 l 1
 534 215 l 1
 596 100 l 1
656 1499 m 1
 1094 727 l 1
 648 -46 l 1
 546 -46 l 1
 108 725 l 1
 552 1499 l 1
 656 1499 l 1
EndSplineSet
EndChar

StartChar: ydieresis
Encoding: 255 255 185
Width: 1035
VWidth: 2088
Flags: W
HStem: -447 112<188.584 217.37> 1020 20G<14 195.486 838.377 1015>
LayerCount: 2
Fore
SplineSet
514 169 m 1
 846 1040 l 1
 1015 1040 l 1
 568 -82 l 2
 499 -253 383 -399 201 -447 c 1
 104 -335 l 1
 334 -271 407 -142 407 -38 c 0
 407 -20 424 -4 428 4 c 1
 14 1040 l 1
 188 1040 l 1
 514 169 l 1
403 1370 m 1
 403 1318 408 1260 414 1202 c 1
 362 1202 311 1198 253 1192 c 1
 253 1244 249 1302 243 1360 c 1
 295 1360 345 1366 403 1370 c 1
785 1192 m 1
 729 1198 676 1202 624 1202 c 1
 630 1260 633 1318 633 1370 c 1
 689 1366 744 1360 794 1360 c 1
 790 1302 785 1246 785 1192 c 1
EndSplineSet
EndChar

StartChar: Ydieresis
Encoding: 285 376 186
Width: 1224
VWidth: 2088
Flags: W
HStem: 0 21G<504 698> 1455 20G<-14 203.366 1005.61 1228> 1631 167<361 530 744 913>
VStem: 361 169<1631 1798> 504 194<0 584> 744 169<1631 1798>
LayerCount: 2
Fore
SplineSet
1228 1475 m 1xec
 698 584 l 1
 698 0 l 1
 504 0 l 1
 504 584 l 1
 -14 1475 l 1
 192 1475 l 1
 604 750 l 1
 1017 1475 l 1
 1228 1475 l 1xec
913 1631 m 1
 744 1631 l 1
 744 1798 l 1
 913 1798 l 1
 913 1631 l 1
530 1631 m 1xf4
 361 1631 l 1
 361 1798 l 1
 530 1798 l 1
 530 1631 l 1xf4
EndSplineSet
EndChar

StartChar: fraction
Encoding: 286 8260 187
Width: 354
VWidth: 2088
Flags: W
HStem: 0 21G<-325 -168.041>
LayerCount: 2
Fore
SplineSet
552 1465 m 1
 696 1465 l 1
 -180 0 l 1
 -325 0 l 1
 552 1465 l 1
EndSplineSet
EndChar

StartChar: Euro
Encoding: 287 8364 188
Width: 1152
VWidth: 2088
Flags: W
HStem: -20 148<565.451 921.889> 526 140<94 194 380 905> 800 140<94 192 382 938> 1329 148<588.226 913.834>
VStem: 192 171<666 800>
LayerCount: 2
Fore
SplineSet
75 526 m 1
 94 666 l 1
 194 666 l 1
 194 686 192 710 192 740 c 0
 192 756 192 777 192 800 c 1
 73 800 l 1
 94 940 l 1
 211 940 l 1
 265 1253 453 1477 758 1477 c 0
 886 1477 990 1438 1072 1356 c 1
 1038 1164 l 1
 967 1272 865 1329 752 1329 c 0
 543 1329 426 1153 382 940 c 1
 957 940 l 1
 938 800 l 1
 365 800 l 1
 365 788 363 768 363 752 c 0
 363 710 365 666 365 666 c 1
 923 666 l 1
 905 526 l 1
 380 526 l 1
 412 290 517 128 744 128 c 0
 840 128 945 169 1051 259 c 1
 1049 78 l 1
 953 9 844 -20 727 -20 c 0
 412 -20 247 201 207 526 c 1
 75 526 l 1
EndSplineSet
EndChar

StartChar: guilsinglleft
Encoding: 288 8249 189
Width: 620
VWidth: 2088
Flags: W
VStem: 102 420
LayerCount: 2
Fore
SplineSet
102 552 m 1
 367 931 l 1
 522 931 l 1
 265 552 l 1
 514 173 l 1
 361 173 l 1
 102 552 l 1
EndSplineSet
EndChar

StartChar: guilsinglright
Encoding: 289 8250 190
Width: 620
VWidth: 2088
Flags: W
VStem: 100 420
LayerCount: 2
Fore
SplineSet
520 554 m 1
 253 173 l 1
 100 173 l 1
 353 554 l 1
 106 931 l 1
 259 931 l 1
 520 554 l 1
EndSplineSet
EndChar

StartChar: fi
Encoding: 290 64257 191
Width: 1166
VWidth: 2088
Flags: W
HStem: 0 21G<238 397 842 1001> 938 109<44 238 397 842> 1333 158<851 999> 1406 137<436.829 658.552>
VStem: 238 159<0 938 1047 1363.37> 842 159<0 938 1333 1491>
LayerCount: 2
Fore
SplineSet
397 938 m 1xdc
 397 0 l 1
 238 0 l 1
 238 938 l 1
 44 938 l 1
 44 1047 l 1
 238 1047 l 1
 241 1162 l 2
 245 1381 309 1543 528 1543 c 0
 582 1543 612 1535 660 1523 c 1
 662 1391 l 1
 634 1401 594 1406 556 1406 c 0
 424 1406 399 1328 399 1184 c 2
 397 1047 l 1
 1001 1047 l 1
 1001 0 l 1
 842 0 l 1
 842 938 l 1
 397 938 l 1xdc
851 1491 m 1xec
 999 1491 l 1
 999 1333 l 1
 851 1333 l 1
 851 1491 l 1xec
EndSplineSet
EndChar

StartChar: fl
Encoding: 291 64258 192
Width: 1166
VWidth: 2088
Flags: W
HStem: -23 153<1053.95 1172> 0 21G<213 399> 933 107<38 213 399 644> 1366 153<448.225 660>
VStem: 213 186<0 933 1040 1316.77> 825 186<170.557 1523>
LayerCount: 2
Fore
SplineSet
38 933 m 1x7c
 38 1040 l 1
 213 1040 l 1
 213 1053 l 2
 213 1383 239 1519 630 1519 c 2
 660 1519 l 1
 660 1366 l 1
 630 1366 l 2
 392 1366 399 1270 399 1105 c 2
 399 1040 l 1
 644 1040 l 1
 644 933 l 1
 399 933 l 1
 399 0 l 1
 213 0 l 1
 213 933 l 1
 38 933 l 1x7c
825 445 m 2
 825 1523 l 1
 1011 1523 l 1
 1011 393 l 2
 1011 226 1015 130 1172 130 c 1
 1172 -23 l 1xbc
 853 -23 825 115 825 445 c 2
EndSplineSet
EndChar

StartChar: daggerdbl
Encoding: 292 8225 193
Width: 987
VWidth: 2088
Flags: W
HStem: 443 129<94 428 548 879> 1003 133<100 428 554 887> 1459 20G<409 554>
VStem: 409 145<1289.88 1479> 428 120<328.419 443 572 1003 1136 1268.43>
LayerCount: 2
Fore
SplineSet
428 572 m 1xe8
 428 1003 l 1xe8
 100 1003 l 1
 100 1136 l 1
 435 1136 l 1
 409 1479 l 1
 554 1479 l 1
 554 1136 l 1xf0
 887 1136 l 1
 887 1003 l 1
 548 1003 l 1
 548 572 l 1
 879 572 l 1
 879 443 l 1
 548 443 l 1
 572 115 l 1
 407 115 l 1
 428 443 l 1
 94 443 l 1
 94 572 l 1
 428 572 l 1xe8
EndSplineSet
EndChar

StartChar: middot
Encoding: 183 183 194
Width: 427
VWidth: 2088
Flags: W
HStem: 522 215<73 285>
VStem: 73 212<522 737>
LayerCount: 2
Fore
SplineSet
285 737 m 1
 285 522 l 1
 73 522 l 1
 73 737 l 1
 285 737 l 1
EndSplineSet
EndChar

StartChar: quotesinglbase
Encoding: 293 8218 195
Width: 534
VWidth: 2088
Flags: W
HStem: -243 448<223 251>
VStem: 121 278
LayerCount: 2
Fore
SplineSet
121 -243 m 1
 223 205 l 1
 399 205 l 1
 251 -243 l 1
 121 -243 l 1
EndSplineSet
EndChar

StartChar: quotedblbase
Encoding: 294 8222 196
Width: 989
VWidth: 2088
Flags: W
HStem: -243 448<620 650 967 997>
VStem: 173 625
LayerCount: 2
Fore
SplineSet
173 -243 m 1
 273 205 l 1
 449 205 l 1
 303 -243 l 1
 173 -243 l 1
520 -243 m 1
 620 205 l 1
 798 205 l 1
 650 -243 l 1
 520 -243 l 1
EndSplineSet
EndChar

StartChar: perthousand
Encoding: 295 8240 197
Width: 2310
VWidth: 2088
Flags: W
HStem: -28 116<1025.15 1251.04 1785.32 2015.88> 578 118<1021.84 1255.38 1785.65 2018.8> 754 117<287.286 512.966> 1362 115<283.05 512.095>
VStem: 71 142<946.115 1285.28> 584 141<947.816 1287.42> 809 142<163.221 502.253> 1324 141<166.62 505.266> 1573 140<167.198 502.253> 2089 138<166.234 501.77>
LayerCount: 2
Fore
SplineSet
1901 578 m 0
 1773 578 1713 467 1713 335 c 0
 1713 197 1775 88 1903 88 c 0
 2028 88 2089 203 2089 335 c 0
 2089 471 2026 578 1901 578 c 0
1899 -28 m 0
 1692 -28 1573 118 1573 335 c 0
 1573 542 1692 696 1903 696 c 0
 2112 696 2227 556 2227 333 c 0
 2227 128 2108 -28 1899 -28 c 0
397 754 m 0
 188 754 71 901 71 1118 c 0
 71 1325 188 1477 399 1477 c 0
 612 1477 725 1335 725 1114 c 0
 725 909 606 754 397 754 c 0
1134 -28 m 0
 925 -28 809 118 809 335 c 0
 809 542 927 696 1138 696 c 0
 1351 696 1465 552 1465 333 c 0
 1465 128 1343 -28 1134 -28 c 0
1136 578 m 0
 1011 578 951 467 951 335 c 0
 951 197 1013 88 1138 88 c 0
 1263 88 1324 205 1324 335 c 0
 1324 473 1264 578 1136 578 c 0
397 1362 m 0
 272 1362 213 1250 213 1118 c 0
 213 980 273 871 401 871 c 0
 524 871 584 984 584 1116 c 0
 584 1254 525 1362 397 1362 c 0
387 -20 m 1
 238 -20 l 1
 1146 1465 l 1
 1291 1465 l 1
 387 -20 l 1
EndSplineSet
EndChar

StartChar: Ecircumflex
Encoding: 202 202 199
Width: 1180
VWidth: 2088
Flags: W
HStem: 0 161<369 1061> 690 161<369 1001> 1312 163<369 1030>
VStem: 175 194<161 690 851 1312>
LayerCount: 2
Fore
SplineSet
1001 851 m 1
 1001 690 l 1
 369 690 l 1
 369 161 l 1
 1076 161 l 1
 1061 0 l 1
 175 0 l 1
 175 1475 l 1
 1044 1475 l 1
 1030 1312 l 1
 369 1312 l 1
 369 851 l 1
 1001 851 l 1
323 1619 m 1
 552 1947 l 1
 698 1947 l 1
 925 1619 l 1
 800 1619 l 1
 622 1840 l 1
 445 1619 l 1
 323 1619 l 1
EndSplineSet
EndChar

StartChar: Egrave
Encoding: 200 200 202
Width: 1180
VWidth: 2088
Flags: W
HStem: 0 161<369 1061> 690 161<369 1001> 1312 163<369 1030>
VStem: 175 194<161 690 851 1312>
LayerCount: 2
Fore
SplineSet
1001 851 m 1
 1001 690 l 1
 369 690 l 1
 369 161 l 1
 1076 161 l 1
 1061 0 l 1
 175 0 l 1
 175 1475 l 1
 1044 1475 l 1
 1030 1312 l 1
 369 1312 l 1
 369 851 l 1
 1001 851 l 1
710 1627 m 1
 397 1949 l 1
 628 1949 l 1
 853 1627 l 1
 710 1627 l 1
EndSplineSet
EndChar

StartChar: Icircumflex
Encoding: 206 206 204
Width: 568
VWidth: 2088
Flags: W
HStem: 0 21G<188 385> 1455 20G<188 385>
VStem: 188 197<0 1475>
LayerCount: 2
Fore
SplineSet
385 1475 m 1
 385 0 l 1
 188 0 l 1
 188 1475 l 1
 385 1475 l 1
-30 1617 m 1
 199 1945 l 1
 345 1945 l 1
 572 1617 l 1
 447 1617 l 1
 267 1838 l 1
 90 1617 l 1
 -30 1617 l 1
EndSplineSet
EndChar

StartChar: Igrave
Encoding: 204 204 206
Width: 568
VWidth: 2088
Flags: W
HStem: 0 21G<188 385> 1455 20G<188 385>
VStem: 188 197<0 1475>
LayerCount: 2
Fore
SplineSet
385 1475 m 1
 385 0 l 1
 188 0 l 1
 188 1475 l 1
 385 1475 l 1
359 1625 m 1
 48 1947 l 1
 279 1947 l 1
 504 1625 l 1
 359 1625 l 1
EndSplineSet
EndChar

StartChar: Ocircumflex
Encoding: 212 212 208
Width: 1628
VWidth: 2088
Flags: W
HStem: -23 167<603.094 1026.8> 1335 167<606.158 1023.73>
VStem: 102 209<467.369 1006.92> 1318 209<467.369 1016.05>
LayerCount: 2
Fore
SplineSet
815 -23 m 0
 368 -23 102 294 102 737 c 0
 102 1203 383 1502 815 1502 c 0
 1247 1502 1527 1203 1527 737 c 0
 1527 294 1262 -23 815 -23 c 0
815 1335 m 0
 478 1335 311 1074 311 744 c 0
 311 407 476 144 815 144 c 0
 1154 144 1318 407 1318 744 c 0
 1318 1074 1152 1335 815 1335 c 0
514 1619 m 1
 742 1947 l 1
 887 1947 l 1
 1116 1619 l 1
 990 1619 l 1
 813 1840 l 1
 635 1619 l 1
 514 1619 l 1
EndSplineSet
EndChar

StartChar: Ucircumflex
Encoding: 219 219 211
Width: 1441
VWidth: 2088
Flags: W
HStem: -23 167<513.647 928.17> 1455 20G<167 361 1080 1274>
VStem: 167 194<302.918 1475> 1080 194<302.918 1475>
LayerCount: 2
Fore
SplineSet
721 -23 m 0
 307 -23 167 211 167 546 c 2
 167 1475 l 1
 361 1475 l 1
 361 552 l 2
 361 259 470 144 721 144 c 0
 972 144 1080 259 1080 552 c 2
 1080 1475 l 1
 1274 1475 l 1
 1274 546 l 2
 1274 211 1135 -23 721 -23 c 0
420 1619 m 1
 648 1947 l 1
 794 1947 l 1
 1021 1619 l 1
 897 1619 l 1
 719 1840 l 1
 541 1619 l 1
 420 1619 l 1
EndSplineSet
EndChar

StartChar: breve
Encoding: 296 728 213
Width: 648
VWidth: 2088
Flags: W
HStem: 1230 111<204.9 433.601> 1455 20G<44 171 468 596>
VStem: 44 127<1374.25 1475> 468 128<1379.67 1475>
LayerCount: 2
Fore
SplineSet
319 1230 m 0
 183 1230 44 1312 44 1475 c 1
 171 1475 l 1
 171 1385 239 1341 319 1341 c 0
 399 1341 468 1385 468 1475 c 1
 596 1475 l 1
 596 1312 455 1230 319 1230 c 0
EndSplineSet
EndChar

StartChar: dotaccent
Encoding: 297 729 214
Width: 540
VWidth: 2088
Flags: W
HStem: 1270 167<177 335>
VStem: 177 158<1270 1437>
LayerCount: 2
Fore
SplineSet
335 1270 m 1
 177 1270 l 1
 177 1437 l 1
 335 1437 l 1
 335 1270 l 1
EndSplineSet
EndChar

StartChar: hungarumlaut
Encoding: 298 733 215
Width: 962
VWidth: 2088
Flags: W
HStem: 1192 319
VStem: 165 644
LayerCount: 2
Fore
SplineSet
550 1511 m 1
 275 1192 l 1
 165 1192 l 1
 382 1511 l 1
 550 1511 l 1
809 1511 m 1
 534 1192 l 1
 422 1192 l 1
 644 1511 l 1
 809 1511 l 1
EndSplineSet
EndChar

StartChar: ogonek
Encoding: 299 731 216
Width: 524
VWidth: 2088
Flags: W
HStem: -397 110<196.191 427.79>
VStem: 46 136<-272.568 -117.655>
LayerCount: 2
Fore
SplineSet
279 -287 m 0
 337 -287 376 -275 430 -255 c 1
 430 -367 l 1
 390 -383 315 -397 257 -397 c 0
 138 -397 46 -338 46 -230 c 0
 46 -126 149 -42 255 12 c 1
 380 0 l 1
 267 -73 182 -139 182 -203 c 0
 182 -253 233 -287 279 -287 c 0
EndSplineSet
EndChar

StartChar: caron
Encoding: 300 711 217
Width: 682
VWidth: 2088
Flags: W
HStem: 1188 329
VStem: 28 622
LayerCount: 2
Fore
SplineSet
265 1188 m 1
 28 1517 l 1
 169 1517 l 1
 333 1297 l 1
 499 1517 l 1
 650 1517 l 1
 411 1188 l 1
 265 1188 l 1
EndSplineSet
EndChar

StartChar: uni00AF
Encoding: 175 175 218
Width: 822
VWidth: 2088
Flags: W
HStem: 1408 131<-2 827>
LayerCount: 2
Fore
SplineSet
827 1539 m 1
 827 1408 l 1
 -2 1408 l 1
 -2 1539 l 1
 827 1539 l 1
EndSplineSet
EndChar

StartChar: Omega
Encoding: 301 937 219
Width: 1551
VWidth: 2088
Flags: W
HStem: 0 140<100 422 1120 1429> 1335 144<577.74 976.799>
VStem: 111 174<519.259 1021.46> 1262 173<524.726 1017.79>
LayerCount: 2
Fore
SplineSet
100 0 m 1
 90 140 l 1
 422 140 l 1
 238 282 111 507 111 792 c 0
 111 1210 396 1479 783 1479 c 0
 1184 1479 1435 1180 1435 787 c 0
 1435 496 1283 276 1120 140 c 1
 1437 140 l 1
 1429 0 l 1
 923 0 l 1
 919 123 l 1
 1118 263 1262 494 1262 769 c 0
 1262 1072 1098 1335 779 1335 c 0
 486 1335 285 1108 285 775 c 0
 285 500 419 261 622 123 c 1
 624 0 l 1
 100 0 l 1
EndSplineSet
EndChar

StartChar: pi
Encoding: 302 960 220
Width: 1246
VWidth: 2088
Flags: W
HStem: -8 158<993.368 1145.41> 925 136<67.9816 301 463.277 825 977 1176>
VStem: 301 165<448.077 925> 825 152<164.558 925>
LayerCount: 2
Fore
SplineSet
1176 1061 m 1
 1176 925 l 1
 977 925 l 1
 977 295 l 2
 977 235 980 150 1074 150 c 0
 1094 150 1119 155 1151 163 c 1
 1151 143 1146 122 1146 102 c 0
 1146 70 1152 40 1162 6 c 1
 1112 -2 1066 -8 1028 -8 c 0
 875 -8 825 74 825 285 c 2
 825 925 l 1
 466 925 l 1
 466 925 420 173 330 0 c 1
 167 0 l 1
 263 180 293 628 301 925 c 1
 184 923 105 903 34 863 c 1
 16 997 l 1
 80 1049 184 1061 357 1061 c 2
 1176 1061 l 1
EndSplineSet
EndChar

StartChar: uni2206
Encoding: 303 8710 221
Width: 1271
VWidth: 2088
Flags: W
HStem: 0 165<261 1001>
LayerCount: 2
Fore
SplineSet
1224 82 m 1
 1224 0 l 1
 40 0 l 1
 40 82 l 1
 543 1459 l 1
 721 1459 l 1
 1224 82 l 1
261 165 m 1
 1001 165 l 1
 660 1132 l 1
 626 1243 l 1
 596 1132 l 1
 261 165 l 1
EndSplineSet
EndChar

StartChar: Eth
Encoding: 208 208 223
Width: 1487
VWidth: 2088
Flags: W
HStem: 0 150<353 869.957> 670 141<0 186 353 554> 1335 150<353 861.69>
VStem: 186 167<150 670 811 1335> 1210 175<486.421 1009.73>
LayerCount: 2
Fore
SplineSet
186 0 m 1
 186 670 l 1
 0 670 l 1
 0 811 l 1
 186 811 l 1
 186 1485 l 1
 491 1485 l 2
 997 1485 1385 1316 1385 740 c 0
 1385 289 1091 0 592 0 c 2
 186 0 l 1
554 670 m 1
 353 670 l 1
 353 150 l 1
 606 150 l 2
 1017 150 1210 394 1210 735 c 0
 1210 1182 970 1335 512 1335 c 2
 353 1335 l 1
 353 811 l 1
 554 811 l 1
 554 670 l 1
EndSplineSet
EndChar

StartChar: multiply
Encoding: 215 215 224
Width: 1411
VWidth: 2088
Flags: W
LayerCount: 2
Fore
SplineSet
1088 867 m 1
 800 566 l 1
 1088 263 l 1
 986 157 l 1
 700 460 l 1
 411 157 l 1
 311 261 l 1
 600 566 l 1
 311 869 l 1
 411 973 l 1
 700 670 l 1
 986 973 l 1
 1088 867 l 1
EndSplineSet
EndChar

StartChar: yacute
Encoding: 253 253 226
Width: 1058
VWidth: 2088
Flags: W
HStem: -393 161<108 324.619> 1020 20G<26 237.527 827.789 1036>
LayerCount: 2
Fore
SplineSet
539 219 m 1
 835 1040 l 1
 1036 1040 l 1
 642 20 l 1
 600 -199 499 -393 108 -393 c 1
 108 -232 l 1
 375 -232 441 -112 449 28 c 1
 26 1040 l 1
 230 1040 l 1
 539 219 l 1
842 1519 m 1
 528 1200 l 1
 387 1200 l 1
 610 1519 l 1
 842 1519 l 1
EndSplineSet
EndChar

StartChar: Lslash
Encoding: 304 321 227
Width: 1083
VWidth: 2088
Flags: W
HStem: 0 150<361 1040> 1027 20G<609 640> 1465 20G<197 361>
VStem: 197 164<150 616 867 1485>
LayerCount: 2
Fore
SplineSet
1040 150 m 1
 1040 0 l 1
 197 0 l 1
 197 616 l 1
 14 499 l 1
 14 640 l 1
 197 756 l 1
 197 1485 l 1
 361 1485 l 1
 361 867 l 1
 640 1047 l 1
 640 909 l 1
 361 727 l 1
 361 150 l 1
 1040 150 l 1
EndSplineSet
EndChar

StartChar: lslash
Encoding: 305 322 228
Width: 486
VWidth: 2088
Flags: W
HStem: 0 21G<163 321> 1027 20G<456.059 489>
VStem: 163 158<0 702 945 1523>
LayerCount: 2
Fore
SplineSet
163 1523 m 1
 321 1523 l 1
 321 945 l 1
 489 1047 l 1
 489 909 l 1
 321 804 l 1
 321 0 l 1
 163 0 l 1
 163 702 l 1
 0 602 l 1
 0 740 l 1
 163 842 l 1
 163 1523 l 1
EndSplineSet
EndChar

StartChar: zcaron
Encoding: 307 382 230
Width: 927
VWidth: 2088
Flags: W
HStem: 0 146<273 875> 895 145<67 630>
LayerCount: 2
Fore
SplineSet
630 895 m 1
 67 895 l 1
 67 1040 l 1
 859 1040 l 1
 859 913 l 1
 273 146 l 1
 875 146 l 1
 875 0 l 1
 42 0 l 1
 42 132 l 1
 630 895 l 1
387 1188 m 1
 148 1517 l 1
 291 1517 l 1
 453 1297 l 1
 620 1517 l 1
 769 1517 l 1
 530 1188 l 1
 387 1188 l 1
EndSplineSet
EndChar

StartChar: eth
Encoding: 240 240 231
Width: 1136
VWidth: 2088
Flags: W
HStem: -23 161<416.103 757.302> 765 154<406.999 726.23>
VStem: 69 200<284.577 625.774> 899 189<280.772 617.729>
LayerCount: 2
Fore
SplineSet
526 919 m 0
 599 919 700 893 758 859 c 1
 495 1178 l 1
 269 1084 l 1
 223 1214 l 1
 403 1289 l 1
 227 1504 l 1
 466 1504 l 1
 576 1362 l 1
 825 1467 l 1
 871 1339 l 1
 666 1252 l 1
 957 895 1088 733 1088 466 c 0
 1088 187 899 -23 580 -23 c 0
 271 -23 69 191 69 460 c 0
 69 739 263 919 526 919 c 0
899 447 m 0
 899 620 787 765 580 765 c 0
 379 765 269 633 269 449 c 0
 269 276 394 138 586 138 c 0
 778 138 899 272 899 447 c 0
EndSplineSet
EndChar

StartChar: scaron
Encoding: 308 353 232
Width: 985
VWidth: 2088
Flags: W
HStem: -23 153<260.334 648.761> 913 152<344.821 715.162>
VStem: 117 186<676.186 870.334> 692 183<172.479 374.345>
LayerCount: 2
Fore
SplineSet
157 238 m 1
 232 171 352 130 484 130 c 0
 622 130 692 175 692 279 c 0
 692 350 639 405 516 439 c 2
 407 468 l 2
 248 512 117 585 117 767 c 0
 117 964 290 1065 491 1065 c 0
 625 1065 733 1035 821 977 c 1
 771 839 l 1
 707 881 610 913 497 913 c 0
 391 913 303 875 303 777 c 0
 303 693 339 664 460 630 c 2
 586 596 l 2
 755 550 875 479 875 295 c 0
 875 86 716 -23 497 -23 c 0
 340 -23 192 17 104 92 c 1
 157 238 l 1
426 1188 m 1
 188 1517 l 1
 330 1517 l 1
 493 1297 l 1
 660 1517 l 1
 809 1517 l 1
 570 1188 l 1
 426 1188 l 1
EndSplineSet
EndChar

StartChar: mu
Encoding: 310 956 234
Width: 1129
VWidth: 2088
Flags: W
HStem: -23 155<426.625 706.172> 1020 20G<134 321 809 997>
VStem: 134 187<242.378 1040> 134 161<-207 92> 809 188<244.716 1040>
LayerCount: 2
Fore
SplineSet
566 -23 m 0xe8
 470 -23 362 6 295 92 c 1
 295 -207 l 1
 134 -207 l 1xd8
 134 1040 l 1
 321 1040 l 1
 321 397 l 2
 321 224 443 132 566 132 c 0
 689 132 809 224 809 397 c 2
 809 1040 l 1
 997 1040 l 1
 997 399 l 2
 997 117 783 -23 566 -23 c 0xe8
EndSplineSet
EndChar

StartChar: thorn
Encoding: 254 254 235
Width: 1221
VWidth: 2088
Flags: W
HStem: -435 21G<159 347> -23 155<500.585 812.788> 913 152<493.389 809.172>
VStem: 159 188<-435 153 287.965 756.396 903 1519> 955 191<296.729 748.625>
LayerCount: 2
Fore
SplineSet
347 -435 m 1
 159 -435 l 1
 159 1252 l 2
 159 1280 153 1519 153 1519 c 1
 347 1519 l 1
 347 903 l 1
 429 1009 539 1065 681 1065 c 0
 994 1065 1146 811 1146 510 c 0
 1146 233 1019 -23 700 -23 c 0
 554 -23 427 34 347 153 c 1
 347 -435 l 1
343 522 m 0
 343 305 437 132 662 132 c 0
 883 132 955 340 955 522 c 0
 955 704 883 913 662 913 c 0
 437 913 343 739 343 522 c 0
EndSplineSet
EndChar

StartChar: Thorn
Encoding: 222 222 236
Width: 1248
VWidth: 2088
Flags: W
HStem: 0 21G<175 355> 353 157<355 881.015> 1057 161<355 889.66> 1455 20G<175 355>
VStem: 175 180<0 353 510 1057 1218 1475> 1024 186<638.553 934.947>
LayerCount: 2
Fore
SplineSet
175 0 m 1
 175 1475 l 1
 355 1475 l 1
 355 1218 l 1
 654 1218 l 2
 977 1218 1210 1084 1210 785 c 0
 1210 528 990 353 679 353 c 2
 355 353 l 1
 355 0 l 1
 175 0 l 1
355 1057 m 1
 355 510 l 1
 696 510 l 2
 897 510 1024 624 1024 783 c 0
 1024 967 889 1057 672 1057 c 2
 355 1057 l 1
EndSplineSet
EndChar

StartChar: brokenbar
Encoding: 166 166 237
Width: 482
VWidth: 2088
Flags: W
VStem: 155 166<-285 321 913 1519>
LayerCount: 2
Fore
SplineSet
321 1519 m 1
 321 913 l 1
 155 913 l 1
 155 1519 l 1
 321 1519 l 1
321 321 m 1
 321 -285 l 1
 155 -285 l 1
 155 321 l 1
 321 321 l 1
EndSplineSet
EndChar

StartChar: periodcentered
Encoding: 311 -1 238
Width: 427
VWidth: 2088
Flags: W
HStem: 522 215<73 285>
VStem: 73 212<522 737>
LayerCount: 2
Fore
SplineSet
285 737 m 1
 285 522 l 1
 73 522 l 1
 73 737 l 1
 285 737 l 1
EndSplineSet
EndChar

StartChar: minus
Encoding: 312 8722 239
Width: 1411
VWidth: 2088
Flags: W
HStem: 506 140<192 1208>
LayerCount: 2
Fore
SplineSet
192 646 m 1
 1208 646 l 1
 1208 506 l 1
 192 506 l 1
 192 646 l 1
EndSplineSet
EndChar

StartChar: uni030F
Encoding: 313 783 240
Width: 962
VWidth: 2088
Flags: W
HStem: 1192 319
LayerCount: 2
Fore
SplineSet
430 1192 m 1
 155 1511 l 1
 321 1511 l 1
 543 1192 l 1
 430 1192 l 1
725 1192 m 1
 453 1511 l 1
 620 1511 l 1
 837 1192 l 1
 725 1192 l 1
EndSplineSet
EndChar

StartChar: uni0326
Encoding: 314 806 241
Width: 522
VWidth: 2088
Flags: W
HStem: -638 473<177 203>
VStem: 75 284
LayerCount: 2
Fore
SplineSet
75 -638 m 1
 177 -165 l 1
 359 -165 l 1
 203 -638 l 1
 75 -638 l 1
EndSplineSet
EndChar

StartChar: uni0311
Encoding: 315 785 242
Width: 648
VWidth: 2088
Flags: W
HStem: 1364 111<204.9 433.601>
VStem: 44 127<1230 1330.75> 468 128<1230 1325.33>
LayerCount: 2
Fore
SplineSet
319 1475 m 0
 455 1475 596 1393 596 1230 c 1
 468 1230 l 1
 468 1320 399 1364 319 1364 c 0
 239 1364 171 1320 171 1230 c 1
 44 1230 l 1
 44 1393 183 1475 319 1475 c 0
EndSplineSet
EndChar

StartChar: uni0218
Encoding: 316 536 243
Width: 1100
VWidth: 2088
Flags: W
HStem: -23 148<340.956 783.795> 1354 150<436.08 867.27>
VStem: 134 175<1004.03 1245.35> 911 175<240.412 488.32>
LayerCount: 2
Fore
SplineSet
134 1112 m 0
 134 1373 393 1504 642 1504 c 0
 786 1504 950 1469 1034 1358 c 1
 1008 1318 985 1281 959 1243 c 1
 879 1329 753 1354 642 1354 c 0
 489 1354 309 1291 309 1122 c 0
 309 777 1086 837 1086 365 c 0
 1086 78 802 -23 543 -23 c 0
 355 -23 207 55 132 157 c 1
 201 269 l 1
 289 165 439 125 564 125 c 0
 769 125 911 212 911 367 c 0
 911 718 134 636 134 1112 c 0
426 -638 m 1
 528 -165 l 1
 710 -165 l 1
 554 -638 l 1
 426 -638 l 1
EndSplineSet
EndChar

StartChar: uni0219
Encoding: 317 537 244
Width: 703
VWidth: 2088
Flags: W
HStem: -23 153<245.765 634.21> 913 152<330.985 700.82>
VStem: 102 187<675.23 870.334> 677 186<172.479 374.345>
LayerCount: 2
Fore
SplineSet
90 92 m 1
 142 238 l 1
 217 171 338 130 470 130 c 0
 608 130 677 175 677 279 c 0
 677 350 625 405 502 439 c 2
 393 468 l 2
 234 512 102 585 102 767 c 0
 102 964 277 1065 478 1065 c 0
 612 1065 719 1035 807 977 c 1
 756 839 l 1
 692 881 595 913 482 913 c 0
 376 913 289 875 289 777 c 0
 289 693 324 664 445 630 c 2
 572 596 l 2
 741 550 863 479 863 295 c 0
 863 86 701 -23 482 -23 c 0
 325 -23 178 17 90 92 c 1
211 -638 m 1
 313 -165 l 1
 495 -165 l 1
 337 -638 l 1
 211 -638 l 1
EndSplineSet
EndChar

StartChar: uni021A
Encoding: 318 538 245
Width: 1123
VWidth: 2088
Flags: W
HStem: 0 21G<478 644> 1329 148<28 478 644 1101>
VStem: 478 166<0 1329>
LayerCount: 2
Fore
SplineSet
28 1329 m 1
 28 1477 l 1
 1101 1477 l 1
 1101 1329 l 1
 644 1329 l 1
 644 0 l 1
 478 0 l 1
 478 1329 l 1
 28 1329 l 1
426 -638 m 1
 528 -165 l 1
 710 -165 l 1
 554 -638 l 1
 426 -638 l 1
EndSplineSet
EndChar

StartChar: uni021B
Encoding: 319 539 246
Width: 699
VWidth: 2088
Flags: W
HStem: -2 130<434.158 644> 933 107<36 238 397 642>
VStem: 238 159<166.193 933 1040 1310>
LayerCount: 2
Fore
SplineSet
36 933 m 1
 36 1040 l 1
 241 1040 l 1
 241 1310 l 1
 397 1362 l 1
 397 1040 l 1
 642 1040 l 1
 642 933 l 1
 397 933 l 1
 397 411 l 2
 397 363 395 327 395 291 c 0
 395 163 421 130 646 128 c 1
 644 -2 l 1
 214 12 238 124 238 445 c 2
 238 933 l 1
 36 933 l 1
211 -638 m 1
 313 -165 l 1
 495 -165 l 1
 337 -638 l 1
 211 -638 l 1
EndSplineSet
EndChar

StartChar: uni0200
Encoding: 320 512 247
Width: 1380
VWidth: 2088
Flags: W
HStem: 0 21G<16 235 1083.18 1291> 478 160<432 873> 1455 20G<546.705 761.281>
LayerCount: 2
Fore
SplineSet
16 0 m 1
 554 1475 l 1
 754 1475 l 1
 1291 0 l 1
 1090 0 l 1
 927 478 l 1
 378 478 l 1
 321 315 l 2
 285 213 253 102 217 0 c 1
 16 0 l 1
873 638 m 1
 656 1270 l 1
 432 638 l 1
 873 638 l 1
580 1621 m 1
 305 1936 l 1
 472 1936 l 1
 694 1621 l 1
 580 1621 l 1
875 1621 m 1
 604 1936 l 1
 771 1936 l 1
 990 1621 l 1
 875 1621 l 1
EndSplineSet
EndChar

StartChar: uni0201
Encoding: 321 513 248
Width: 1085
VWidth: 2088
Flags: W
HStem: -23 144<337.723 688.32> 0 21G<809.069 953> 435 131<385.533 765> 913 152<316.282 714.359>
VStem: 121 184<155.942 368.441> 765 188<164.066 435 566 860.236>
LayerCount: 2
Fore
SplineSet
817 0 m 1x7c
 794 58 l 1
 631 -2 529 -23 435 -23 c 0xbc
 270 -23 121 71 121 263 c 0
 121 578 500 566 765 566 c 1
 765 740 l 2
 765 859 698 913 568 913 c 0
 443 913 321 881 227 829 c 1
 188 982 l 1
 276 1026 426 1065 564 1065 c 0
 767 1065 953 995 953 763 c 2
 953 0 l 1
 817 0 l 1x7c
765 175 m 1
 765 435 l 1
 454 435 305 411 305 269 c 0
 305 165 369 121 451 121 c 0
 568 121 648 145 765 175 c 1
493 1186 m 1
 217 1504 l 1
 385 1504 l 1
 606 1186 l 1
 493 1186 l 1
787 1186 m 1
 516 1504 l 1
 683 1504 l 1
 903 1186 l 1
 787 1186 l 1
EndSplineSet
EndChar

StartChar: uni0202
Encoding: 322 514 249
Width: 1380
VWidth: 2088
Flags: W
HStem: 0 21G<16 235 1083.18 1291> 478 160<432 873> 1455 20G<546.705 761.281> 1790 111<537.996 766.716>
VStem: 378 126<1656 1756.75> 802 125<1656 1751.33>
LayerCount: 2
Fore
SplineSet
16 0 m 1
 554 1475 l 1
 754 1475 l 1
 1291 0 l 1
 1090 0 l 1
 927 478 l 1
 378 478 l 1
 321 315 l 2
 285 213 253 102 217 0 c 1
 16 0 l 1
873 638 m 1
 656 1270 l 1
 432 638 l 1
 873 638 l 1
652 1901 m 0
 788 1901 927 1819 927 1656 c 1
 802 1656 l 1
 802 1746 732 1790 652 1790 c 0
 572 1790 504 1746 504 1656 c 1
 378 1656 l 1
 378 1819 516 1901 652 1901 c 0
EndSplineSet
EndChar

StartChar: uni0203
Encoding: 323 515 250
Width: 1085
VWidth: 2088
Flags: W
HStem: -23 144<337.723 688.32> 0 21G<809.069 953> 435 131<385.533 765> 913 152<316.282 714.359> 1358 111<451.284 679.907>
VStem: 121 184<155.942 368.441> 291 125<1224 1319.33> 714 125<1224 1324.75> 765 188<164.066 435 566 860.236>
LayerCount: 2
Fore
SplineSet
817 0 m 1x7c80
 794 58 l 1
 631 -2 529 -23 435 -23 c 0xbc80
 270 -23 121 71 121 263 c 0
 121 578 500 566 765 566 c 1
 765 740 l 2
 765 859 698 913 568 913 c 0
 443 913 321 881 227 829 c 1
 188 982 l 1
 276 1026 426 1065 564 1065 c 0
 767 1065 953 995 953 763 c 2
 953 0 l 1
 817 0 l 1x7c80
765 175 m 1
 765 435 l 1
 454 435 305 411 305 269 c 0
 305 165 369 121 451 121 c 0
 568 121 648 145 765 175 c 1
566 1469 m 0
 702 1469 839 1387 839 1224 c 1
 714 1224 l 1
 714 1314 646 1358 566 1358 c 0
 486 1358 416 1314 416 1224 c 1
 291 1224 l 1x3b
 291 1387 430 1469 566 1469 c 0
EndSplineSet
EndChar

StartChar: uni0204
Encoding: 324 516 251
Width: 1180
VWidth: 2088
Flags: W
HStem: 0 161<369 1061> 690 161<369 1001> 1312 163<369 1030>
VStem: 175 194<161 690 851 1312>
LayerCount: 2
Fore
SplineSet
1001 851 m 1
 1001 690 l 1
 369 690 l 1
 369 161 l 1
 1076 161 l 1
 1061 0 l 1
 175 0 l 1
 175 1475 l 1
 1044 1475 l 1
 1030 1312 l 1
 369 1312 l 1
 369 851 l 1
 1001 851 l 1
550 1621 m 1
 275 1936 l 1
 441 1936 l 1
 662 1621 l 1
 550 1621 l 1
846 1621 m 1
 572 1936 l 1
 740 1936 l 1
 959 1621 l 1
 846 1621 l 1
EndSplineSet
EndChar

StartChar: uni0205
Encoding: 325 517 252
Width: 1116
VWidth: 2088
Flags: W
HStem: -23 153<423.025 779.859> 484 128<271 829> 915 150<418.434 704.916>
VStem: 78 187<302.266 484 612 743.953>
LayerCount: 2
Fore
SplineSet
891 257 m 1
 980 138 l 1
 882 30 739 -23 566 -23 c 0
 275 -23 78 203 78 522 c 0
 78 847 283 1065 568 1065 c 0
 819 1065 1009 869 1009 546 c 0
 1009 530 1007 502 1007 484 c 1
 265 484 l 1
 275 271 394 130 584 130 c 0
 701 130 818 173 891 257 c 1
570 915 m 0
 417 915 294 800 271 612 c 1
 829 612 l 1
 817 798 716 915 570 915 c 0
520 1192 m 1
 247 1511 l 1
 411 1511 l 1
 633 1192 l 1
 520 1192 l 1
817 1192 m 1
 543 1511 l 1
 710 1511 l 1
 929 1192 l 1
 817 1192 l 1
EndSplineSet
EndChar

StartChar: uni0206
Encoding: 326 518 253
Width: 1180
VWidth: 2088
Flags: W
HStem: 0 161<369 1061> 690 161<369 1001> 1312 163<369 1030> 1790 111<507.9 736.601>
VStem: 175 194<161 690 851 1312> 347 127<1656 1756.75> 771 128<1656 1751.33>
LayerCount: 2
Fore
SplineSet
1001 851 m 1xfa
 1001 690 l 1
 369 690 l 1
 369 161 l 1
 1076 161 l 1
 1061 0 l 1
 175 0 l 1
 175 1475 l 1
 1044 1475 l 1
 1030 1312 l 1
 369 1312 l 1
 369 851 l 1
 1001 851 l 1xfa
622 1901 m 0
 758 1901 899 1819 899 1656 c 1
 771 1656 l 1
 771 1746 702 1790 622 1790 c 0
 542 1790 474 1746 474 1656 c 1
 347 1656 l 1xf6
 347 1819 486 1901 622 1901 c 0
EndSplineSet
EndChar

StartChar: uni0207
Encoding: 327 519 254
Width: 1116
VWidth: 2088
Flags: W
HStem: -23 153<423.025 779.859> 484 128<271 829> 915 150<418.434 704.916> 1364 111<478.783 708.1>
VStem: 78 187<302.266 484 612 743.953> 317 126<1230 1325.33> 742 127<1230 1330.75>
LayerCount: 2
Fore
SplineSet
891 257 m 1
 980 138 l 1
 882 30 739 -23 566 -23 c 0
 275 -23 78 203 78 522 c 0
 78 847 283 1065 568 1065 c 0
 819 1065 1009 869 1009 546 c 0
 1009 530 1007 502 1007 484 c 1
 265 484 l 1
 275 271 394 130 584 130 c 0
 701 130 818 173 891 257 c 1
570 915 m 0
 417 915 294 800 271 612 c 1
 829 612 l 1
 817 798 716 915 570 915 c 0
594 1475 m 0
 730 1475 869 1393 869 1230 c 1
 742 1230 l 1
 742 1320 674 1364 594 1364 c 0
 514 1364 443 1320 443 1230 c 1
 317 1230 l 1
 317 1393 458 1475 594 1475 c 0
EndSplineSet
EndChar

StartChar: uni0208
Encoding: 328 520 255
Width: 568
VWidth: 2088
Flags: W
HStem: 0 21G<188 385> 1455 20G<188 385>
VStem: 188 197<0 1475>
LayerCount: 2
Fore
SplineSet
385 1475 m 1
 385 0 l 1
 188 0 l 1
 188 1475 l 1
 385 1475 l 1
213 1621 m 1
 -62 1936 l 1
 104 1936 l 1
 325 1621 l 1
 213 1621 l 1
508 1621 m 1
 236 1936 l 1
 403 1936 l 1
 620 1621 l 1
 508 1621 l 1
EndSplineSet
EndChar

StartChar: uni0209
Encoding: 329 521 256
Width: 484
VWidth: 2088
Flags: W
HStem: 0 21G<161 321> 1020 20G<161 321>
VStem: 161 160<0 1040>
LayerCount: 2
Fore
SplineSet
321 1040 m 1
 321 0 l 1
 161 0 l 1
 161 1040 l 1
 321 1040 l 1
175 1192 m 1
 -98 1511 l 1
 69 1511 l 1
 291 1192 l 1
 175 1192 l 1
472 1192 m 1
 201 1511 l 1
 367 1511 l 1
 584 1192 l 1
 472 1192 l 1
EndSplineSet
EndChar

StartChar: uni020A
Encoding: 330 522 257
Width: 568
VWidth: 2088
Flags: W
HStem: 0 21G<188 385> 1455 20G<188 385> 1790 111<170.399 399.716>
VStem: 8 128<1656 1751.33> 188 197<0 1475> 435 125<1656 1751.33>
LayerCount: 2
Fore
SplineSet
385 1475 m 1
 385 0 l 1
 188 0 l 1
 188 1475 l 1
 385 1475 l 1
285 1901 m 0
 421 1901 560 1819 560 1656 c 1
 435 1656 l 1
 435 1746 365 1790 285 1790 c 0
 205 1790 136 1746 136 1656 c 1
 8 1656 l 1
 8 1819 149 1901 285 1901 c 0
EndSplineSet
EndChar

StartChar: uni020B
Encoding: 331 523 258
Width: 482
VWidth: 2088
Flags: W
HStem: 0 21G<161 321> 1020 20G<161 321> 1364 111<138.496 367.1>
VStem: -23 127<1230 1325.33> 161 160<0 1040> 401 127<1230 1330.75>
LayerCount: 2
Fore
SplineSet
321 1040 m 1
 321 0 l 1
 161 0 l 1
 161 1040 l 1
 321 1040 l 1
253 1475 m 0
 389 1475 528 1393 528 1230 c 1
 401 1230 l 1
 401 1320 333 1364 253 1364 c 0
 173 1364 104 1320 104 1230 c 1
 -23 1230 l 1
 -23 1393 117 1475 253 1475 c 0
EndSplineSet
EndChar

StartChar: uni020C
Encoding: 332 524 259
Width: 1607
VWidth: 2088
Flags: W
HStem: -23 167<592.341 1015.91> 1335 167<595.406 1012.84>
VStem: 92 211<467.369 1016.05> 1308 209<467.369 1006.92>
LayerCount: 2
Fore
SplineSet
804 -23 m 0
 357 -23 92 294 92 737 c 0
 92 1203 372 1502 804 1502 c 0
 1236 1502 1517 1203 1517 737 c 0
 1517 294 1251 -23 804 -23 c 0
804 1335 m 0
 467 1335 303 1074 303 744 c 0
 303 407 465 144 804 144 c 0
 1143 144 1308 407 1308 744 c 0
 1308 1074 1141 1335 804 1335 c 0
731 1621 m 1
 458 1936 l 1
 622 1936 l 1
 844 1621 l 1
 731 1621 l 1
1028 1621 m 1
 754 1936 l 1
 921 1936 l 1
 1140 1621 l 1
 1028 1621 l 1
EndSplineSet
EndChar

StartChar: uni020D
Encoding: 333 525 260
Width: 1198
VWidth: 2088
Flags: W
HStem: -23 153<439.591 769.33> 911 154<444.89 772.553>
VStem: 78 191<316.41 719.333> 931 193<309.63 733.185>
LayerCount: 2
Fore
SplineSet
1124 520 m 0
 1124 231 941 -23 604 -23 c 0
 263 -23 78 221 78 518 c 0
 78 815 267 1065 608 1065 c 0
 953 1065 1124 819 1124 520 c 0
931 518 m 0
 931 729 834 911 604 911 c 0
 385 911 269 719 269 516 c 0
 269 313 383 130 608 130 c 0
 831 130 931 315 931 518 c 0
516 1192 m 1
 241 1511 l 1
 407 1511 l 1
 628 1192 l 1
 516 1192 l 1
811 1192 m 1
 539 1511 l 1
 706 1511 l 1
 923 1192 l 1
 811 1192 l 1
EndSplineSet
EndChar

StartChar: uni020E
Encoding: 334 526 261
Width: 1607
VWidth: 2088
Flags: W
HStem: -23 167<592.341 1015.91> 1335 167<595.406 1012.84> 1790 111<689.187 918.505>
VStem: 92 211<467.369 1016.05> 528 126<1656 1751.33> 953 127<1656 1751.33> 1308 209<467.369 1006.92>
LayerCount: 2
Fore
SplineSet
804 -23 m 0
 357 -23 92 294 92 737 c 0
 92 1203 372 1502 804 1502 c 0
 1236 1502 1517 1203 1517 737 c 0
 1517 294 1251 -23 804 -23 c 0
804 1335 m 0
 467 1335 303 1074 303 744 c 0
 303 407 465 144 804 144 c 0
 1143 144 1308 407 1308 744 c 0
 1308 1074 1141 1335 804 1335 c 0
804 1901 m 0
 940 1901 1080 1819 1080 1656 c 1
 953 1656 l 1
 953 1746 884 1790 804 1790 c 0
 724 1790 654 1746 654 1656 c 1
 528 1656 l 1
 528 1819 668 1901 804 1901 c 0
EndSplineSet
EndChar

StartChar: uni020F
Encoding: 335 527 262
Width: 1198
VWidth: 2088
Flags: W
HStem: -23 153<439.591 769.33> 911 154<444.89 772.553> 1364 111<472.208 701.217>
VStem: 78 191<316.41 719.333> 311 128<1230 1330.75> 737 126<1230 1325.33> 931 193<309.63 733.185>
LayerCount: 2
Fore
SplineSet
1124 520 m 0
 1124 231 941 -23 604 -23 c 0
 263 -23 78 221 78 518 c 0
 78 815 267 1065 608 1065 c 0
 953 1065 1124 819 1124 520 c 0
931 518 m 0
 931 729 834 911 604 911 c 0
 385 911 269 719 269 516 c 0
 269 313 383 130 608 130 c 0
 831 130 931 315 931 518 c 0
586 1475 m 0
 722 1475 863 1393 863 1230 c 1
 737 1230 l 1
 737 1320 666 1364 586 1364 c 0
 506 1364 439 1320 439 1230 c 1
 311 1230 l 1
 311 1393 450 1475 586 1475 c 0
EndSplineSet
EndChar

StartChar: uni0210
Encoding: 336 528 263
Width: 1349
VWidth: 2088
Flags: W
HStem: 0 21G<184 380 1079.11 1289> 652 161<380 767.028> 1314 161<380 929.181>
VStem: 184 196<0 652 813 1314> 1038 192<925.758 1219.57>
LayerCount: 2
Fore
SplineSet
1289 0 m 1
 1088 0 l 1
 891 443 l 2
 853 529 815 594 769 644 c 1
 727 650 680 652 628 652 c 2
 380 652 l 1
 380 0 l 1
 184 0 l 1
 184 1475 l 1
 644 1475 l 2
 953 1475 1230 1421 1230 1080 c 0
 1230 896 1132 746 925 698 c 1
 979 644 1036 584 1072 504 c 1
 1289 0 l 1
380 1314 m 1
 380 813 l 1
 681 813 l 2
 938 813 1038 909 1038 1076 c 0
 1038 1231 940 1314 723 1314 c 2
 380 1314 l 1
660 1621 m 1
 387 1936 l 1
 552 1936 l 1
 773 1621 l 1
 660 1621 l 1
957 1621 m 1
 683 1936 l 1
 851 1936 l 1
 1070 1621 l 1
 957 1621 l 1
EndSplineSet
EndChar

StartChar: uni0211
Encoding: 337 529 264
Width: 722
VWidth: 2088
Flags: W
HStem: 0 21G<155 343> 907 161<466.18 658> 1020 20G<153 314.42>
VStem: 153 160<871 1040> 155 188<0 779.478>
LayerCount: 2
Fore
SplineSet
658 1065 m 1xd0
 658 901 l 1
 642 905 624 907 604 907 c 0
 487 907 389 823 351 700 c 1
 343 660 343 616 343 572 c 2
 343 0 l 1
 155 0 l 1
 155 800 l 2xc8
 155 882 153 962 153 1040 c 1
 313 1040 l 1xb0
 325 871 l 1
 396 1005 499 1068 618 1068 c 0
 630 1068 646 1067 658 1065 c 1xd0
385 1192 m 1
 108 1511 l 1
 275 1511 l 1
 497 1192 l 1
 385 1192 l 1
679 1192 m 1
 407 1511 l 1
 574 1511 l 1
 792 1192 l 1
 679 1192 l 1
EndSplineSet
EndChar

StartChar: uni0212
Encoding: 338 530 265
Width: 1349
VWidth: 2088
Flags: W
HStem: 0 21G<184 380 1079.11 1289> 652 161<380 767.028> 1314 161<380 929.181> 1790 111<615.026 847.004>
VStem: 184 196<0 652 813 1314> 458 124<1656 1751.33> 881 126<1656 1756.75> 1038 192<925.758 1219.57>
LayerCount: 2
Fore
SplineSet
1289 0 m 1
 1088 0 l 1
 891 443 l 2
 853 529 815 594 769 644 c 1
 727 650 680 652 628 652 c 2
 380 652 l 1
 380 0 l 1
 184 0 l 1
 184 1475 l 1
 644 1475 l 2
 953 1475 1230 1421 1230 1080 c 0
 1230 896 1132 746 925 698 c 1
 979 644 1036 584 1072 504 c 1
 1289 0 l 1
380 1314 m 1
 380 813 l 1
 681 813 l 2
 938 813 1038 909 1038 1076 c 0
 1038 1231 940 1314 723 1314 c 2
 380 1314 l 1
733 1901 m 0
 869 1901 1007 1819 1007 1656 c 1
 881 1656 l 1
 881 1746 813 1790 733 1790 c 0
 653 1790 582 1746 582 1656 c 1
 458 1656 l 1
 458 1819 597 1901 733 1901 c 0
EndSplineSet
EndChar

StartChar: uni0213
Encoding: 339 531 266
Width: 722
VWidth: 2088
Flags: W
HStem: 0 21G<155 343> 907 161<466.18 658> 1020 20G<153 314.42> 1364 111<340.9 570.121>
VStem: 153 160<871 1040> 155 188<0 779.478> 180 127<1230 1330.75> 606 125<1230 1325.33>
LayerCount: 2
Fore
SplineSet
658 1065 m 1xd9
 658 901 l 1
 642 905 624 907 604 907 c 0
 487 907 389 823 351 700 c 1
 343 660 343 616 343 572 c 2
 343 0 l 1
 155 0 l 1
 155 800 l 2xd5
 155 882 153 962 153 1040 c 1
 313 1040 l 1xb9
 325 871 l 1
 396 1005 499 1068 618 1068 c 0
 630 1068 646 1067 658 1065 c 1xd9
455 1475 m 0
 591 1475 731 1393 731 1230 c 1
 606 1230 l 1
 606 1320 535 1364 455 1364 c 0
 375 1364 307 1320 307 1230 c 1
 180 1230 l 1x93
 180 1393 319 1475 455 1475 c 0
EndSplineSet
EndChar

StartChar: uni0214
Encoding: 340 532 267
Width: 1441
VWidth: 2088
Flags: W
HStem: -23 167<513.647 928.17> 1455 20G<167 361 1080 1274>
VStem: 167 194<302.918 1475> 1080 194<302.918 1475>
LayerCount: 2
Fore
SplineSet
721 -23 m 0
 307 -23 167 211 167 546 c 2
 167 1475 l 1
 361 1475 l 1
 361 552 l 2
 361 259 470 144 721 144 c 0
 972 144 1080 259 1080 552 c 2
 1080 1475 l 1
 1274 1475 l 1
 1274 546 l 2
 1274 211 1135 -23 721 -23 c 0
648 1621 m 1
 374 1936 l 1
 539 1936 l 1
 760 1621 l 1
 648 1621 l 1
945 1621 m 1
 670 1936 l 1
 837 1936 l 1
 1057 1621 l 1
 945 1621 l 1
EndSplineSet
EndChar

StartChar: uni0215
Encoding: 341 533 268
Width: 1129
VWidth: 2088
Flags: W
HStem: -23 155<425.406 706.172> 1020 20G<134 321 809 997>
VStem: 134 187<244.716 1040> 809 188<244.716 1040>
LayerCount: 2
Fore
SplineSet
566 -23 m 0
 349 -23 134 117 134 399 c 2
 134 1040 l 1
 321 1040 l 1
 321 397 l 2
 321 224 443 132 566 132 c 0
 689 132 809 224 809 397 c 2
 809 1040 l 1
 997 1040 l 1
 997 399 l 2
 997 117 783 -23 566 -23 c 0
532 1192 m 1
 259 1511 l 1
 424 1511 l 1
 646 1192 l 1
 532 1192 l 1
827 1192 m 1
 556 1511 l 1
 723 1511 l 1
 942 1192 l 1
 827 1192 l 1
EndSplineSet
EndChar

StartChar: uni0216
Encoding: 342 534 269
Width: 1441
VWidth: 2088
Flags: W
HStem: -23 167<513.647 928.17> 1455 20G<167 361 1080 1274> 1790 111<605.879 835.196>
VStem: 167 194<302.918 1475> 445 125<1656 1751.33> 869 128<1656 1756.75> 1080 194<302.918 1475>
LayerCount: 2
Fore
SplineSet
721 -23 m 0
 307 -23 167 211 167 546 c 2
 167 1475 l 1
 361 1475 l 1
 361 552 l 2
 361 259 470 144 721 144 c 0
 972 144 1080 259 1080 552 c 2
 1080 1475 l 1
 1274 1475 l 1
 1274 546 l 2
 1274 211 1135 -23 721 -23 c 0
721 1901 m 0
 857 1901 997 1819 997 1656 c 1
 869 1656 l 1
 869 1746 801 1790 721 1790 c 0
 641 1790 570 1746 570 1656 c 1
 445 1656 l 1
 445 1819 585 1901 721 1901 c 0
EndSplineSet
EndChar

StartChar: uni0217
Encoding: 343 535 270
Width: 1129
VWidth: 2088
Flags: W
HStem: -23 155<425.406 706.172> 1020 20G<134 321 809 997> 1364 111<490.879 719.907>
VStem: 134 187<244.716 1040> 330 125<1230 1325.33> 754 125<1230 1330.75> 809 188<244.716 1040>
LayerCount: 2
Fore
SplineSet
566 -23 m 0xfa
 349 -23 134 117 134 399 c 2
 134 1040 l 1
 321 1040 l 1
 321 397 l 2
 321 224 443 132 566 132 c 0
 689 132 809 224 809 397 c 2
 809 1040 l 1
 997 1040 l 1
 997 399 l 2
 997 117 783 -23 566 -23 c 0xfa
606 1475 m 0
 742 1475 879 1393 879 1230 c 1
 754 1230 l 1xfc
 754 1320 686 1364 606 1364 c 0
 526 1364 455 1320 455 1230 c 1
 330 1230 l 1
 330 1393 470 1475 606 1475 c 0
EndSplineSet
EndChar

StartChar: twosuperior
Encoding: 178 178 271
Width: 1150
VWidth: 2088
Flags: W
HStem: 616 121<451 802> 1349 120<426.523 655.656>
VStem: 679 125<1118.08 1322.98>
LayerCount: 2
Fore
SplineSet
802 616 m 1
 273 616 l 1
 273 729 l 1
 509 956 679 1121 679 1234 c 0
 679 1303 629 1349 543 1349 c 0
 461 1349 401 1300 363 1216 c 1
 282 1295 l 1
 326 1406 427 1469 550 1469 c 0
 694 1469 804 1378 804 1236 c 0
 804 1061 648 914 451 737 c 1
 802 737 l 1
 802 616 l 1
EndSplineSet
EndChar

StartChar: threesuperior
Encoding: 179 179 272
Width: 1152
VWidth: 2088
Flags: W
HStem: 598 116<331.414 586.378> 990 122<367 576.518> 1349 122<333.044 583.709>
VStem: 608 127<1146.45 1324.5> 630 126<756.634 951.436>
LayerCount: 2
Fore
SplineSet
285 1268 m 1xf0
 227 1366 l 1
 285 1426 380 1471 472 1471 c 0
 608 1471 735 1384 735 1236 c 0xf0
 735 1156 697 1091 630 1053 c 1
 708 1015 756 949 756 851 c 0
 756 694 623 598 466 598 c 0
 374 598 289 632 227 696 c 1
 287 794 l 1
 341 742 402 714 462 714 c 0
 554 714 630 767 630 855 c 0xe8
 630 955 552 990 422 990 c 0
 367 990 l 1
 367 1112 l 1
 416 1112 l 2
 527 1112 608 1142 608 1234 c 0
 608 1314 550 1349 470 1349 c 0
 401 1349 341 1316 285 1268 c 1xf0
EndSplineSet
EndChar

StartChar: onesuperior
Encoding: 185 185 273
Width: 1150
VWidth: 2088
Flags: W
HStem: 616 121<261 380 497 614>
VStem: 380 117<737 1297>
LayerCount: 2
Fore
SplineSet
232 1226 m 1
 232 1360 l 1
 299 1383 351 1409 395 1439 c 1
 497 1456 l 1
 497 735 l 1
 614 735 l 1
 614 616 l 1
 261 616 l 1
 261 737 l 1
 380 737 l 1
 380 1117 378 1197 378 1297 c 1
 336 1274 282 1246 232 1226 c 1
EndSplineSet
EndChar

StartChar: foursuperior
Encoding: 344 8308 274
Width: 868
VWidth: 2088
Flags: W
HStem: 819 108<113 343 464 568>
VStem: 345 117<626 819 927 1268>
LayerCount: 2
Fore
SplineSet
462 626 m 1
 345 626 l 1
 345 819 l 1
 -20 819 l 1
 -20 913 l 1
 333 1439 l 1
 464 1439 l 1
 464 927 l 1
 568 927 l 1
 578 819 l 1
 462 819 l 1
 462 626 l 1
113 927 m 1
 343 927 l 1
 343 1161 343 1214 345 1268 c 1
 113 927 l 1
EndSplineSet
EndChar

StartChar: onequarter
Encoding: 188 188 275
Width: 1921
VWidth: 2088
Flags: W
HStem: 0 21G<424 579.945> 227 112<1166 1395 1517 1621> 616 121<261 380 497 614>
VStem: 380 117<737 1297> 1397 118<38 227 339 679>
LayerCount: 2
Fore
SplineSet
232 1226 m 1
 232 1360 l 1
 299 1383 351 1409 395 1439 c 1
 497 1456 l 1
 497 735 l 1
 614 735 l 1
 614 616 l 1
 261 616 l 1
 261 737 l 1
 380 737 l 1
 380 1117 378 1197 378 1297 c 1
 336 1274 282 1246 232 1226 c 1
1302 1465 m 1
 1443 1465 l 1
 568 0 l 1
 424 0 l 1
 1302 1465 l 1
1515 38 m 1
 1397 38 l 1
 1397 227 l 1
 1032 227 l 1
 1032 321 l 1
 1385 851 l 1
 1517 851 l 1
 1517 339 l 1
 1621 339 l 1
 1631 227 l 1
 1515 227 l 1
 1515 38 l 1
1166 339 m 1
 1395 339 l 1
 1395 573 1395 625 1397 679 c 1
 1166 339 l 1
EndSplineSet
EndChar

StartChar: onehalf
Encoding: 189 189 276
Width: 1798
VWidth: 2088
Flags: W
HStem: -28 122<1208 1561> 0 21G<367 525.945> 616 121<261 380 497 614> 706 121<1186.44 1413.79>
VStem: 380 117<737 1297> 1437 124<477.77 681.967>
LayerCount: 2
Fore
SplineSet
232 1226 m 1x2c
 232 1360 l 1
 299 1383 351 1409 395 1439 c 1
 497 1456 l 1
 497 735 l 1
 614 735 l 1
 614 616 l 1
 261 616 l 1
 261 737 l 1
 380 737 l 1
 380 1117 378 1197 378 1297 c 1
 336 1274 282 1246 232 1226 c 1x2c
1245 1465 m 1
 1389 1465 l 1
 514 0 l 1
 367 0 l 1x4c
 1245 1465 l 1
1561 -28 m 1x9c
 1032 -28 l 1
 1032 88 l 1
 1268 315 1437 481 1437 594 c 0
 1437 663 1388 706 1302 706 c 0
 1220 706 1160 656 1122 572 c 1
 1038 652 l 1
 1082 763 1183 827 1306 827 c 0
 1450 827 1561 738 1561 596 c 0
 1561 421 1405 271 1208 94 c 1
 1561 94 l 1
 1561 -28 l 1x9c
EndSplineSet
EndChar

StartChar: threequarters
Encoding: 190 190 277
Width: 1860
VWidth: 2088
Flags: W
HStem: 0 21G<409 567.945> 232 111<1134 1364 1485 1590> 598 116<273.805 530.576> 990 122<313 520.834> 1349 122<277.43 529.026>
VStem: 552 129<1145.44 1325.3> 574 126<756.634 951.436> 1366 117<42 232 343 683>
LayerCount: 2
Fore
SplineSet
227 1268 m 1xfd
 173 1366 l 1
 231 1426 326 1471 418 1471 c 0
 554 1471 681 1384 681 1236 c 0xfd
 681 1156 643 1091 576 1053 c 1
 654 1015 700 949 700 851 c 0
 700 694 568 598 411 598 c 0
 319 598 235 632 173 696 c 1
 230 794 l 1
 284 742 345 714 405 714 c 0
 497 714 574 767 574 855 c 0xfb
 574 955 497 990 367 990 c 0
 313 990 l 1
 313 1112 l 1
 361 1112 l 2
 472 1112 552 1142 552 1234 c 0
 552 1314 496 1349 416 1349 c 0
 347 1349 283 1316 227 1268 c 1xfd
1287 1465 m 1
 1431 1465 l 1
 556 0 l 1
 409 0 l 1
 1287 1465 l 1
1483 42 m 1
 1366 42 l 1
 1366 232 l 1
 1001 232 l 1
 1001 325 l 1
 1354 855 l 1
 1485 855 l 1
 1485 343 l 1
 1590 343 l 1
 1600 232 l 1
 1483 232 l 1
 1483 42 l 1
1134 343 m 1
 1364 343 l 1
 1364 577 1364 629 1366 683 c 1
 1134 343 l 1
EndSplineSet
EndChar

StartChar: currency
Encoding: 164 164 278
Width: 1198
VWidth: 2088
Flags: W
HStem: 279 72<429.018 680.483> 999 73<411.481 671.951>
VStem: 182 89<490.144 857.986> 817 92<484.187 865.412>
LayerCount: 2
Fore
SplineSet
548 1072 m 0
 590 1072 628 1065 668 1055 c 1
 769 1326 l 1
 809 1310 l 1
 708 1038 l 1
 842 974 909 842 909 677 c 0
 909 541 854 412 756 343 c 1
 903 56 l 1
 869 42 l 1
 723 321 l 1
 671 293 612 279 543 279 c 0
 503 279 467 285 435 293 c 1
 343 42 l 1
 307 56 l 1
 397 307 l 1
 257 363 182 505 182 672 c 0
 182 825 242 962 359 1026 c 1
 215 1310 l 1
 253 1326 l 1
 397 1044 l 1
 441 1062 492 1072 548 1072 c 0
817 672 m 0
 817 847 731 999 543 999 c 0
 366 999 271 843 271 672 c 0
 271 501 366 351 548 351 c 0
 728 351 817 503 817 672 c 0
EndSplineSet
EndChar

StartChar: macron
Encoding: 345 -1 279
Width: 751
VWidth: 2088
Flags: W
HStem: 1208 135<78 630>
VStem: 78 552<1208 1343>
LayerCount: 2
Fore
SplineSet
630 1208 m 1
 78 1208 l 1
 78 1343 l 1
 630 1343 l 1
 630 1208 l 1
EndSplineSet
EndChar

StartChar: Emacron
Encoding: 347 274 281
Width: 1180
VWidth: 2088
Flags: W
HStem: 0 161<369 1061> 690 161<369 1001> 1312 163<369 1030> 1636 138<349 903>
VStem: 175 194<161 690 851 1312>
LayerCount: 2
Fore
SplineSet
1001 851 m 1
 1001 690 l 1
 369 690 l 1
 369 161 l 1
 1076 161 l 1
 1061 0 l 1
 175 0 l 1
 175 1475 l 1
 1044 1475 l 1
 1030 1312 l 1
 369 1312 l 1
 369 851 l 1
 1001 851 l 1
903 1636 m 1
 349 1636 l 1
 349 1774 l 1
 903 1774 l 1
 903 1636 l 1
EndSplineSet
EndChar

StartChar: Nacute
Encoding: 349 323 283
Width: 1517
VWidth: 2088
Flags: W
HStem: 0 21G<175 353 1118.94 1343> 1455 20G<175 395.058 1166 1343>
VStem: 175 178<0 1206> 1166 177<263 1475>
LayerCount: 2
Fore
SplineSet
1343 0 m 1
 1132 0 l 1
 439 1061 l 1
 353 1206 l 1
 353 0 l 1
 175 0 l 1
 175 1475 l 1
 382 1475 l 1
 1078 409 l 1
 1166 263 l 1
 1166 1475 l 1
 1343 1475 l 1
 1343 0 l 1
1072 1949 m 1
 758 1627 l 1
 616 1627 l 1
 839 1949 l 1
 1072 1949 l 1
EndSplineSet
EndChar

StartChar: Racute
Encoding: 350 340 284
Width: 1328
VWidth: 2088
Flags: W
HStem: 0 21G<234 428 1129.15 1339> 652 161<428 815.028> 1314 161<428 977.685>
VStem: 234 194<0 652 813 1314> 1088 192<925.758 1219.57>
LayerCount: 2
Fore
SplineSet
1339 0 m 1
 1138 0 l 1
 942 443 l 2
 904 529 863 594 817 644 c 1
 775 650 729 652 677 652 c 2
 428 652 l 1
 428 0 l 1
 234 0 l 1
 234 1475 l 1
 692 1475 l 2
 1001 1475 1280 1421 1280 1080 c 0
 1280 896 1182 746 975 698 c 1
 1029 644 1084 584 1120 504 c 1
 1339 0 l 1
428 1314 m 1
 428 813 l 1
 731 813 l 2
 988 813 1088 909 1088 1076 c 0
 1088 1231 988 1314 771 1314 c 2
 428 1314 l 1
885 1955 m 1
 574 1636 l 1
 432 1636 l 1
 654 1955 l 1
 885 1955 l 1
EndSplineSet
EndChar

StartChar: Rcaron
Encoding: 352 344 286
Width: 1351
VWidth: 2088
Flags: W
HStem: 0 21G<175 369 1071.11 1280> 652 161<369 756.028> 1314 161<369 918.938>
VStem: 175 194<0 652 813 1314> 1030 192<925.758 1219.57>
LayerCount: 2
Fore
SplineSet
1280 0 m 1
 1080 0 l 1
 883 443 l 2
 845 529 804 594 758 644 c 1
 716 650 670 652 618 652 c 2
 369 652 l 1
 369 0 l 1
 175 0 l 1
 175 1475 l 1
 633 1475 l 2
 942 1475 1222 1421 1222 1080 c 0
 1222 896 1124 746 917 698 c 1
 971 644 1025 584 1061 504 c 1
 1280 0 l 1
369 1314 m 1
 369 813 l 1
 672 813 l 2
 929 813 1030 909 1030 1076 c 0
 1030 1231 929 1314 712 1314 c 2
 369 1314 l 1
654 1619 m 1
 418 1947 l 1
 560 1947 l 1
 723 1726 l 1
 889 1947 l 1
 1038 1947 l 1
 800 1619 l 1
 654 1619 l 1
EndSplineSet
EndChar

StartChar: sacute
Encoding: 354 347 288
Width: 985
VWidth: 2088
Flags: W
HStem: -23 153<260.334 648.761> 913 152<344.821 715.162>
VStem: 117 186<676.186 870.334> 692 183<172.479 374.345>
LayerCount: 2
Fore
SplineSet
157 238 m 1
 232 171 352 130 484 130 c 0
 622 130 692 175 692 279 c 0
 692 350 639 405 516 439 c 2
 407 468 l 2
 248 512 117 585 117 767 c 0
 117 964 290 1065 491 1065 c 0
 625 1065 733 1035 821 977 c 1
 771 839 l 1
 707 881 610 913 497 913 c 0
 391 913 303 875 303 777 c 0
 303 693 339 664 460 630 c 2
 586 596 l 2
 755 550 875 479 875 295 c 0
 875 86 716 -23 497 -23 c 0
 340 -23 192 17 104 92 c 1
 157 238 l 1
811 1519 m 1
 497 1200 l 1
 355 1200 l 1
 578 1519 l 1
 811 1519 l 1
EndSplineSet
EndChar

StartChar: Imacron
Encoding: 356 298 290
Width: 570
VWidth: 2088
Flags: W
HStem: 0 21G<188 385> 1455 20G<188 385> 1646 136<8 564>
VStem: 188 197<0 1475>
LayerCount: 2
Fore
SplineSet
385 1475 m 1
 385 0 l 1
 188 0 l 1
 188 1475 l 1
 385 1475 l 1
564 1646 m 1
 8 1646 l 1
 8 1782 l 1
 564 1782 l 1
 564 1646 l 1
EndSplineSet
EndChar

StartChar: Itilde
Encoding: 358 296 292
Width: 570
VWidth: 2088
Flags: W
HStem: 0 21G<188 385> 1455 20G<188 385> 1650 134<329.081 505.009> 1758 134<82.7447 264.775>
VStem: -48 119<1663 1748.42> 188 197<0 1475> 516 122<1793.02 1882>
LayerCount: 2
Fore
SplineSet
385 1475 m 1xce
 385 0 l 1
 188 0 l 1
 188 1475 l 1
 385 1475 l 1xce
-48 1663 m 1
 -44 1793 21 1892 159 1892 c 0xde
 278 1892 351 1784 445 1784 c 0
 499 1784 514 1838 516 1882 c 1
 638 1882 l 1
 634 1757 573 1650 435 1650 c 0xee
 333 1650 228 1758 153 1758 c 0xde
 95 1758 73 1715 71 1663 c 1
 -48 1663 l 1
EndSplineSet
EndChar

StartChar: Cacute
Encoding: 360 262 294
Width: 1353
VWidth: 2088
Flags: W
HStem: -23 167<598.913 1036.1> 1335 167<598.913 1036.1>
VStem: 102 209<481.308 1001.85>
LayerCount: 2
Fore
SplineSet
102 742 m 0
 102 1151 343 1502 796 1502 c 0
 980 1502 1134 1456 1245 1366 c 1
 1180 1208 l 1
 1090 1281 953 1335 813 1335 c 0
 462 1335 311 1053 311 742 c 0
 311 431 462 144 813 144 c 0
 953 144 1090 198 1180 271 c 1
 1245 113 l 1
 1134 23 980 -23 796 -23 c 0
 343 -23 102 333 102 742 c 0
986 1949 m 1
 675 1627 l 1
 530 1627 l 1
 754 1949 l 1
 986 1949 l 1
EndSplineSet
EndChar

StartChar: Ccaron
Encoding: 362 268 296
Width: 1353
VWidth: 2088
Flags: W
HStem: -23 167<598.913 1036.1> 1335 167<598.913 1036.1>
VStem: 102 209<481.308 1001.85>
LayerCount: 2
Fore
SplineSet
102 742 m 0
 102 1151 343 1502 796 1502 c 0
 980 1502 1134 1456 1245 1366 c 1
 1180 1208 l 1
 1090 1281 953 1335 813 1335 c 0
 462 1335 311 1053 311 742 c 0
 311 431 462 144 813 144 c 0
 953 144 1090 198 1180 271 c 1
 1245 113 l 1
 1134 23 980 -23 796 -23 c 0
 343 -23 102 333 102 742 c 0
602 1619 m 1
 363 1947 l 1
 506 1947 l 1
 668 1726 l 1
 835 1947 l 1
 986 1947 l 1
 748 1619 l 1
 602 1619 l 1
EndSplineSet
EndChar

StartChar: abreve
Encoding: 364 259 298
Width: 1085
VWidth: 2088
Flags: W
HStem: -23 144<337.723 688.32> 0 21G<809.069 953> 435 131<385.533 765> 913 152<316.282 714.359> 1230 111<422.804 651.196> 1455 20G<261 389 685 813>
VStem: 121 184<155.942 368.441> 261 128<1374.25 1475> 685 128<1374.25 1475> 765 188<164.066 435 566 860.236>
LayerCount: 2
Fore
SplineSet
817 0 m 1x7e40
 794 58 l 1
 631 -2 529 -23 435 -23 c 0xbe40
 270 -23 121 71 121 263 c 0
 121 578 500 566 765 566 c 1
 765 740 l 2
 765 859 698 913 568 913 c 0
 443 913 321 881 227 829 c 1
 188 982 l 1
 276 1026 426 1065 564 1065 c 0
 767 1065 953 995 953 763 c 2
 953 0 l 1
 817 0 l 1x7e40
765 175 m 1
 765 435 l 1
 454 435 305 411 305 269 c 0
 305 165 369 121 451 121 c 0
 568 121 648 145 765 175 c 1
537 1230 m 0
 401 1230 261 1312 261 1475 c 1
 389 1475 l 1
 389 1385 457 1341 537 1341 c 0
 617 1341 685 1385 685 1475 c 1
 813 1475 l 1x3d80
 813 1312 673 1230 537 1230 c 0
EndSplineSet
EndChar

StartChar: zacute
Encoding: 366 378 300
Width: 927
VWidth: 2088
Flags: W
HStem: 0 146<273 875> 895 145<67 630>
LayerCount: 2
Fore
SplineSet
630 895 m 1
 67 895 l 1
 67 1040 l 1
 859 1040 l 1
 859 913 l 1
 273 146 l 1
 875 146 l 1
 875 0 l 1
 42 0 l 1
 42 132 l 1
 630 895 l 1
694 1525 m 1
 380 1206 l 1
 238 1206 l 1
 462 1525 l 1
 694 1525 l 1
EndSplineSet
EndChar

StartChar: zdotaccent
Encoding: 367 380 301
Width: 927
VWidth: 2088
Flags: W
HStem: 0 146<273 875> 895 145<67 630> 1276 167<397 552>
VStem: 397 155<1276 1443>
LayerCount: 2
Fore
SplineSet
630 895 m 1
 67 895 l 1
 67 1040 l 1
 859 1040 l 1
 859 913 l 1
 273 146 l 1
 875 146 l 1
 875 0 l 1
 42 0 l 1
 42 132 l 1
 630 895 l 1
552 1276 m 1
 397 1276 l 1
 397 1443 l 1
 552 1443 l 1
 552 1276 l 1
EndSplineSet
EndChar

StartChar: Amacron
Encoding: 370 256 304
Width: 1305
VWidth: 2088
Flags: W
HStem: 0 21G<16 235 1083.18 1291> 478 160<432 873> 1455 20G<546.705 761.281> 1636 138<378 931>
LayerCount: 2
Fore
SplineSet
16 0 m 1
 554 1475 l 1
 754 1475 l 1
 1291 0 l 1
 1090 0 l 1
 927 478 l 1
 378 478 l 1
 321 315 l 2
 285 213 253 102 217 0 c 1
 16 0 l 1
873 638 m 1
 656 1270 l 1
 432 638 l 1
 873 638 l 1
931 1636 m 1
 378 1636 l 1
 378 1774 l 1
 931 1774 l 1
 931 1636 l 1
EndSplineSet
EndChar

StartChar: ij
Encoding: 371 307 305
Width: 973
VWidth: 2088
Flags: W
HStem: 0 21G<146 333> 1020 20G<146 333 633 821> 1287 188<146 333 633 821>
VStem: 146 187<0 1040 1287 1475> 633 188<-74.2303 1040 1287 1475>
LayerCount: 2
Fore
SplineSet
333 1040 m 1
 333 0 l 1
 146 0 l 1
 146 1040 l 1
 333 1040 l 1
333 1475 m 1
 333 1287 l 1
 146 1287 l 1
 146 1475 l 1
 333 1475 l 1
821 1040 m 1
 821 171 l 2
 821 -140 794 -247 445 -291 c 2
 437 -293 l 1
 437 -134 l 1
 445 -134 l 2
 631 -111 633 -31 633 119 c 2
 633 1040 l 1
 821 1040 l 1
821 1475 m 1
 821 1287 l 1
 633 1287 l 1
 633 1475 l 1
 821 1475 l 1
EndSplineSet
EndChar

StartChar: IJ
Encoding: 372 306 306
Width: 1481
VWidth: 2088
Flags: W
HStem: -26 158<869 1069.2> 0 21G<188 385> 1455 20G<188 385 1130 1324>
VStem: 188 197<0 1475> 1130 194<191.806 1475>
LayerCount: 2
Fore
SplineSet
385 1475 m 1x78
 385 0 l 1
 188 0 l 1
 188 1475 l 1
 385 1475 l 1x78
1130 387 m 2
 1130 1475 l 1
 1324 1475 l 1
 1324 437 l 2
 1324 126 1286 -26 899 -26 c 2
 869 -26 l 1
 869 132 l 1
 919 132 l 1xb8
 1118 138 1130 237 1130 387 c 2
EndSplineSet
EndChar

StartChar: Aogonek
Encoding: 373 260 307
Width: 1380
VWidth: 2088
Flags: W
HStem: -397 110<1104.29 1338.79> 0 21G<16 235 1083.18 1291> 478 160<432 873> 1455 20G<546.705 761.281>
VStem: 957 135<-272.568 -117.655>
LayerCount: 2
Fore
SplineSet
16 0 m 1
 554 1475 l 1
 754 1475 l 1
 1291 0 l 1
 1090 0 l 1
 927 478 l 1
 378 478 l 1
 321 315 l 2
 285 213 253 102 217 0 c 1
 16 0 l 1
873 638 m 1
 656 1270 l 1
 432 638 l 1
 873 638 l 1
1190 -287 m 0
 1248 -287 1287 -275 1341 -255 c 1
 1341 -367 l 1
 1301 -383 1226 -397 1168 -397 c 0
 1049 -397 957 -338 957 -230 c 0
 957 -126 1060 -42 1166 12 c 1
 1291 0 l 1
 1178 -73 1092 -139 1092 -203 c 0
 1092 -253 1144 -287 1190 -287 c 0
EndSplineSet
EndChar

StartChar: aogonek
Encoding: 374 261 308
Width: 1081
VWidth: 2088
Flags: W
HStem: -397 110<764.297 996.789> -23 144<332.576 680.113> 0 21G<802.724 949> 435 131<379.916 760> 913 152<311.494 710.097>
VStem: 115 184<157.048 368.441> 614 136<-272.568 -117.655> 760 189<164.066 435 566 860.236>
LayerCount: 2
Fore
SplineSet
811 0 m 1xbf
 787 58 l 1
 624 -2 524 -23 430 -23 c 0xdf
 265 -23 115 71 115 263 c 0
 115 578 495 566 760 566 c 1
 760 740 l 2
 760 859 694 913 564 913 c 0
 439 913 315 881 221 829 c 1
 184 982 l 1
 272 1026 422 1065 560 1065 c 0
 763 1065 949 995 949 763 c 2
 949 0 l 1
 811 0 l 1xbf
760 175 m 1
 760 435 l 1
 449 435 299 411 299 269 c 0
 299 165 365 121 447 121 c 0
 564 121 643 145 760 175 c 1
848 -287 m 0
 906 -287 945 -275 999 -255 c 1
 999 -367 l 1
 959 -383 883 -397 825 -397 c 0
 706 -397 614 -338 614 -230 c 0
 614 -126 717 -42 823 12 c 1
 949 0 l 1xbf
 836 -73 750 -139 750 -203 c 0
 750 -253 802 -287 848 -287 c 0
EndSplineSet
EndChar

StartChar: eogonek
Encoding: 375 281 309
Width: 1116
VWidth: 2088
Flags: W
HStem: -345 111<692.085 922.79> -23 153<423.025 675.739> 484 128<271 829> 915 150<418.434 704.916>
VStem: 78 187<302.266 484 612 743.953> 541 138<-218.649 -64.3658>
LayerCount: 2
Fore
SplineSet
891 257 m 1
 980 138 l 1
 882 30 739 -23 566 -23 c 0
 275 -23 78 203 78 522 c 0
 78 847 283 1065 568 1065 c 0
 819 1065 1009 869 1009 546 c 0
 1009 530 1007 502 1007 484 c 1
 265 484 l 1
 275 271 394 130 584 130 c 0
 701 130 818 173 891 257 c 1
570 915 m 0
 417 915 294 800 271 612 c 1
 829 612 l 1
 817 798 716 915 570 915 c 0
775 -234 m 0
 833 -234 871 -223 925 -203 c 1
 925 -315 l 1
 885 -331 810 -345 752 -345 c 0
 633 -345 541 -283 541 -175 c 0
 541 -71 644 10 750 64 c 1
 875 52 l 1
 762 -21 679 -86 679 -150 c 0
 679 -200 729 -234 775 -234 c 0
EndSplineSet
EndChar

StartChar: commaaccent
Encoding: 377 63171 311
Width: 618
VWidth: 2088
Flags: W
HStem: -614 472<211 234>
VStem: 106 287
LayerCount: 2
Fore
SplineSet
106 -614 m 1
 211 -142 l 1
 393 -142 l 1
 234 -614 l 1
 106 -614 l 1
EndSplineSet
EndChar

StartChar: tcommaaccent
Encoding: 378 355 312
Width: 699
VWidth: 2088
Flags: W
HStem: -2 130<434.158 644> 933 107<36 238 397 642>
VStem: 238 159<166.193 933 1040 1310>
LayerCount: 2
Fore
SplineSet
36 933 m 1
 36 1040 l 1
 241 1040 l 1
 241 1310 l 1
 397 1362 l 1
 397 1040 l 1
 642 1040 l 1
 642 933 l 1
 397 933 l 1
 397 411 l 2
 397 363 395 327 395 291 c 0
 395 163 421 130 646 128 c 1
 644 -2 l 1
 214 12 238 124 238 445 c 2
 238 933 l 1
 36 933 l 1
161 -614 m 1
 263 -142 l 1
 445 -142 l 1
 289 -614 l 1
 161 -614 l 1
EndSplineSet
EndChar

StartChar: Tcommaaccent
Encoding: 379 354 313
Width: 1136
VWidth: 2088
Flags: W
HStem: 0 21G<464 658> 1312 163<28 464 658 1101>
VStem: 464 194<0 1312>
LayerCount: 2
Fore
SplineSet
28 1312 m 1
 28 1475 l 1
 1101 1475 l 1
 1101 1312 l 1
 658 1312 l 1
 658 0 l 1
 464 0 l 1
 464 1312 l 1
 28 1312 l 1
387 -614 m 1
 489 -142 l 1
 670 -142 l 1
 514 -614 l 1
 387 -614 l 1
EndSplineSet
EndChar

StartChar: scommaaccent
Encoding: 380 -1 314
Width: 973
VWidth: 2088
Flags: W
HStem: -23 134<253.616 646.019> 929 136<328.317 724.105>
VStem: 113 164<700.444 878.48> 710 163<170.44 366.518>
LayerCount: 2
Fore
SplineSet
113 783 m 0
 113 988 317 1065 476 1065 c 0
 584 1065 712 1055 804 988 c 1
 765 863 l 1
 681 917 574 929 484 929 c 0
 402 929 277 896 277 785 c 0
 277 555 873 654 873 289 c 0
 873 66 643 -23 466 -23 c 0
 351 -23 205 -4 119 88 c 1
 155 227 l 1
 230 139 362 111 470 111 c 0
 570 111 710 143 710 275 c 0
 710 520 113 403 113 783 c 0
345 -638 m 1
 447 -165 l 1
 628 -165 l 1
 472 -638 l 1
 345 -638 l 1
EndSplineSet
EndChar

StartChar: Scommaaccent
Encoding: 381 -1 315
Width: 1204
VWidth: 2088
Flags: W
HStem: -23 171<344.736 806.084> 1333 169<429.809 883.082>
VStem: 132 191<988.58 1239.12> 923 199<254.131 530.27>
LayerCount: 2
Fore
SplineSet
656 654 m 2
 476 712 l 2
 282 772 132 877 132 1092 c 0
 132 1353 351 1502 626 1502 c 0
 793 1502 959 1460 1063 1389 c 1
 1001 1236 l 1
 921 1286 766 1333 624 1333 c 0
 444 1333 323 1259 323 1109 c 0
 323 992 401 937 541 891 c 2
 725 831 l 2
 948 758 1122 654 1122 405 c 0
 1122 112 883 -23 610 -23 c 0
 385 -23 219 48 125 104 c 1
 190 269 l 1
 294 194 455 148 616 148 c 0
 789 148 923 224 923 395 c 0
 923 523 846 594 656 654 c 2
460 -638 m 1
 564 -165 l 1
 744 -165 l 1
 586 -638 l 1
 460 -638 l 1
EndSplineSet
EndChar

StartChar: iogonek
Encoding: 382 303 316
Width: 482
VWidth: 2088
Flags: W
HStem: -397 110<200.404 432.79> 1423 92<169 315>
VStem: 50 136<-269.778 -117.655> 161 156<1423 1515>
LayerCount: 2
Fore
SplineSet
315 1515 m 1xc0
 315 1423 l 1
 169 1423 l 1
 169 1515 l 1
 315 1515 l 1xc0
317 1015 m 1xd0
 161 1015 l 1
 161 -88 l 1
 317 -88 l 1
 317 1015 l 1xd0
285 -287 m 0
 343 -287 381 -275 435 -255 c 1
 435 -367 l 1
 395 -383 319 -397 261 -397 c 0
 142 -397 50 -338 50 -230 c 0
 50 -126 153 -42 259 12 c 1
 385 0 l 1
 272 -73 186 -139 186 -203 c 0xe0
 186 -253 239 -287 285 -287 c 0
EndSplineSet
EndChar

StartChar: Iogonek
Encoding: 383 302 317
Width: 570
VWidth: 2088
Flags: W
HStem: -397 110<245.085 475.79> 0 21G<188 385> 1455 20G<188 385>
VStem: 94 138<-272.568 -117.655> 188 197<0 1475>
LayerCount: 2
Fore
SplineSet
385 1475 m 1xe8
 385 0 l 1
 188 0 l 1
 188 1475 l 1
 385 1475 l 1xe8
328 -287 m 0
 386 -287 424 -275 478 -255 c 1
 478 -367 l 1
 438 -383 363 -397 305 -397 c 0
 186 -397 94 -338 94 -230 c 0
 94 -126 199 -42 305 12 c 1
 428 0 l 1
 315 -73 232 -139 232 -203 c 0xf0
 232 -253 282 -287 328 -287 c 0
EndSplineSet
EndChar

StartChar: kcommaaccent
Encoding: 384 311 318
Width: 1044
VWidth: 2088
Flags: W
HStem: 0 21G<173 333 807.703 1038> 1027 20G<762.866 1001>
VStem: 173 160<0 512 600 1523>
LayerCount: 2
Fore
SplineSet
173 1523 m 1
 333 1523 l 1
 333 600 l 1
 783 1047 l 1
 1001 1047 l 1
 487 554 l 1
 669 372 856 182 1038 0 c 1
 827 0 l 1
 333 512 l 1
 333 0 l 1
 173 0 l 1
 173 1523 l 1
422 -614 m 1
 526 -142 l 1
 706 -142 l 1
 550 -614 l 1
 422 -614 l 1
EndSplineSet
EndChar

StartChar: gcedilla
Encoding: 385 291 319
Width: 1200
VWidth: 2088
Flags: W
HStem: -409 156<345 765.171> 0 157<417.409 741.653> 913 152<416.075 737.861> 1020 20G<886.708 1080>
VStem: 86 189<314.876 749.667> 889 183<-140.67 175 321.99 746.643 903 1040>
LayerCount: 2
Fore
SplineSet
887 534 m 0xec
 887 745 793 913 568 913 c 0
 347 913 275 711 275 534 c 0
 275 357 347 157 568 157 c 0
 793 157 887 323 887 534 c 0xec
345 -409 m 1
 345 -253 l 1
 489 -253 l 1
 886 -251 889 -110 889 113 c 2
 889 175 l 1
 820 64 710 0 541 0 c 0
 230 0 86 277 86 524 c 0
 86 819 239 1065 552 1065 c 0xec
 694 1065 803 1009 885 903 c 1
 887 1040 l 1
 1080 1040 l 1xdc
 1080 1040 1072 801 1072 773 c 2
 1072 128 l 2
 1072 -125 1048 -409 484 -409 c 2
 345 -409 l 1
750 1656 m 1
 648 1184 l 1
 466 1184 l 1
 622 1656 l 1
 750 1656 l 1
EndSplineSet
EndChar

StartChar: Gcedilla
Encoding: 386 290 320
Width: 1481
VWidth: 2088
Flags: W
HStem: -23 167<588.015 1023.71> 620 151<771 1118> 1335 167<588.015 1029.81>
VStem: 92 209<472.65 1001.85> 1118 169<211.943 620>
LayerCount: 2
Fore
SplineSet
92 742 m 0
 92 1151 332 1502 785 1502 c 0
 969 1502 1132 1456 1243 1366 c 1
 1178 1208 l 1
 1088 1281 942 1335 802 1335 c 0
 451 1335 301 1053 301 742 c 0
 301 431 451 144 802 144 c 0
 919 144 1030 182 1118 236 c 1
 1118 620 l 1
 771 620 l 1
 771 771 l 1
 1287 771 l 1
 1287 132 l 1
 1116 30 962 -23 785 -23 c 0
 332 -23 92 333 92 742 c 0
618 -614 m 1
 723 -142 l 1
 905 -142 l 1
 746 -614 l 1
 618 -614 l 1
EndSplineSet
EndChar

StartChar: hbar
Encoding: 387 295 321
Width: 1178
VWidth: 2088
Flags: W
HStem: 0 21G<163 349 861 1047> 913 152<502.882 783.976> 1208 135<0 554>
VStem: 163 186<0 768.448 895 1517> 861 186<0 821.646>
LayerCount: 2
Fore
SplineSet
349 681 m 1
 349 0 l 1
 163 0 l 1
 163 1517 l 1
 349 1517 l 1
 349 895 l 1
 433 1014 546 1065 690 1065 c 0
 928 1065 1047 907 1047 622 c 2
 1047 0 l 1
 861 0 l 1
 861 522 l 2
 861 783 829 913 656 913 c 0
 501 913 375 779 349 681 c 1
554 1208 m 1
 0 1208 l 1
 0 1343 l 1
 554 1343 l 1
 554 1208 l 1
EndSplineSet
EndChar

StartChar: rcommaaccent
Encoding: 388 343 322
Width: 714
VWidth: 2088
Flags: W
HStem: 0 21G<161 317> 921 144<439.617 692.868> 1020 20G<155 313.774>
VStem: 161 156<0 781.4 885 1040>
LayerCount: 2
Fore
SplineSet
694 1051 m 1xd0
 696 895 l 1
 668 909 626 921 582 921 c 0xd0
 425 921 317 795 317 576 c 2
 317 0 l 1
 161 0 l 1
 161 787 l 2
 161 873 159 960 155 1040 c 1
 313 1040 l 1xb0
 319 885 l 1
 371 998 467 1065 580 1065 c 0
 620 1065 660 1059 694 1051 c 1xd0
241 -614 m 1
 345 -142 l 1
 526 -142 l 1
 367 -614 l 1
 241 -614 l 1
EndSplineSet
EndChar

StartChar: Rcommaaccent
Encoding: 389 342 323
Width: 1332
VWidth: 2088
Flags: W
HStem: 0 21G<234 428 1129.15 1339> 652 161<428 815.028> 1314 161<428 977.685>
VStem: 234 194<0 652 813 1314> 1088 192<925.758 1219.57>
LayerCount: 2
Fore
SplineSet
1339 0 m 1
 1138 0 l 1
 942 443 l 2
 904 529 863 594 817 644 c 1
 775 650 729 652 677 652 c 2
 428 652 l 1
 428 0 l 1
 234 0 l 1
 234 1475 l 1
 692 1475 l 2
 1001 1475 1280 1421 1280 1080 c 0
 1280 896 1182 746 975 698 c 1
 1029 644 1084 584 1120 504 c 1
 1339 0 l 1
428 1314 m 1
 428 813 l 1
 731 813 l 2
 988 813 1088 909 1088 1076 c 0
 1088 1231 988 1314 771 1314 c 2
 428 1314 l 1
539 -614 m 1
 644 -142 l 1
 825 -142 l 1
 666 -614 l 1
 539 -614 l 1
EndSplineSet
EndChar

StartChar: jcircumflex
Encoding: 390 309 324
Width: 486
VWidth: 2088
Flags: W
HStem: -437 148<-98 95.4806> 1020 20G<169 330>
VStem: 169 161<-206.36 1040>
LayerCount: 2
Fore
SplineSet
-98 -424 m 1
 -98 -277 l 1
 -62 -283 -36 -289 -16 -289 c 0
 109 -289 169 -189 169 32 c 2
 169 1040 l 1
 330 1040 l 1
 330 108 l 2
 330 -122 305 -437 20 -437 c 0
 -18 -437 -56 -432 -98 -424 c 1
-54 1188 m 1
 173 1519 l 1
 319 1519 l 1
 548 1188 l 1
 422 1188 l 1
 245 1410 l 1
 67 1188 l 1
 -54 1188 l 1
EndSplineSet
EndChar

StartChar: Jcircumflex
Encoding: 391 308 325
Width: 907
VWidth: 2088
Flags: W
HStem: -26 158<297 495.353> 1455 20G<558 752>
VStem: 558 194<191.806 1475>
LayerCount: 2
Fore
SplineSet
558 387 m 2
 558 1475 l 1
 752 1475 l 1
 752 437 l 2
 752 126 712 -26 325 -26 c 2
 297 -26 l 1
 297 132 l 1
 347 132 l 1
 546 138 558 237 558 387 c 2
157 1627 m 1
 385 1957 l 1
 530 1957 l 1
 758 1627 l 1
 633 1627 l 1
 453 1848 l 1
 275 1627 l 1
 157 1627 l 1
EndSplineSet
EndChar

StartChar: dotlessj
Encoding: 392 567 326
Width: 486
VWidth: 2088
Flags: W
HStem: -437 148<-98 95.4806> 1020 20G<169 330>
VStem: 169 161<-206.36 1040>
LayerCount: 2
Fore
SplineSet
-98 -424 m 1
 -98 -277 l 1
 -62 -283 -36 -289 -16 -289 c 0
 109 -289 169 -189 169 32 c 2
 169 1040 l 1
 330 1040 l 1
 330 108 l 2
 330 -122 305 -437 20 -437 c 0
 -18 -437 -56 -432 -98 -424 c 1
EndSplineSet
EndChar

StartChar: ldot
Encoding: 393 320 327
Width: 941
VWidth: 2088
Flags: W
HStem: 0 21G<161 319> 522 215<562 771>
VStem: 161 158<0 1517> 562 209<522 737>
LayerCount: 2
Fore
SplineSet
319 1517 m 1
 319 0 l 1
 161 0 l 1
 161 1517 l 1
 319 1517 l 1
771 737 m 1
 771 522 l 1
 562 522 l 1
 562 737 l 1
 771 737 l 1
EndSplineSet
EndChar

StartChar: Ldotaccent
Encoding: 394 319 328
Width: 1083
VWidth: 2088
Flags: W
HStem: 0 161<389 1034> 522 215<614 825> 1455 20G<194 389>
VStem: 194 195<161 1475> 614 211<522 737>
LayerCount: 2
Fore
SplineSet
194 1475 m 1
 389 1475 l 1
 389 161 l 1
 1034 161 l 1
 1034 0 l 1
 194 0 l 1
 194 1475 l 1
825 737 m 1
 825 522 l 1
 614 522 l 1
 614 737 l 1
 825 737 l 1
EndSplineSet
EndChar

StartChar: kgreenlandic
Encoding: 395 312 329
Width: 1046
VWidth: 2088
Flags: W
HStem: 0 21G<173 333 806.417 1038> 1027 20G<173 333 764.211 1001>
VStem: 173 160<0 480 568 1047>
LayerCount: 2
Fore
SplineSet
173 1047 m 1
 333 1047 l 1
 333 568 l 1
 783 1047 l 1
 1001 1047 l 1
 487 522 l 1
 669 349 856 173 1038 0 c 1
 827 0 l 1
 333 480 l 1
 333 0 l 1
 173 0 l 1
 173 1047 l 1
EndSplineSet
EndChar

StartChar: dotaccentcmb
Encoding: 396 775 330
Width: 506
VWidth: 2088
Flags: W
HStem: 1270 167<177 335>
VStem: 177 158<1270 1437>
LayerCount: 2
Fore
SplineSet
335 1270 m 1
 177 1270 l 1
 177 1437 l 1
 335 1437 l 1
 335 1270 l 1
EndSplineSet
EndChar

StartChar: R.alt.001
Encoding: 397 -1 331
Width: 1328
VWidth: 2088
Flags: W
HStem: 0 21G<199 380 1023.56 1230> 652 161<380 714.028> 1318 161<380 875.37>
VStem: 199 181<0 652 813 1318> 988 186<930.582 1217.4>
LayerCount: 2
Fore
SplineSet
1230 0 m 1
 1163 0 1099 0 1032 0 c 1
 875 372 l 2
 827 487 778 573 716 644 c 1
 674 650 628 652 576 652 c 2
 380 652 l 1
 380 0 l 1
 199 0 l 1
 199 1479 l 1
 541 1479 l 2
 591 1479 646 1477 702 1477 c 0
 971 1471 1174 1341 1174 1086 c 0
 1174 902 1072 744 857 696 c 1
 1005 552 1086 328 1230 0 c 1
380 1318 m 1
 380 813 l 1
 670 813 l 2
 862 813 988 909 988 1076 c 0
 988 1237 867 1318 670 1318 c 2
 380 1318 l 1
EndSplineSet
EndChar

StartChar: u.alt
Encoding: 398 -1 332
Width: 1173
VWidth: 2088
Flags: W
HStem: -23 155<396.777 676.851> 0 21G<846.599 1021> 1020 20G<134 321 831 1019>
VStem: 134 187<220.354 1040> 831 188<274.13 1040> 848 173<0 157>
LayerCount: 2
Fore
SplineSet
134 420 m 2xb4
 134 1040 l 1
 321 1040 l 1
 321 520 l 2
 321 259 351 132 524 132 c 0
 679 132 805 263 831 361 c 1
 831 1040 l 1
 1019 1040 l 1
 1019 255 l 2xb8
 1019 151 1021 44 1021 0 c 1
 848 0 l 1x74
 837 157 l 1
 753 34 639 -23 491 -23 c 0
 253 -23 134 135 134 420 c 2xb4
EndSplineSet
EndChar

StartChar: a.alt
Encoding: 399 -1 333
Width: 1085
VWidth: 2088
Flags: W
HStem: -23 136<354.383 690.974> 0 21G<813.069 957> 464 114<378.664 771> 919 146<321.337 717.336>
VStem: 125 184<156.763 402.31> 771 186<162 464 578 868.735>
LayerCount: 2
Fore
SplineSet
821 0 m 1x7c
 798 58 l 1
 635 -2 533 -23 439 -23 c 0xbc
 274 -23 125 85 125 277 c 0
 125 592 372 578 771 578 c 1
 771 740 l 2
 771 863 702 919 572 919 c 0
 447 919 326 887 232 835 c 1
 194 982 l 1
 282 1026 430 1065 568 1065 c 0
 771 1065 957 995 957 763 c 2
 957 0 l 1
 821 0 l 1x7c
771 175 m 1
 771 464 l 1
 414 464 309 440 309 285 c 0
 309 174 376 113 458 113 c 0
 575 113 654 139 771 175 c 1
EndSplineSet
EndChar

StartChar: y.alt
Encoding: 400 -1 334
Width: 1064
VWidth: 2088
Flags: W
HStem: 1020 20G<26 237.833 827.497 1036>
LayerCount: 2
Fore
SplineSet
539 251 m 1
 835 1040 l 1
 1036 1040 l 1
 614 -44 l 2
 543 -224 378 -357 230 -447 c 1
 125 -313 l 1
 275 -229 386 -102 428 -14 c 2
 447 28 l 1
 26 1040 l 1
 230 1040 l 1
 539 251 l 1
EndSplineSet
EndChar

StartChar: R.alt
Encoding: 401 -1 335
Width: 1328
VWidth: 2088
Flags: W
HStem: 0 21G<199 380 1023.56 1230> 652 161<380 714.028> 1318 161<380 875.37>
VStem: 199 181<0 652 813 1318> 988 186<930.582 1217.4>
LayerCount: 2
Fore
SplineSet
1230 0 m 1
 1163 0 1099 0 1032 0 c 1
 875 372 l 2
 827 487 778 573 716 644 c 1
 674 650 628 652 576 652 c 2
 380 652 l 1
 380 0 l 1
 199 0 l 1
 199 1479 l 1
 541 1479 l 2
 591 1479 646 1477 702 1477 c 0
 971 1471 1174 1341 1174 1086 c 0
 1174 902 1072 744 857 696 c 1
 1005 552 1086 328 1230 0 c 1
380 1318 m 1
 380 813 l 1
 670 813 l 2
 862 813 988 909 988 1076 c 0
 988 1237 867 1318 670 1318 c 2
 380 1318 l 1
EndSplineSet
EndChar

StartChar: six.alt
Encoding: 402 -1 336
Width: 1136
VWidth: 2088
Flags: W
HStem: -26 170<429.635 753.252> 754 165<417.888 765.4> 1333 169<489.2 886.816>
VStem: 56 211<742 1032.43> 895 210<285.682 620.88>
LayerCount: 2
Fore
SplineSet
267 742 m 1
 340 863 469 919 638 919 c 0
 923 919 1105 724 1105 451 c 0
 1105 188 913 -26 602 -26 c 0
 249 -26 56 222 56 694 c 0
 56 1154 260 1502 638 1502 c 0
 809 1502 963 1455 1049 1395 c 1
 986 1241 l 1
 900 1293 776 1333 646 1333 c 0
 391 1333 277 1070 267 742 c 1
590 754 m 0
 379 754 285 612 285 435 c 0
 285 276 406 144 590 144 c 0
 774 144 895 282 895 445 c 0
 895 616 801 754 590 754 c 0
EndSplineSet
EndChar

StartChar: uni041D
Encoding: 403 1053 337
Width: 1497
VWidth: 2088
Flags: W
HStem: 0 21G<175 369 1130 1324> 683 152<369 1130> 1455 20G<175 369 1130 1324>
VStem: 175 194<0 683 835 1475> 1130 194<0 683 835 1475>
LayerCount: 2
Fore
SplineSet
1130 683 m 1
 369 683 l 1
 369 0 l 1
 175 0 l 1
 175 1475 l 1
 369 1475 l 1
 369 835 l 1
 1130 835 l 1
 1130 1475 l 1
 1324 1475 l 1
 1324 0 l 1
 1130 0 l 1
 1130 683 l 1
EndSplineSet
EndChar

StartChar: uni041F
Encoding: 404 1055 338
Width: 1497
VWidth: 2088
Flags: W
HStem: 0 21G<175 369 1130 1324> 1320 155<369 1130>
VStem: 175 194<0 1320> 1130 194<0 1320>
LayerCount: 2
Fore
SplineSet
1130 1320 m 1
 369 1320 l 1
 369 0 l 1
 175 0 l 1
 175 1475 l 1
 1324 1475 l 1
 1324 0 l 1
 1130 0 l 1
 1130 1320 l 1
EndSplineSet
EndChar

StartChar: uni0422
Encoding: 405 1058 339
Width: 1123
VWidth: 2088
Flags: W
HStem: 0 21G<464 658> 1312 163<28 464 658 1101>
VStem: 464 194<0 1312>
LayerCount: 2
Fore
SplineSet
28 1312 m 1
 28 1475 l 1
 1101 1475 l 1
 1101 1312 l 1
 658 1312 l 1
 658 0 l 1
 464 0 l 1
 464 1312 l 1
 28 1312 l 1
EndSplineSet
EndChar

StartChar: uni0421
Encoding: 406 1057 340
Width: 1353
VWidth: 2088
Flags: W
HStem: -23 167<598.913 1036.1> 1335 167<598.913 1036.1>
VStem: 102 209<481.308 1001.85>
LayerCount: 2
Fore
SplineSet
102 742 m 0
 102 1151 343 1502 796 1502 c 0
 980 1502 1134 1456 1245 1366 c 1
 1180 1208 l 1
 1090 1281 953 1335 813 1335 c 0
 462 1335 311 1053 311 742 c 0
 311 431 462 144 813 144 c 0
 953 144 1090 198 1180 271 c 1
 1245 113 l 1
 1134 23 980 -23 796 -23 c 0
 343 -23 102 333 102 742 c 0
EndSplineSet
EndChar

StartChar: uni0420
Encoding: 407 1056 341
Width: 1248
VWidth: 2088
Flags: W
HStem: 0 21G<175 369> 610 163<369 885.601> 1312 163<369 885.601>
VStem: 175 194<0 610 773 1312> 1024 186<895.356 1188.65>
LayerCount: 2
Fore
SplineSet
369 773 m 1
 672 773 l 2
 889 773 1024 869 1024 1040 c 0
 1024 1217 889 1312 672 1312 c 2
 369 1312 l 1
 369 773 l 1
369 610 m 1
 369 0 l 1
 175 0 l 1
 175 1475 l 1
 654 1475 l 2
 977 1475 1210 1333 1210 1042 c 0
 1210 751 977 610 654 610 c 2
 369 610 l 1
EndSplineSet
EndChar

StartChar: uni041E
Encoding: 408 1054 342
Width: 1628
VWidth: 2088
Flags: W
HStem: -23 167<603.094 1026.8> 1335 167<606.158 1023.73>
VStem: 102 209<467.369 1006.92> 1318 209<467.369 1016.05>
LayerCount: 2
Fore
SplineSet
815 -23 m 0
 368 -23 102 294 102 737 c 0
 102 1203 383 1502 815 1502 c 0
 1247 1502 1527 1203 1527 737 c 0
 1527 294 1262 -23 815 -23 c 0
815 1335 m 0
 478 1335 311 1074 311 744 c 0
 311 407 476 144 815 144 c 0
 1154 144 1318 407 1318 744 c 0
 1318 1074 1152 1335 815 1335 c 0
EndSplineSet
EndChar

StartChar: uni0425
Encoding: 409 1061 343
Width: 1260
VWidth: 2088
Flags: W
HStem: 0 21G<-8 220.173 1012.92 1252> 1455 20G<30 269.685 1020.61 1243>
LayerCount: 2
Fore
SplineSet
-8 0 m 1
 516 752 l 1
 30 1475 l 1
 257 1475 l 1
 635 879 l 1
 1034 1475 l 1
 1243 1475 l 1
 746 752 l 1
 1252 0 l 1
 1026 0 l 1
 618 624 l 1
 207 0 l 1
 -8 0 l 1
EndSplineSet
EndChar

StartChar: uni042F
Encoding: 410 1071 344
Width: 1248
VWidth: 2088
Flags: W
HStem: 0 21G<104 315.227 1013 1210> 610 163<621.688 1013> 1312 163<497.414 1013>
VStem: 175 186<893.335 1191.48> 1013 197<0 610 773 1312>
LayerCount: 2
Fore
SplineSet
1013 0 m 1
 1013 610 l 1
 731 610 l 2
 693 610 656 614 620 616 c 1
 305 0 l 1
 104 0 l 1
 435 660 l 1
 274 724 175 850 175 1042 c 0
 175 1333 408 1475 731 1475 c 2
 1210 1475 l 1
 1210 0 l 1
 1013 0 l 1
710 773 m 2
 1013 773 l 1
 1013 1312 l 1
 710 1312 l 2
 493 1312 361 1217 361 1040 c 0
 361 869 493 773 710 773 c 2
EndSplineSet
EndChar

StartChar: uni0410
Encoding: 411 1040 345
Width: 1305
VWidth: 2088
Flags: W
HStem: 0 21G<16 235 1083.18 1291> 478 160<432 873> 1455 20G<546.705 761.281>
LayerCount: 2
Fore
SplineSet
16 0 m 1
 554 1475 l 1
 754 1475 l 1
 1291 0 l 1
 1090 0 l 1
 927 478 l 1
 378 478 l 1
 321 315 l 2
 285 213 253 102 217 0 c 1
 16 0 l 1
873 638 m 1
 656 1270 l 1
 432 638 l 1
 873 638 l 1
EndSplineSet
EndChar

StartChar: uni0411
Encoding: 412 1041 346
Width: 1248
VWidth: 2088
Flags: W
HStem: 0 161<369 877.141> 702 161<369 885.601> 1312 163<369 1130>
VStem: 175 194<161 702 863 1312> 1024 186<285.64 579.098>
LayerCount: 2
Fore
SplineSet
672 702 m 2
 369 702 l 1
 369 161 l 1
 672 161 l 2
 889 161 1024 258 1024 435 c 0
 1024 606 889 702 672 702 c 2
175 1475 m 1
 1130 1475 l 1
 1130 1312 l 1
 369 1312 l 1
 369 863 l 1
 654 863 l 2
 977 863 1210 723 1210 432 c 0
 1210 141 977 0 654 0 c 2
 175 0 l 1
 175 1475 l 1
EndSplineSet
EndChar

StartChar: uni0428
Encoding: 413 1064 347
Width: 1497
VWidth: 2088
Flags: W
HStem: 0 153<369 658 853 1130> 1455 20G<175 369 658 853 1130 1324>
VStem: 175 194<153 1475> 658 195<153 1475> 1130 194<153 1475>
LayerCount: 2
Fore
SplineSet
369 153 m 1
 658 153 l 1
 658 1475 l 1
 853 1475 l 1
 853 153 l 1
 1130 153 l 1
 1130 1475 l 1
 1324 1475 l 1
 1324 0 l 1
 175 0 l 1
 175 1475 l 1
 369 1475 l 1
 369 153 l 1
EndSplineSet
EndChar

StartChar: uni0406
Encoding: 414 1030 348
Width: 568
VWidth: 2088
Flags: W
HStem: 0 21G<188 385> 1455 20G<188 385>
VStem: 188 197<0 1475>
LayerCount: 2
Fore
SplineSet
385 1475 m 1
 385 0 l 1
 188 0 l 1
 188 1475 l 1
 385 1475 l 1
EndSplineSet
EndChar

StartChar: uni0408
Encoding: 415 1032 349
Width: 686
VWidth: 2088
Flags: W
HStem: -26 158<56 258.275> 1455 20G<317 514>
VStem: 317 197<191.806 1475>
LayerCount: 2
Fore
SplineSet
317 387 m 2
 317 1475 l 1
 514 1475 l 1
 514 437 l 2
 514 126 475 -26 88 -26 c 2
 56 -26 l 1
 56 132 l 1
 108 132 l 1
 307 138 317 237 317 387 c 2
EndSplineSet
EndChar

StartChar: uni0409
Encoding: 416 1033 350
Width: 1739
VWidth: 2088
Flags: W
HStem: -26 158<56 258.275> 0 161<1065 1471.26> 702 161<1065 1471.26> 1312 163<514 871>
VStem: 319 195<191.806 1312> 871 194<161 702 863 1312> 1609 183<285.64 579.098>
LayerCount: 2
Fore
SplineSet
1065 1475 m 1xbe
 1065 863 l 1
 1238 863 l 2
 1561 863 1792 723 1792 432 c 0
 1792 141 1561 0 1238 0 c 2
 871 0 l 1x7e
 871 1312 l 1
 514 1312 l 1
 514 437 l 2
 514 126 475 -26 88 -26 c 2
 56 -26 l 1
 56 132 l 1
 108 132 l 1
 307 138 319 237 319 387 c 2
 319 1475 l 1
 1065 1475 l 1xbe
1258 702 m 2
 1065 702 l 1
 1065 161 l 1
 1258 161 l 2
 1475 161 1609 258 1609 435 c 0
 1609 606 1475 702 1258 702 c 2
EndSplineSet
EndChar

StartChar: uni040A
Encoding: 417 1034 351
Width: 1739
VWidth: 2088
Flags: W
HStem: 0 161<1065 1471.26> 702 161<514 871 1065 1471.26> 1455 20G<319 514 871 1065>
VStem: 319 195<0 702 863 1475> 871 194<161 702 863 1475> 1609 183<285.64 579.098>
LayerCount: 2
Fore
SplineSet
1065 1475 m 1
 1065 863 l 1
 1238 863 l 2
 1561 863 1792 723 1792 432 c 0
 1792 141 1561 0 1238 0 c 2
 871 0 l 1
 871 702 l 1
 514 702 l 1
 514 0 l 1
 319 0 l 1
 319 1475 l 1
 514 1475 l 1
 514 863 l 1
 871 863 l 1
 871 1475 l 1
 1065 1475 l 1
1258 702 m 2
 1065 702 l 1
 1065 161 l 1
 1258 161 l 2
 1475 161 1609 258 1609 435 c 0
 1609 606 1475 702 1258 702 c 2
EndSplineSet
EndChar

StartChar: uni042A
Encoding: 418 1066 352
Width: 1739
VWidth: 2088
Flags: W
HStem: 0 161<1065 1471.26> 702 161<1065 1471.26> 1312 163<447 1032>
VStem: 871 194<161 702 863 1312> 871 161<1312 1475> 1609 183<285.64 579.098>
LayerCount: 2
Fore
SplineSet
1258 702 m 2xf4
 1065 702 l 1
 1065 161 l 1
 1258 161 l 2
 1475 161 1609 258 1609 435 c 0
 1609 606 1475 702 1258 702 c 2xf4
1065 1475 m 1
 1065 863 l 1xf4
 1238 863 l 2
 1561 863 1792 723 1792 432 c 0
 1792 141 1561 0 1238 0 c 2
 871 0 l 1
 871 1475 l 1xec
 1065 1475 l 1
447 1312 m 1
 447 1475 l 1
 1032 1475 l 1
 1032 1312 l 1xec
 447 1312 l 1
EndSplineSet
EndChar

StartChar: uni042C
Encoding: 419 1068 353
Width: 1739
VWidth: 2088
Flags: W
HStem: 0 161<1065 1471.26> 702 161<1065 1471.26> 1455 20G<871 1065>
VStem: 871 194<161 702 863 1475> 1609 183<285.64 579.098>
LayerCount: 2
Fore
SplineSet
1258 702 m 2
 1065 702 l 1
 1065 161 l 1
 1258 161 l 2
 1475 161 1609 258 1609 435 c 0
 1609 606 1475 702 1258 702 c 2
1065 1475 m 1
 1065 863 l 1
 1238 863 l 2
 1561 863 1792 723 1792 432 c 0
 1792 141 1561 0 1238 0 c 2
 871 0 l 1
 871 1475 l 1
 1065 1475 l 1
EndSplineSet
EndChar

StartChar: uni0403
Encoding: 420 1027 354
Width: 1497
VWidth: 2088
Flags: W
HStem: 0 21G<182 376> 1320 155<376 1051>
VStem: 182 194<0 1320>
LayerCount: 2
Fore
SplineSet
1051 1320 m 1
 376 1320 l 1
 376 0 l 1
 182 0 l 1
 182 1475 l 1
 1051 1475 l 1
 1051 1320 l 1
EndSplineSet
EndChar

StartChar: uni0413
Encoding: 421 1043 355
Width: 1497
VWidth: 2088
Flags: W
HStem: 0 21G<182 376> 1320 155<376 1051>
VStem: 182 194<0 1320>
LayerCount: 2
Fore
SplineSet
1051 1320 m 1
 376 1320 l 1
 376 0 l 1
 182 0 l 1
 182 1475 l 1
 1051 1475 l 1
 1051 1320 l 1
EndSplineSet
EndChar

StartChar: uni0401
Encoding: 422 1025 356
Width: 1180
VWidth: 2088
Flags: W
HStem: 0 161<369 1061> 690 161<369 1001> 1312 163<369 1030> 1577 167<355 524 737 907>
VStem: 175 194<161 690 851 1312> 355 169<1577 1744> 737 170<1577 1744>
LayerCount: 2
Fore
SplineSet
1001 851 m 1xfa
 1001 690 l 1
 369 690 l 1
 369 161 l 1
 1076 161 l 1
 1061 0 l 1
 175 0 l 1
 175 1475 l 1
 1044 1475 l 1
 1030 1312 l 1
 369 1312 l 1
 369 851 l 1
 1001 851 l 1xfa
907 1577 m 1
 737 1577 l 1
 737 1744 l 1
 907 1744 l 1
 907 1577 l 1
524 1577 m 1xf6
 355 1577 l 1
 355 1744 l 1
 524 1744 l 1
 524 1577 l 1xf6
EndSplineSet
EndChar

StartChar: uni0400
Encoding: 423 1024 357
Width: 1180
VWidth: 2088
Flags: W
HStem: 0 161<369 1061> 690 161<369 1001> 1312 163<369 1030>
VStem: 175 194<161 690 851 1312>
LayerCount: 2
Fore
SplineSet
1001 851 m 1
 1001 690 l 1
 369 690 l 1
 369 161 l 1
 1076 161 l 1
 1061 0 l 1
 175 0 l 1
 175 1475 l 1
 1044 1475 l 1
 1030 1312 l 1
 369 1312 l 1
 369 851 l 1
 1001 851 l 1
951 1838 m 1
 640 1519 l 1
 495 1519 l 1
 719 1838 l 1
 951 1838 l 1
EndSplineSet
EndChar

StartChar: uni0415
Encoding: 424 1045 358
Width: 1180
VWidth: 2088
Flags: W
HStem: 0 161<369 1061> 690 161<369 1001> 1312 163<369 1030>
VStem: 175 194<161 690 851 1312>
LayerCount: 2
Fore
SplineSet
1001 851 m 1
 1001 690 l 1
 369 690 l 1
 369 161 l 1
 1076 161 l 1
 1061 0 l 1
 175 0 l 1
 175 1475 l 1
 1044 1475 l 1
 1030 1312 l 1
 369 1312 l 1
 369 851 l 1
 1001 851 l 1
EndSplineSet
EndChar

StartChar: uni0405
Encoding: 425 1029 359
Width: 1216
VWidth: 2088
Flags: W
HStem: -23 171<344.736 806.084> 1333 169<429.809 883.082>
VStem: 132 191<988.58 1239.12> 923 199<254.131 530.27>
LayerCount: 2
Fore
SplineSet
656 654 m 2
 476 712 l 2
 282 772 132 877 132 1092 c 0
 132 1353 351 1502 626 1502 c 0
 793 1502 959 1460 1063 1389 c 1
 1001 1236 l 1
 921 1286 766 1333 624 1333 c 0
 444 1333 323 1259 323 1109 c 0
 323 992 401 937 541 891 c 2
 725 831 l 2
 948 758 1122 654 1122 405 c 0
 1122 112 883 -23 610 -23 c 0
 385 -23 219 48 125 104 c 1
 190 269 l 1
 294 194 455 148 616 148 c 0
 789 148 923 224 923 395 c 0
 923 523 846 594 656 654 c 2
EndSplineSet
EndChar

StartChar: uni0407
Encoding: 426 1031 360
Width: 568
VWidth: 2088
Flags: W
HStem: 0 21G<188 385> 1455 20G<188 385> 1569 169<12 182 393 564>
VStem: 12 170<1569 1738> 188 197<0 1475> 393 171<1569 1738>
LayerCount: 2
Fore
SplineSet
385 1475 m 1
 385 0 l 1
 188 0 l 1
 188 1475 l 1
 385 1475 l 1
564 1569 m 1
 393 1569 l 1
 393 1738 l 1
 564 1738 l 1
 564 1569 l 1
182 1569 m 1
 12 1569 l 1
 12 1738 l 1
 182 1738 l 1
 182 1569 l 1
EndSplineSet
EndChar

StartChar: uni041B
Encoding: 427 1051 361
Width: 1334
VWidth: 2088
Flags: W
HStem: 0 21G<123 326.227 965 1162> 1320 155<666 965>
VStem: 965 197<0 1320>
LayerCount: 2
Fore
SplineSet
506 1475 m 1
 1162 1475 l 1
 1162 0 l 1
 965 0 l 1
 965 1320 l 1
 666 1320 l 1
 321 0 l 1
 123 0 l 1
 506 1475 l 1
EndSplineSet
EndChar

StartChar: uni041C
Encoding: 428 1052 362
Width: 1794
VWidth: 2088
Flags: W
HStem: 0 21G<175 359 1435 1619> 1455 20G<175 410.299 1391.85 1619>
VStem: 175 184<0 1134> 1435 184<0 1128>
LayerCount: 2
Fore
SplineSet
359 1134 m 1
 359 0 l 1
 175 0 l 1
 175 1475 l 1
 401 1475 l 1
 905 391 l 1
 1401 1475 l 1
 1619 1475 l 1
 1619 0 l 1
 1435 0 l 1
 1435 1128 l 1
 994 165 l 1
 809 165 l 1
 359 1134 l 1
EndSplineSet
EndChar

StartChar: uni0412
Encoding: 429 1042 363
Width: 1248
VWidth: 2088
Flags: W
HStem: 0 161<369 889.66> 681 161<369 890.662> 1312 163<369 886.965>
VStem: 175 194<161 681 842 1312> 1007 185<946.578 1208.49> 1024 186<279.436 562.95>
LayerCount: 2
Fore
SplineSet
175 0 m 1xf4
 175 1475 l 1
 648 1475 l 2
 965 1475 1192 1345 1192 1084 c 0xf8
 1192 936 1113 830 973 763 c 1
 1119 694 1210 581 1210 422 c 0
 1210 137 977 0 654 0 c 2
 175 0 l 1xf4
672 681 m 2
 369 681 l 1
 369 161 l 1
 672 161 l 2
 889 161 1024 253 1024 424 c 0xf4
 1024 589 889 681 672 681 c 2
369 842 m 1
 672 842 l 2
 885 842 1007 927 1007 1080 c 0xf8
 1007 1230 879 1312 666 1312 c 2
 369 1312 l 1
 369 842 l 1
EndSplineSet
EndChar

StartChar: uni042B
Encoding: 430 1067 364
Width: 1739
VWidth: 2088
Flags: W
HStem: 0 161<1065 1425.26> 702 161<1065 1425.26> 1455 20G<871 1065 1936 2133>
VStem: 871 194<161 702 863 1475> 1563 183<285.64 579.098> 1936 197<0 1475>
LayerCount: 2
Fore
SplineSet
1212 702 m 2
 1065 702 l 1
 1065 161 l 1
 1212 161 l 2
 1429 161 1563 258 1563 435 c 0
 1563 606 1429 702 1212 702 c 2
1065 1475 m 1
 1065 863 l 1
 1192 863 l 2
 1515 863 1746 723 1746 432 c 0
 1746 141 1515 0 1192 0 c 2
 871 0 l 1
 871 1475 l 1
 1065 1475 l 1
2133 1475 m 1
 2133 0 l 1
 1936 0 l 1
 1936 1475 l 1
 2133 1475 l 1
EndSplineSet
EndChar

StartChar: uni042E
Encoding: 431 1070 365
Width: 1497
VWidth: 2088
Flags: W
HStem: -23 167<1119.03 1479.99> 0 21G<175 369> 683 152<369 660> 1335 167<1125.49 1476.91> 1455 20G<175 369>
VStem: 175 194<0 683 835 1475> 660 209<463.37 683 835 1027.3> 1732 209<452.124 1031.37>
LayerCount: 2
Fore
SplineSet
1302 -23 m 0xb7
 913 -23 678 267 660 683 c 1
 369 683 l 1
 369 0 l 1
 175 0 l 1
 175 1475 l 1
 369 1475 l 1x6f
 369 835 l 1
 664 835 l 1
 698 1242 943 1502 1302 1502 c 0
 1691 1502 1941 1203 1941 737 c 0
 1941 294 1707 -23 1302 -23 c 0xb7
1302 1335 m 0xb7
 1015 1335 869 1074 869 744 c 0
 869 407 1013 144 1302 144 c 0
 1591 144 1732 407 1732 744 c 0
 1732 1074 1589 1335 1302 1335 c 0xb7
EndSplineSet
EndChar

StartChar: uni0430
Encoding: 432 1072 366
Width: 1085
VWidth: 2088
Flags: W
HStem: -23 136<354.383 690.974> 0 21G<813.069 957> 464 114<378.664 771> 919 146<321.337 717.336>
VStem: 125 184<156.763 402.31> 771 186<162 464 578 868.735>
LayerCount: 2
Fore
SplineSet
821 0 m 1x7c
 798 58 l 1
 635 -2 533 -23 439 -23 c 0xbc
 274 -23 125 85 125 277 c 0
 125 592 372 578 771 578 c 1
 771 740 l 2
 771 863 702 919 572 919 c 0
 447 919 326 887 232 835 c 1
 194 982 l 1
 282 1026 430 1065 568 1065 c 0
 771 1065 957 995 957 763 c 2
 957 0 l 1
 821 0 l 1x7c
771 175 m 1
 771 464 l 1
 414 464 309 440 309 285 c 0
 309 174 376 113 458 113 c 0
 575 113 654 139 771 175 c 1
EndSplineSet
EndChar

StartChar: uni0435
Encoding: 433 1077 367
Width: 1129
VWidth: 2088
Flags: W
HStem: -23 146<445.243 793.297> 493 105<291 848> 919 146<443.267 721.273>
VStem: 94 191<302.266 493 598 731.453>
LayerCount: 2
Fore
SplineSet
911 257 m 1
 999 138 l 1
 901 30 757 -23 584 -23 c 0
 293 -23 94 203 94 522 c 0
 94 847 301 1065 586 1065 c 0
 837 1065 1028 873 1028 554 c 0
 1028 538 1026 511 1026 493 c 1
 285 493 l 1
 295 272 414 123 604 123 c 0
 721 123 838 169 911 257 c 1
590 919 m 0
 437 919 314 799 291 598 c 1
 848 598 l 1
 836 797 736 919 590 919 c 0
EndSplineSet
EndChar

StartChar: uni0441
Encoding: 434 1089 368
Width: 1027
VWidth: 2088
Flags: W
HStem: -23 146<428.785 768.07> 919 146<421.029 766.929>
VStem: 78 187<303.432 739.922>
LayerCount: 2
Fore
SplineSet
594 123 m 0
 696 123 794 166 865 241 c 1
 953 117 l 1
 859 21 716 -23 576 -23 c 0
 241 -23 78 233 78 524 c 0
 78 803 243 1065 580 1065 c 0
 728 1065 867 1019 953 921 c 1
 865 800 l 1
 785 886 688 919 586 919 c 0
 365 919 265 735 265 524 c 0
 265 292 371 123 594 123 c 0
EndSplineSet
EndChar

StartChar: uni043E
Encoding: 435 1086 369
Width: 1198
VWidth: 2088
Flags: W
HStem: -23 146<443.354 765.725> 919 146<444.89 768.894>
VStem: 78 191<308.84 721.396> 931 193<301.634 741.396>
LayerCount: 2
Fore
SplineSet
1124 520 m 0
 1124 231 941 -23 604 -23 c 0
 263 -23 78 221 78 518 c 0
 78 815 267 1065 608 1065 c 0
 953 1065 1124 819 1124 520 c 0
931 518 m 0
 931 733 834 919 604 919 c 0
 385 919 269 723 269 516 c 0
 269 311 383 123 608 123 c 0
 831 123 931 311 931 518 c 0
EndSplineSet
EndChar

StartChar: uni0440
Encoding: 436 1088 370
Width: 1221
VWidth: 2088
Flags: W
HStem: -435 21G<159 347> -23 146<500.585 809.383> 919 146<496.002 809.172> 1020 20G<153 343.584>
VStem: 159 188<-435 153 282.998 759.421 903 1040> 955 191<294.156 750.622>
LayerCount: 2
Fore
SplineSet
347 -435 m 1xec
 159 -435 l 1
 159 773 l 2
 159 801 153 1040 153 1040 c 1
 343 1040 l 1xdc
 347 903 l 1
 429 1009 539 1065 681 1065 c 0
 994 1065 1146 811 1146 510 c 0
 1146 233 1019 -23 700 -23 c 0
 554 -23 427 34 347 153 c 1
 347 -435 l 1xec
343 522 m 0
 343 301 437 123 662 123 c 4
 883 123 955 336 955 522 c 0
 955 708 883 919 662 919 c 0xec
 437 919 343 741 343 522 c 0
EndSplineSet
EndChar

StartChar: uni0442
Encoding: 437 1090 371
Width: 841
VWidth: 2088
Flags: W
HStem: 0 21G<328 516> 889 151<10 328 516 831>
VStem: 328 188<0 889>
LayerCount: 2
Fore
SplineSet
10 1040 m 1
 831 1040 l 1
 831 889 l 1
 516 889 l 1
 516 0 l 1
 328 0 l 1
 328 889 l 1
 10 889 l 1
 10 1040 l 1
EndSplineSet
EndChar

StartChar: uni0450
Encoding: 439 1104 373
Width: 1096
VWidth: 2088
Flags: W
HStem: -23 153<423.025 779.859> 484 128<271 829> 915 150<418.434 704.916>
VStem: 78 187<302.266 484 612 743.953>
LayerCount: 2
Fore
SplineSet
891 257 m 1
 980 138 l 1
 882 30 739 -23 566 -23 c 0
 275 -23 78 203 78 522 c 0
 78 847 283 1065 568 1065 c 0
 819 1065 1009 869 1009 546 c 0
 1009 530 1007 502 1007 484 c 1
 265 484 l 1
 275 271 394 130 584 130 c 0
 701 130 818 173 891 257 c 1
570 915 m 0
 417 915 294 800 271 612 c 1
 829 612 l 1
 817 798 716 915 570 915 c 0
495 1200 m 1
 184 1519 l 1
 416 1519 l 1
 640 1200 l 1
 495 1200 l 1
EndSplineSet
EndChar

StartChar: uni0455
Encoding: 440 1109 374
Width: 985
VWidth: 2088
Flags: W
HStem: -23 142<268.467 662.145> 919 146<352.636 729.108>
VStem: 130 179<674.083 874.882> 710 177<164.906 372.942>
LayerCount: 2
Fore
SplineSet
117 78 m 1
 165 213 l 1
 240 167 365 119 495 119 c 0
 639 119 710 169 710 277 c 0
 710 348 660 403 537 437 c 2
 420 468 l 2
 261 512 130 585 130 767 c 0
 130 964 303 1065 504 1065 c 0
 638 1065 743 1035 831 977 c 1
 783 846 l 1
 719 888 623 919 510 919 c 0
 402 919 309 879 309 777 c 0
 309 691 347 658 464 624 c 2
 590 592 l 2
 763 548 887 477 887 295 c 0
 887 86 729 -23 510 -23 c 0
 353 -23 205 14 117 78 c 1
EndSplineSet
EndChar

StartChar: uni0456
Encoding: 441 1110 375
Width: 515
VWidth: 2088
Flags: W
HStem: 0 21G<173 359> 1020 20G<173 359> 1287 188<173 359>
VStem: 173 186<0 1040 1287 1475>
LayerCount: 2
Fore
SplineSet
359 1040 m 1
 359 0 l 1
 173 0 l 1
 173 1040 l 1
 359 1040 l 1
359 1475 m 1
 359 1287 l 1
 173 1287 l 1
 173 1475 l 1
 359 1475 l 1
EndSplineSet
EndChar

StartChar: uni0432
Encoding: 442 1074 376
Width: 1079
VWidth: 2088
Flags: W
HStem: 0 150<339 758.513> 472 138<339 748.913> 889 151<339 748.982>
VStem: 153 186<150 472 610 889> 796 177<657.133 843.68> 827 178<213.406 407.96>
LayerCount: 2
Fore
SplineSet
1005 299 m 0xf4
 1005 149 867 0 604 0 c 2
 153 0 l 1
 153 1040 l 1
 604 1040 l 2
 853 1040 973 905 973 765 c 0xf8
 973 681 936 597 842 541 c 1
 950 481 1005 389 1005 299 c 0xf4
612 472 m 2
 339 472 l 1
 339 150 l 1
 612 150 l 2
 750 150 827 229 827 309 c 0xf4
 827 389 750 472 612 472 c 2
339 610 m 1
 612 610 l 2
 737 610 796 681 796 754 c 0xf8
 796 823 737 889 612 889 c 2
 339 889 l 1
 339 610 l 1
EndSplineSet
EndChar

StartChar: uni044C
Encoding: 443 1100 377
Width: 1088
VWidth: 2088
Flags: W
HStem: 0 150<347 759.78> 478 150<347 759.78> 1020 20G<153 347>
VStem: 153 194<150 478 628 1040> 815 177<206.761 425.766>
LayerCount: 2
Fore
SplineSet
630 478 m 2
 347 478 l 1
 347 150 l 1
 630 150 l 2
 755 150 815 233 815 319 c 0
 815 399 755 478 630 478 c 2
347 1040 m 1
 347 628 l 1
 610 628 l 2
 867 628 992 474 992 319 c 0
 992 158 867 0 610 0 c 2
 153 0 l 1
 153 1040 l 1
 347 1040 l 1
EndSplineSet
EndChar

StartChar: uni044A
Encoding: 444 1098 378
Width: 1088
VWidth: 2088
Flags: W
HStem: 0 150<347 759.78> 478 150<347 759.78> 889 151<-104 153>
VStem: 153 194<150 478 628 889> 815 177<206.761 425.766>
LayerCount: 2
Fore
SplineSet
347 1040 m 1
 347 628 l 1
 610 628 l 2
 867 628 992 474 992 319 c 0
 992 158 867 0 610 0 c 2
 153 0 l 1
 153 889 l 1
 -104 889 l 1
 -104 1040 l 1
 347 1040 l 1
630 478 m 2
 347 478 l 1
 347 150 l 1
 630 150 l 2
 755 150 815 233 815 319 c 0
 815 399 755 478 630 478 c 2
EndSplineSet
EndChar

StartChar: uni043F
Encoding: 445 1087 379
Width: 1173
VWidth: 2088
Flags: W
HStem: 0 21G<155 343 853 1040> 885 155<343 853>
VStem: 155 188<0 885> 853 187<0 885>
LayerCount: 2
Fore
SplineSet
155 1040 m 1
 1040 1040 l 1
 1040 0 l 1
 853 0 l 1
 853 885 l 1
 343 885 l 1
 343 0 l 1
 155 0 l 1
 155 1040 l 1
EndSplineSet
EndChar

StartChar: uni043B
Encoding: 446 1083 380
Width: 1190
VWidth: 2088
Flags: W
HStem: -23 157<-10 126.844> 0 21G<853 1040> 885 155<372 853>
VStem: 186 186<193.77 885> 853 187<0 885>
LayerCount: 2
Fore
SplineSet
186 1040 m 1xb8
 1040 1040 l 1
 1040 0 l 1
 853 0 l 1x78
 853 885 l 1
 372 885 l 1
 372 439 l 2
 372 128 347 21 -2 -23 c 2
 -10 -23 l 1
 -10 134 l 1
 -2 134 l 2
 184 157 186 237 186 387 c 2
 186 1040 l 1xb8
EndSplineSet
EndChar

StartChar: uni044F
Encoding: 447 1103 381
Width: 1104
VWidth: 2088
Flags: W
HStem: 0 21G<113 318.154 781 967> 416 140<539 781> 889 151<354.871 781>
VStem: 113 180<615.047 831.49> 781 186<0 416 556 889>
LayerCount: 2
Fore
SplineSet
781 0 m 1
 781 416 l 1
 539 416 l 1
 307 0 l 1
 113 0 l 1
 355 435 l 1
 196 481 113 600 113 721 c 0
 113 882 249 1040 506 1040 c 2
 967 1040 l 1
 967 0 l 1
 781 0 l 1
484 556 m 2
 781 556 l 1
 781 889 l 1
 484 889 l 2
 359 889 293 807 293 721 c 0
 293 641 359 556 484 556 c 2
EndSplineSet
EndChar

StartChar: uni044E
Encoding: 448 1102 382
Width: 1495
VWidth: 2088
Flags: W
HStem: -23 153<827.514 1095.5> 0 21G<153 339> 449 141<339 503.148> 911 154<831.995 1097.44> 1020 20G<153 339>
VStem: 153 186<0 449 590 1040> 499 191<296.98 449 590 738.067> 1228 193<290.018 756.743>
LayerCount: 2
Fore
SplineSet
1421 520 m 0x37
 1421 231 1260 -23 961 -23 c 0xb7
 684 -23 522 184 499 449 c 1
 339 449 l 1
 339 0 l 1
 153 0 l 1
 153 1040 l 1
 339 1040 l 1x6f
 339 590 l 1
 499 590 l 1
 525 855 688 1065 965 1065 c 0
 1266 1065 1421 819 1421 520 c 0x37
1228 518 m 0
 1228 729 1147 911 961 911 c 0
 784 911 690 719 690 516 c 0
 690 313 783 130 965 130 c 0
 1145 130 1228 315 1228 518 c 0
EndSplineSet
EndChar

StartChar: uni0437
Encoding: 449 1079 383
Width: 1079
VWidth: 2088
Flags: W
HStem: -23 151<319.854 745.006> 464 142<420 736.589> 915 150<315.401 724.484>
VStem: 785 180<654.81 855.795> 817 180<195.713 402.728>
LayerCount: 2
Fore
SplineSet
997 289 m 0xe8
 997 118 851 -23 548 -23 c 0
 425 -23 268 7 182 82 c 1
 205 126 227 167 247 211 c 1
 322 157 437 128 550 128 c 0
 734 128 817 199 817 301 c 0xe8
 817 374 758 446 650 458 c 1
 638 462 620 464 604 464 c 2
 420 464 l 1
 420 606 l 1
 604 606 l 2
 729 606 785 683 785 756 c 0
 785 852 708 915 539 915 c 0
 428 915 314 885 247 829 c 1
 182 959 l 1
 270 1039 429 1065 552 1065 c 0
 829 1065 965 933 965 787 c 0xf0
 965 695 942 601 831 541 c 1
 950 485 997 391 997 289 c 0xe8
EndSplineSet
EndChar

StartChar: uni043D
Encoding: 450 1085 384
Width: 1173
VWidth: 2088
Flags: W
HStem: 0 21G<155 343 853 1040> 478 152<343 853> 1020 20G<155 343 853 1040>
VStem: 155 188<0 478 630 1040> 853 187<0 478 630 1040>
LayerCount: 2
Fore
SplineSet
155 1040 m 1
 343 1040 l 1
 343 630 l 1
 853 630 l 1
 853 1040 l 1
 1040 1040 l 1
 1040 0 l 1
 853 0 l 1
 853 478 l 1
 343 478 l 1
 343 0 l 1
 155 0 l 1
 155 1040 l 1
EndSplineSet
EndChar

StartChar: uni0448
Encoding: 451 1096 385
Width: 1173
VWidth: 2088
Flags: W
HStem: 0 155<343 516 685 853> 1020 20G<155 343 516 685 853 1040>
VStem: 155 188<155 1040> 516 169<155 1040> 853 187<155 1040>
LayerCount: 2
Fore
SplineSet
343 155 m 1
 516 155 l 1
 516 1040 l 1
 685 1040 l 1
 685 155 l 1
 853 155 l 1
 853 1040 l 1
 1040 1040 l 1
 1040 0 l 1
 155 0 l 1
 155 1040 l 1
 343 1040 l 1
 343 155 l 1
EndSplineSet
EndChar

StartChar: uni043C
Encoding: 452 1084 386
Width: 1216
VWidth: 2088
Flags: W
HStem: 0 21G<153 317 901 1065> 1020 20G<153 327.058 890.86 1065>
VStem: 153 164<0 737> 901 164<0 737>
LayerCount: 2
Fore
SplineSet
642 319 m 1
 574 319 l 1
 317 737 l 1
 317 0 l 1
 153 0 l 1
 153 1040 l 1
 315 1040 l 1
 608 554 l 1
 903 1040 l 1
 1065 1040 l 1
 1065 0 l 1
 901 0 l 1
 901 737 l 1
 642 319 l 1
EndSplineSet
EndChar

StartChar: uni0424
Encoding: 453 1060 387
Width: 1716
VWidth: 2088
Flags: W
HStem: 104 169<599.062 760 940 1116.77> 1206 169<599.062 760 940 1116.77>
VStem: 102 209<535.831 944.009> 1406 209<542.732 937.126>
LayerCount: 2
Back
SplineSet
1155 1471 m 0xb7
 758 1471 527 1160 527 726 c 0
 527 270 774 -25 1155 -25 c 0
 1536 -25 1783 270 1783 726 c 0
 1783 1160 1552 1471 1155 1471 c 0xb7
1155 140 m 0xb7
 874 140 732 395 732 718 c 0
 732 1048 873 1306 1155 1306 c 0
 1437 1306 1578 1048 1578 718 c 0
 1578 395 1436 140 1155 140 c 0xb7
EndSplineSet
Fore
SplineSet
940 1475 m 1
 760 1475 l 1
 760 1375 l 1
 357 1337 102 1097 102 740 c 0
 102 383 357 142 760 104 c 1
 760 0 l 1
 940 0 l 1
 940 102 l 1
 1337 132 1615 362 1615 740 c 0
 1615 1118 1337 1347 940 1377 c 1
 940 1475 l 1
940 1208 m 1
 1225 1176 1406 999 1406 740 c 0
 1406 481 1225 303 940 271 c 1
 940 1208 l 1
760 1206 m 1
 760 273 l 1
 489 307 311 483 311 740 c 0
 311 997 489 1172 760 1206 c 1
EndSplineSet
EndChar

StartChar: uni0444
Encoding: 454 1092 388
Width: 1395
VWidth: 2088
Flags: W
HStem: 30 147<372.651 603.891 794.108 1024.38> 883 151<372.15 603.845 794.153 1024.88>
VStem: 78 191<305.374 755.269> 606 186<-184 54 192.2 866.458 1005 1243> 1128 192<305.374 755.269>
LayerCount: 2
Fore
SplineSet
606 1243 m 1
 792 1243 l 1
 792 1005 l 1
 836 1023 879 1034 921 1034 c 0
 1146 1034 1320 799 1320 528 c 0
 1320 259 1144 30 923 30 c 0
 881 30 836 36 792 54 c 1
 792 -184 l 1
 606 -184 l 1
 606 54 l 1
 562 36 516 30 474 30 c 0
 253 30 78 259 78 528 c 0
 78 799 251 1034 476 1034 c 0
 516 1034 562 1023 606 1005 c 1
 606 1243 l 1
921 883 m 0
 879 883 840 871 792 848 c 1
 792 211 l 1
 838 188 879 177 919 177 c 0
 1051 177 1128 340 1128 526 c 0
 1128 714 1053 883 921 883 c 0
478 177 m 0
 518 177 560 189 606 209 c 1
 606 851 l 1
 558 874 516 883 476 883 c 0
 344 883 269 714 269 526 c 0
 269 340 346 177 478 177 c 0
EndSplineSet
EndChar

StartChar: uni0443
Encoding: 455 1091 389
Width: 1058
VWidth: 2088
Flags: W
HStem: -393 161<108 324.619> 1020 20G<26 237.527 827.789 1036>
LayerCount: 2
Fore
SplineSet
539 219 m 1
 835 1040 l 1
 1036 1040 l 1
 642 20 l 1
 600 -199 499 -393 108 -393 c 1
 108 -232 l 1
 375 -232 441 -112 449 28 c 1
 26 1040 l 1
 230 1040 l 1
 539 219 l 1
EndSplineSet
EndChar

StartChar: uni0445
Encoding: 456 1093 390
Width: 1068
VWidth: 2088
Flags: W
HStem: 0 21G<40 269.236 799.266 1030> 1020 20G<58 290.471 800.596 1017>
LayerCount: 2
Fore
SplineSet
40 0 m 1
 424 524 l 1
 58 1040 l 1
 277 1040 l 1
 537 654 l 1
 815 1040 l 1
 1017 1040 l 1
 656 528 l 1
 1030 0 l 1
 813 0 l 1
 539 399 l 1
 255 0 l 1
 40 0 l 1
EndSplineSet
EndChar

StartChar: uni0447
Encoding: 457 1095 391
Width: 1052
VWidth: 2088
Flags: W
HStem: 0 21G<733 919> 382 155<332.925 599.507> 1020 20G<78 263 733 919>
VStem: 78 185<619.516 1040> 733 186<0 556 671.766 1040>
LayerCount: 2
Fore
SplineSet
733 769 m 1
 733 1040 l 1
 919 1040 l 1
 919 0 l 1
 733 0 l 1
 733 556 l 1
 658 437 565 382 435 382 c 0
 197 382 78 531 78 796 c 2
 78 1040 l 1
 263 1040 l 1
 263 895 l 2
 263 654 293 537 466 537 c 0
 600 537 713 671 733 769 c 1
EndSplineSet
EndChar

StartChar: uni0438
Encoding: 458 1080 392
Width: 1186
VWidth: 2088
Flags: W
HStem: 0 21G<153 342.167 855 1036> 1020 20G<153 328 863 1036>
VStem: 153 175<255 1040> 855 181<0 744 999 1040>
LayerCount: 2
Fore
SplineSet
1036 0 m 1
 855 0 l 1
 855 744 l 5
 328 0 l 1
 153 0 l 1
 153 1040 l 1
 328 1040 l 1
 328 255 l 1
 863 999 l 1
 863 1040 l 1
 1036 1040 l 1
 1036 0 l 1
EndSplineSet
EndChar

StartChar: uni0433
Encoding: 460 1075 394
Width: 841
VWidth: 2088
Flags: W
HStem: 0 21G<194 380> 889 151<380 696>
VStem: 194 186<0 889>
LayerCount: 2
Fore
SplineSet
194 1040 m 1
 696 1040 l 1
 696 889 l 1
 380 889 l 1
 380 0 l 1
 194 0 l 1
 194 1040 l 1
EndSplineSet
EndChar

StartChar: uni0453
Encoding: 461 1107 395
Width: 841
VWidth: 2088
Flags: W
HStem: 0 21G<194 380> 889 151<380 696>
VStem: 194 186<0 889>
LayerCount: 2
Fore
SplineSet
194 1040 m 1
 696 1040 l 1
 696 889 l 1
 380 889 l 1
 380 0 l 1
 194 0 l 1
 194 1040 l 1
756 1519 m 1
 443 1200 l 1
 301 1200 l 1
 524 1519 l 1
 756 1519 l 1
EndSplineSet
EndChar

StartChar: uni0414
Encoding: 462 1044 396
Width: 1393
VWidth: 2088
Flags: W
HStem: -267 420<38 211 1210 1337> 0 153<409 1013> 1320 155<714 1013>
VStem: 38 194<-267 0> 1013 197<153 1320> 1142 195<-267 0>
LayerCount: 2
Fore
SplineSet
554 1475 m 1xb4
 1210 1475 l 1
 1210 153 l 1xb8
 1337 153 l 1
 1337 -267 l 1
 1142 -267 l 1xb4
 1142 0 l 1
 232 0 l 1x74
 232 -267 l 1
 38 -267 l 1
 38 153 l 1
 211 153 l 1
 554 1475 l 1xb4
1013 153 m 1x78
 1013 1320 l 1
 714 1320 l 1
 409 153 l 1
 1013 153 l 1x78
EndSplineSet
EndChar

StartChar: uni043A
Encoding: 463 1082 397
Width: 1106
VWidth: 2088
Flags: W
HStem: 0 21G<163 349 779.547 1044> 891 160<825.816 997>
VStem: 163 186<0 441 580 1040>
LayerCount: 2
Fore
SplineSet
349 580 m 1
 516 752 l 1
 693 921 697 1051 891 1051 c 0
 921 1051 957 1046 997 1040 c 1
 997 883 l 1
 967 887 942 891 919 891 c 0
 813 891 771 761 616 608 c 2
 522 514 l 1
 1044 0 l 1
 800 0 l 1
 349 441 l 1
 349 0 l 1
 163 0 l 1
 163 1040 l 1
 349 1040 l 1
 349 580 l 1
EndSplineSet
EndChar

StartChar: uni0434
Encoding: 464 1076 398
Width: 1058
VWidth: 2088
Flags: W
HStem: -186 330<-26 148.947 938 1034> 0 144<150 182 343 750> 885 155<393 750>
VStem: -26 176<-186 0> 207 186<184.567 885> 750 188<144 885> 844 190<-186 0>
LayerCount: 2
Fore
SplineSet
150 0 m 1x7a
 150 -186 l 1
 -26 -186 l 1
 -26 144 l 1
 80 144 l 2
 182 144 207 262 207 387 c 2
 207 1040 l 1
 938 1040 l 1
 938 144 l 1xbc
 1034 144 l 5
 1034 -186 l 5
 844 -186 l 5xba
 844 0 l 5
 150 0 l 1x7a
343 144 m 1x7c
 750 144 l 1
 750 885 l 1
 393 885 l 1
 393 439 l 2
 393 316 379 217 343 144 c 1x7c
EndSplineSet
EndChar

StartChar: afii10024
Encoding: 465 1046 399
Width: 1770
VWidth: 2088
Flags: W
HStem: 0 21G<-10 247.53 800 994 1545.53 1802> 1455 20G<64 321.126 800 994 1470.93 1728>
VStem: 800 194<0 548 777 1475>
LayerCount: 2
Fore
SplineSet
994 1475 m 1
 994 777 l 1
 1485 1475 l 1
 1728 1475 l 1
 1236 785 l 1
 1802 0 l 1
 1559 0 l 1
 1103 677 l 5
 994 548 l 1
 994 0 l 1
 800 0 l 1
 800 548 l 1
 692 677 l 5
 234 0 l 1
 -10 0 l 1
 558 785 l 1
 64 1475 l 1
 307 1475 l 1
 800 777 l 1
 800 1475 l 1
 994 1475 l 1
EndSplineSet
EndChar

StartChar: afii10025
Encoding: 466 1047 400
Width: 1173
VWidth: 2088
Flags: W
HStem: -26 168<308.77 762.948> 648 171<464 762.611> 1322 182<364.676 753.255>
VStem: 863 192<922.01 1222.39> 895 193<260.958 521.297>
LayerCount: 2
Fore
SplineSet
895 407 m 0xe8
 895 507 777 648 612 648 c 2
 464 648 l 1
 464 819 l 1
 622 819 l 2
 758 819 863 919 863 1076 c 0
 863 1253 728 1322 580 1322 c 0
 459 1322 329 1277 247 1208 c 1
 175 1368 l 1
 298 1468 443 1504 610 1504 c 0
 907 1504 1055 1269 1055 1112 c 0xf0
 1055 932 976 796 851 740 c 1
 976 690 1088 581 1088 395 c 0
 1088 140 895 -26 570 -26 c 0
 386 -26 188 22 96 104 c 1
 165 259 l 1
 259 190 414 142 558 142 c 0
 735 142 895 215 895 407 c 0xe8
EndSplineSet
EndChar

StartChar: afii10026
Encoding: 467 1048 401
Width: 1517
VWidth: 2088
Flags: W
HStem: 0 21G<175 400.063 1166 1343> 1455 20G<175 353 1122.96 1343>
VStem: 175 178<263 1475> 1166 177<0 1206>
LayerCount: 2
Fore
SplineSet
175 0 m 1
 175 1475 l 1
 353 1475 l 1
 353 263 l 1
 441 409 l 1
 1136 1475 l 5
 1343 1475 l 5
 1343 0 l 1
 1166 0 l 1
 1166 1206 l 1
 1080 1061 l 1
 387 0 l 1
 175 0 l 1
EndSplineSet
EndChar

StartChar: afii10028
Encoding: 469 1050 403
Width: 1242
VWidth: 2088
Flags: W
HStem: 0 21G<175 369 1021.7 1282> 1455 20G<175 369 866.5 1208>
VStem: 175 194<0 586 777 1475>
LayerCount: 2
Fore
SplineSet
612 785 m 1
 1282 0 l 1
 1038 0 l 1
 478 687 l 1
 369 586 l 1
 369 0 l 1
 175 0 l 1
 175 1475 l 1
 369 1475 l 1
 369 777 l 1
 568 1009 768 1243 965 1475 c 5
 1208 1475 l 5
 612 785 l 1
EndSplineSet
EndChar

StartChar: afii10037
Encoding: 470 1059 404
Width: 1234
VWidth: 2088
Flags: W
HStem: 0 21G<369 592.651> 1455 20G<8 246.447 996.85 1222>
LayerCount: 2
Fore
SplineSet
584 0 m 1
 369 0 l 1
 552 441 l 5
 8 1475 l 1
 236 1475 l 1
 668 648 l 5
 1005 1475 l 1
 1222 1475 l 1
 584 0 l 1
EndSplineSet
EndChar

StartChar: afii10040
Encoding: 471 1062 405
Width: 1497
VWidth: 2088
Flags: W
HStem: 0 153<369 1130> 1455 20G<175 369 1130 1324>
VStem: 175 194<153 1475> 1130 194<153 1475> 1258 193<-267 0>
LayerCount: 2
Fore
SplineSet
1130 153 m 5xf0
 1130 1475 l 1
 1324 1475 l 1
 1324 153 l 5xf0
 1451 153 l 5
 1451 -267 l 5
 1258 -267 l 5
 1258 0 l 5xe8
 175 0 l 5
 175 1475 l 1
 369 1475 l 1
 369 153 l 5
 1130 153 l 5xf0
EndSplineSet
EndChar

StartChar: afii10041
Encoding: 472 1063 406
Width: 1296
VWidth: 2088
Flags: W
HStem: 0 21G<927 1122> 512 167<458.427 730.006>
VStem: 159 194<798.886 1459> 927 195<0 687 873.71 1459>
LayerCount: 2
Fore
SplineSet
927 982 m 2
 927 1459 l 1
 1122 1459 l 1
 1122 0 l 1
 927 0 l 1
 927 687 l 1
 852 568 706 512 576 512 c 0
 338 512 159 660 159 925 c 2
 159 1459 l 1
 353 1459 l 1
 353 1024 l 2
 353 783 437 679 610 679 c 0
 744 679 927 882 927 982 c 2
EndSplineSet
EndChar

StartChar: afii10043
Encoding: 473 1065 407
Width: 1754
VWidth: 2088
Flags: W
HStem: 0 153<369 781 975 1385> 1455 20G<175 369 781 975 1385 1579>
VStem: 175 194<153 1475> 781 194<153 1475> 1385 194<153 1475> 1515 193<-267 0>
LayerCount: 2
Fore
SplineSet
369 153 m 1xf4
 781 153 l 1
 781 1475 l 1
 975 1475 l 1
 975 153 l 1
 1385 153 l 1
 1385 1475 l 1
 1579 1475 l 1
 1579 153 l 1xf8
 1708 153 l 1
 1708 -267 l 1
 1515 -267 l 1
 1515 0 l 1
 175 0 l 1
 175 1475 l 1
 369 1475 l 1
 369 153 l 1xf4
EndSplineSet
EndChar

StartChar: afii10047
Encoding: 474 1069 408
Width: 1346
VWidth: 2088
Flags: W
HStem: -23 167<311.17 749.618> 640 193<387 1032> 1335 167<311.17 744.703>
VStem: 1032 213<467.057 640 833 1014.5>
LayerCount: 2
Fore
SplineSet
1245 742 m 0
 1245 333 1005 -23 552 -23 c 0
 368 -23 213 23 102 113 c 1
 167 271 l 1
 257 198 394 144 534 144 c 0
 847 144 1002 371 1032 640 c 1
 387 640 l 1
 387 833 l 1
 1032 833 l 1
 1004 1104 849 1335 534 1335 c 0
 394 1335 257 1281 167 1208 c 1
 102 1366 l 1
 213 1456 368 1502 552 1502 c 0
 1005 1502 1245 1151 1245 742 c 0
EndSplineSet
EndChar

StartChar: afii10066
Encoding: 475 1073 409
Width: 1114
VWidth: 2088
Flags: W
HStem: 0 150<347 743.185> 539 151<347 743.185> 889 151<347 871>
VStem: 153 194<150 539 690 889> 815 177<222.465 470.2>
LayerCount: 2
Fore
SplineSet
620 539 m 2
 347 539 l 1
 347 150 l 1
 620 150 l 2
 745 150 815 257 815 351 c 0
 815 445 745 539 620 539 c 2
153 1040 m 1
 871 1040 l 5
 871 889 l 5
 347 889 l 1
 347 690 l 1
 602 690 l 2
 859 690 992 520 992 349 c 0
 992 178 859 0 602 0 c 2
 153 0 l 1
 153 1040 l 1
EndSplineSet
EndChar

StartChar: afii10072
Encoding: 476 1078 410
Width: 1591
VWidth: 2088
Flags: W
HStem: 0 21G<10 275.454 706 887 1318.5 1583> 891 160<111 293.998 1299.97 1483>
VStem: 706 181<0 441 580 1040>
LayerCount: 2
Fore
SplineSet
887 0 m 1
 706 0 l 1
 706 441 l 1
 255 0 l 1
 10 0 l 1
 534 514 l 1
 470 608 l 2
 342 792 294 891 188 891 c 0
 165 891 141 887 111 883 c 1
 111 1040 l 1
 151 1046 185 1051 215 1051 c 0
 409 1051 425 952 578 758 c 1
 706 580 l 1
 706 1040 l 1
 887 1040 l 1
 887 580 l 1
 1015 758 l 1
 1168 952 1185 1051 1379 1051 c 0
 1409 1051 1443 1046 1483 1040 c 1
 1483 883 l 1
 1453 887 1429 891 1406 891 c 0
 1300 891 1252 792 1124 608 c 2
 1059 514 l 1
 1583 0 l 1
 1339 0 l 1
 887 441 l 1
 887 0 l 1
EndSplineSet
EndChar

StartChar: afii10088
Encoding: 477 1094 411
Width: 1132
VWidth: 2088
Flags: W
HStem: 0 155<339 809> 1020 20G<153 339 809 997>
VStem: 153 186<155 1040> 809 188<157 1040> 957 150<-225 0>
LayerCount: 2
Fore
SplineSet
957 0 m 5xe8
 153 0 l 1
 153 1040 l 1
 339 1040 l 1
 339 155 l 1
 809 155 l 1
 809 1040 l 1
 997 1040 l 1
 997 157 l 5xf0
 1107 157 l 5
 1107 -225 l 5
 957 -225 l 5
 957 0 l 5xe8
EndSplineSet
EndChar

StartChar: afii10091
Encoding: 478 1097 412
Width: 1401
VWidth: 2088
Flags: W
HStem: 0 155<339 624 794 1080> 1020 20G<153 339 624 794 1080 1266>
VStem: 153 186<155 1040> 624 170<155 1040> 1080 186<155 1040> 1226 151<-225 0>
LayerCount: 2
Fore
SplineSet
339 155 m 1xf4
 624 155 l 1
 624 1040 l 1
 794 1040 l 1
 794 155 l 1
 1080 155 l 1
 1080 1040 l 1
 1266 1040 l 1
 1266 155 l 1xf8
 1377 155 l 1
 1377 -225 l 1
 1226 -225 l 1
 1226 0 l 1
 153 0 l 1
 153 1040 l 1
 339 1040 l 1
 339 155 l 1xf4
EndSplineSet
EndChar

StartChar: afii10093
Encoding: 479 1099 413
Width: 1407
VWidth: 2088
Flags: W
HStem: 0 150<347 680.399> 539 151<347 680.399> 1020 20G<153 347 1070 1258>
VStem: 153 194<150 539 690 1040> 752 179<222.465 473.964> 1070 188<0 1040>
LayerCount: 2
Fore
SplineSet
1258 1040 m 5
 1258 0 l 5
 1070 0 l 5
 1070 1040 l 5
 1258 1040 l 5
560 539 m 2
 347 539 l 1
 347 150 l 1
 560 150 l 2
 685 150 752 257 752 351 c 0
 752 445 685 539 560 539 c 2
347 1040 m 1
 347 690 l 1
 539 690 l 2
 796 690 931 520 931 349 c 0
 931 178 796 0 539 0 c 2
 153 0 l 1
 153 1040 l 1
 347 1040 l 1
EndSplineSet
EndChar

StartChar: afii10095
Encoding: 480 1101 414
Width: 1027
VWidth: 2088
Flags: W
HStem: -23 153<259.423 608.477> 426 188<357 756> 913 152<262.819 607.562>
VStem: 756 197<291.691 426 614 749.922>
LayerCount: 2
Fore
SplineSet
437 130 m 0
 627 130 728 251 756 426 c 1
 357 426 l 1
 357 614 l 1
 758 614 l 1
 732 781 633 913 443 913 c 0
 341 913 245 880 165 794 c 1
 78 915 l 1
 164 1017 301 1065 449 1065 c 0
 786 1065 953 803 953 524 c 0
 953 233 786 -23 451 -23 c 0
 311 -23 172 25 78 125 c 1
 165 247 l 1
 236 172 335 130 437 130 c 0
EndSplineSet
EndChar

StartChar: ff
Encoding: 481 64256 415
Width: 1390
VWidth: 0
Flags: W
HStem: 0 21G<323 512 931 1120> 933 107<150 323 512 931 1120 1364> 1404 115<558.139 777 1165.23 1385>
VStem: 323 189<0 933 1040 1354.37> 931 189<0 933 1040 1354.37>
LayerCount: 2
Fore
SplineSet
150 933 m 1
 150 1040 l 1
 323 1040 l 1
 323 1053 l 2
 323 1383 351 1519 742 1519 c 2
 777 1519 l 1
 777 1404 l 1
 723 1404 l 2
 506 1404 512 1309 512 1134 c 2
 512 1040 l 1
 931 1040 l 1
 931 1053 l 2
 931 1383 958 1519 1349 1519 c 2
 1385 1519 l 1
 1385 1404 l 1
 1331 1404 l 2
 1114 1404 1120 1309 1120 1134 c 2
 1120 1040 l 1
 1364 1040 l 1
 1364 933 l 1
 1120 933 l 1
 1120 0 l 1
 931 0 l 1
 931 933 l 1
 512 933 l 1
 512 0 l 1
 323 0 l 1
 323 933 l 1
 150 933 l 1
EndSplineSet
LCarets2: 1 0 
Ligature2: "'liga' Standard Ligatures lookup 0-1" f f
EndChar
